<?xml version="1.0" encoding="UTF-8"?>
<svg width="59px" height="18px" viewBox="0 0 59 18" version="1.1" xmlns="http://www.w3.org/2000/svg" xmlns:xlink="http://www.w3.org/1999/xlink">
    <g id="Sadaļas" stroke="none" stroke-width="1" fill="none" fill-rule="evenodd">
        <g id="01.02.-Sākumlapa-v4---Izvērsts-kalkulātors" transform="translate(-1326.000000, -7835.000000)" fill="#1A2633">
            <g id="Footer" transform="translate(0.000000, 7154.000000)">
                <g id="Content" transform="translate(215.000000, 56.000000)">
                    <g id="3rd-row" transform="translate(0.000000, 620.000000)">
                        <g id="Developed-by" transform="translate(953.000000, 0.000000)">
                            <g id="Datateks" transform="translate(158.000000, 5.000000)">
                                <g id="logo-Datateks-Projects" transform="translate(0.000000, 16.000000)">
                                    <rect id="dot-4" x="28" y="0" width="2" height="2"></rect>
                                    <rect id="dot-3" x="19" y="0" width="2" height="2"></rect>
                                    <rect id="dot-2" x="9" y="0" width="2" height="2"></rect>
                                    <rect id="dot-1" x="0" y="0" width="2" height="2"></rect>
                                </g>
                                <g id="logo-Datateks" transform="translate(0.000000, 0.177778)" fill-rule="nonzero">
                                    <path d="M41.2301876,4 C40.6105475,3.82222222 39.9909074,3.82222222 39.3712672,3.91111111 C38.6631071,4.04444444 38.043467,4.35555556 37.5566069,4.88888889 C37.2025268,5.28888889 36.9369668,5.77777778 36.7599267,6.31111111 C36.6271467,6.75555556 36.5828867,7.15555556 36.5386267,7.6 C36.4943667,8.17777778 36.5386267,8.75555556 36.6714067,9.33333333 C36.8041867,9.82222222 36.9812268,10.3111111 37.2910468,10.7111111 C37.5566069,11.1111111 37.954947,11.3777778 38.353287,11.6 C38.8844072,11.8666667 39.4155273,11.9555556 39.9909074,12 L40.5662875,12 C40.8761075,11.9555556 41.1859276,11.9555556 41.4514877,11.8666667 C42.0268678,11.7333333 42.5579879,11.5555556 43.044848,11.3333333 C43.089108,11.2888889 43.089108,11.2888889 43.089108,11.2 L43.089108,9.68888889 L43.089108,9.6 C43.044848,9.64444444 43.044848,9.64444444 43.000588,9.64444444 C42.7350279,9.77777778 42.4694679,9.95555556 42.1596478,10.0888889 C41.5400077,10.4 40.8761075,10.5333333 40.1679474,10.4444444 C39.5483073,10.3555556 39.1499672,10.0444444 38.9286672,9.46666667 C38.7958871,9.11111111 38.7516271,8.75555556 38.7073671,8.4 L38.7073671,8.13333333 L43.3989281,8.13333333 L43.3989281,8.08888889 C43.3989281,7.6 43.3989281,7.06666667 43.310408,6.57777778 C43.221888,6.04444444 43.044848,5.46666667 42.6907679,5.02222222 C42.2924278,4.48888889 41.8055677,4.17777778 41.2301876,4 Z M38.7958871,6.97777778 C38.8401471,6.44444444 38.9729272,6 39.3712672,5.6 C39.8138673,5.15555556 40.6990675,5.15555556 41.0974076,5.82222222 C41.2301876,6.08888889 41.3187076,6.35555556 41.3629676,6.66666667 C41.3629676,6.75555556 41.3629676,6.88888889 41.4072277,6.97777778 L38.7958871,6.97777778 Z M57.6949109,7.95555556 C57.4293509,7.68888889 57.1195308,7.51111111 56.7654507,7.37777778 C56.3228506,7.2 55.8359905,7.06666667 55.3933905,6.93333333 C55.0835704,6.84444444 54.8180103,6.75555556 54.5524503,6.53333333 C54.3754103,6.4 54.2426302,6.22222222 54.2426302,5.95555556 C54.2426302,5.68888889 54.4196703,5.51111111 54.6852303,5.46666667 C55.1720904,5.33333333 55.6146905,5.33333333 56.1015506,5.42222222 C56.6326707,5.55555556 57.0752708,5.73333333 57.5621309,6 C57.6063909,6 57.6063909,6.04444444 57.6506509,6.04444444 L57.6506509,4.4 C57.6506509,4.35555556 57.6063909,4.35555556 57.6063909,4.31111111 C57.0752708,4.08888889 56.4998907,3.91111111 55.9245106,3.86666667 C55.3933905,3.82222222 54.8622704,3.82222222 54.3311502,3.91111111 C53.7557701,4 53.26891,4.17777778 52.7820499,4.53333333 C52.5164899,4.71111111 52.3394498,4.97777778 52.2066698,5.28888889 C52.0296298,5.68888889 51.9853698,6.13333333 52.0296298,6.57777778 C52.0738898,6.93333333 52.2066698,7.24444444 52.4279699,7.51111111 C52.6935299,7.82222222 53.00335,8.04444444 53.3574301,8.17777778 C53.8000301,8.4 54.2868902,8.48888889 54.7294903,8.66666667 C55.0393104,8.75555556 55.3048704,8.84444444 55.5704305,9.02222222 C55.9245106,9.24444444 56.0572906,9.6 55.8802506,9.95555556 C55.7474705,10.2222222 55.5261705,10.3111111 55.3048704,10.4 C54.9065304,10.5333333 54.4639303,10.5333333 54.0655902,10.4444444 C53.5344701,10.3111111 53.09187,10.1333333 52.6050099,9.91111111 C52.4279699,9.82222222 52.2951898,9.77777778 52.1181498,9.68888889 L52.1181498,11.2888889 C52.1181498,11.3333333 52.1624098,11.3333333 52.1624098,11.3777778 C52.87057,11.6888889 53.5787301,11.8666667 54.3311502,11.9555556 C54.4639303,11.9555556 54.5967103,11.9555556 54.6852303,12 L55.1278304,12 C55.3048704,12 55.4376505,11.9555556 55.6146905,11.9555556 C56.1900706,11.8666667 56.7211907,11.7333333 57.2080508,11.4222222 C57.5621309,11.2 57.871951,10.8888889 58.048991,10.4888889 C58.270291,10 58.314551,9.55555556 58.270291,9.11111111 C58.226031,8.66666667 58.048991,8.26666667 57.6949109,7.95555556 Z M34.1043262,5.73333333 L35.9632466,5.73333333 C36.0075066,5.73333333 36.0517666,5.73333333 36.0517666,5.64444444 C36.1845466,5.28888889 36.3173266,4.88888889 36.4501067,4.53333333 C36.4943667,4.4 36.5386267,4.31111111 36.5828867,4.17777778 L34.0158062,4.17777778 L34.0158062,1.82222222 C33.9715462,1.82222222 33.9715462,1.86666667 33.9272862,1.86666667 C33.219126,2.35555556 32.5552259,2.8 31.8470657,3.28888889 C31.7585457,3.33333333 31.7142857,3.37777778 31.7142857,3.46666667 L31.7142857,9.46666667 C31.7142857,9.73333333 31.7142857,9.95555556 31.7585457,10.2222222 C31.8470657,10.6666667 31.9798458,11.0222222 32.2896658,11.3333333 C32.6437459,11.6888889 33.042086,11.8666667 33.4846861,11.9111111 C33.6174661,11.9555556 33.7502461,11.9555556 33.8830261,11.9555556 L34.3698862,11.9555556 C34.5469263,11.9555556 34.7682263,11.9111111 34.9452664,11.9111111 C35.3436064,11.8666667 35.7419465,11.7777778 36.1402866,11.6 C36.1845466,11.6 36.2288066,11.5555556 36.2288066,11.5111111 L36.2288066,10.1777778 L36.2288066,10.0888889 C36.1845466,10.0888889 36.1845466,10.1333333 36.1402866,10.1333333 C35.6976865,10.3555556 35.2108264,10.4444444 34.6797063,10.4 C34.3698862,10.3555556 34.1485862,10.2222222 34.0158062,9.95555556 C33.9272862,9.73333333 33.8830261,9.46666667 33.8830261,9.2 L33.8830261,5.77777778 L34.1043262,5.73333333 Z M49.2412492,4.13333333 C49.1969892,4.13333333 49.1969892,4.13333333 49.1527292,4.17777778 C48.8871692,4.53333333 48.5773491,4.88888889 48.311789,5.24444444 C47.8249289,5.82222222 47.3823289,6.4 46.8954688,7.02222222 C46.8512087,7.06666667 46.8069487,7.11111111 46.7184287,7.06666667 L46.7184287,0 C45.9660086,0.177777778 45.2578484,0.355555556 44.5496883,0.533333333 C44.4611683,0.533333333 44.4611683,0.577777778 44.4611683,0.666666667 L44.4611683,11.8222222 L46.7184287,11.8222222 L46.7184287,8.35555556 C46.8069487,8.31111111 46.8069487,8.35555556 46.8512087,8.4 C47.6036289,9.51111111 48.356049,10.6666667 49.0642092,11.7777778 C49.1084692,11.8222222 49.1084692,11.8222222 49.1969892,11.8222222 L51.7640697,11.8222222 C50.7460895,10.4 49.6838493,8.93333333 48.6658691,7.51111111 C49.6838493,6.35555556 50.7018295,5.24444444 51.6755497,4.13333333 L49.2412492,4.13333333 Z" id="teks" opacity="0.699999988"></path>
                                    <path d="M19.880597,11.954351 C19.4328358,11.8662651 18.9850746,11.6900935 18.6716418,11.3817931 C18.358209,11.0734927 18.1791045,10.6771065 18.1343284,10.2807202 C18.0895522,10.0605057 18.0895522,9.7962482 18.0895522,9.53199071 L18.0895522,3.58619738 C18.0895522,3.49811155 18.1343284,3.45406864 18.1791045,3.41002572 C18.8955224,2.92555367 19.5671642,2.48512454 20.2835821,2.00065249 C20.2835821,2.00065249 20.3283582,1.95660957 20.3731343,1.95660957 L20.3731343,4.33492691 L22.9701493,4.33492691 C22.8358209,4.42301274 22.8358209,4.51109856 22.7910448,4.6432273 C22.6567164,4.99557061 22.5223881,5.39195684 22.3880597,5.74430014 C22.3880597,5.78834306 22.3432836,5.83238597 22.2985075,5.83238597 L20.2835821,5.83238597 L20.2835821,9.22369032 C20.2835821,9.4879478 20.2835821,9.75220528 20.4179104,9.97241985 C20.5522388,10.2366773 20.7761194,10.412849 21.0895522,10.412849 C21.5820896,10.4568919 22.0746269,10.3688061 22.5671642,10.1485915 C22.6119403,10.1485915 22.6119403,10.1045486 22.6567164,10.1045486 L22.6567164,11.5139218 C22.6567164,11.5579647 22.6567164,11.6020077 22.5671642,11.6020077 C22.1641791,11.7341364 21.761194,11.8222222 21.358209,11.910308 C21.1791045,11.954351 20.9552239,11.954351 20.7761194,11.954351 L20.7313433,11.954351 C20.5970149,11.9983939 20.4179104,11.9983939 20.2835821,11.9983939 C20.1492537,11.9983939 20.0149254,11.954351 19.880597,11.954351 Z M0,11.7781793 L0,0.855536734 L4.11940299,0.855536734 C4.88059701,0.855536734 5.59701493,0.943622561 6.31343284,1.20788004 C7.47761194,1.60426627 8.32835821,2.39703871 8.7761194,3.54215446 C9,4.07066943 9.13432836,4.6432273 9.17910448,5.21578518 C9.2238806,5.78834306 9.26865672,6.36090093 9.2238806,6.93345881 C9.17910448,7.68218834 9.04477612,8.43091787 8.73134328,9.09156158 C8.32835821,10.0164628 7.65671642,10.7211494 6.71641791,11.2056214 C6.13432836,11.4698789 5.55223881,11.6460506 4.92537313,11.7341364 C4.56716418,11.7781793 4.1641791,11.7781793 3.80597015,11.8222222 L0.0895522388,11.8222222 C0.0895522388,11.7781793 0.0447761194,11.7781793 0,11.7781793 Z M2.32835821,2.48512454 L2.32835821,10.2366773 L3.35820896,10.2366773 C3.80597015,10.2366773 4.25373134,10.2366773 4.70149254,10.1485915 C5.50746269,9.97241985 6.08955224,9.53199071 6.44776119,8.78326118 C6.71641791,8.25474622 6.80597015,7.63814543 6.85074627,7.02154464 C6.89552239,6.44898676 6.89552239,5.9204718 6.80597015,5.34791392 C6.76119403,4.90748479 6.67164179,4.42301274 6.49253731,4.02662651 C6.17910448,3.27789698 5.64179104,2.79342493 4.88059701,2.61725328 C4.43283582,2.48512454 4.02985075,2.44108162 3.58208955,2.48512454 L2.32835821,2.48512454 Z M16.5671642,6.27281511 C16.5671642,5.9204718 16.5223881,5.56812849 16.3880597,5.25982809 C16.2089552,4.81939896 15.8955224,4.42301274 15.4477612,4.24684108 C15.0447761,4.07066943 14.5970149,3.9825836 14.1492537,3.93854069 C13.4328358,3.89449777 12.761194,3.93854069 12.0895522,4.07066943 C11.5522388,4.15875525 11.0149254,4.33492691 10.5223881,4.55514148 C10.4776119,4.59918439 10.4328358,4.6432273 10.4328358,4.68727022 L10.4328358,6.27281511 C10.4328358,6.27281511 10.4776119,6.27281511 10.4776119,6.22877219 C11.0597015,5.87642889 11.6865672,5.56812849 12.4029851,5.43599975 C12.8059701,5.39195684 13.2089552,5.34791392 13.5671642,5.43599975 C13.880597,5.52408558 14.1044776,5.70025723 14.238806,6.00855763 C14.3731343,6.36090093 14.3283582,6.71324424 14.3283582,7.10963047 L13.5223881,7.10963047 C13.2537313,7.10963047 12.9402985,7.10963047 12.6716418,7.15367338 C12.1791045,7.19771629 11.7313433,7.32984503 11.238806,7.50601669 C10.3880597,7.85836 9.89552239,8.47496079 9.76119403,9.39986197 C9.71641791,9.7962482 9.71641791,10.2366773 9.85074627,10.6330636 C10.119403,11.2496643 10.5671642,11.6900935 11.238806,11.8662651 C11.3731343,11.910308 11.5074627,11.910308 11.6865672,11.954351 L12.2238806,11.954351 C12.4477612,11.910308 12.7164179,11.910308 12.9402985,11.8662651 C13.4328358,11.7781793 13.880597,11.5139218 14.238806,11.1615785 C14.2835821,11.1175356 14.3283582,11.0734927 14.4179104,11.0294498 C14.4626866,11.2937073 14.4626866,11.5139218 14.5074627,11.7781793 L16.6567164,11.7781793 L16.6567164,11.6900935 C16.5671642,10.5890206 16.5671642,9.53199071 16.5671642,8.43091787 L16.5671642,6.27281511 Z M13.3432836,10.412849 C13.0298507,10.5009348 12.7164179,10.5449777 12.4029851,10.4568919 C12.0895522,10.3688061 11.9552239,10.1485915 11.9104478,9.84029111 C11.8656716,9.53199071 11.9104478,9.22369032 12.1343284,8.95943284 C12.3134328,8.73921827 12.5373134,8.60708953 12.8059701,8.5190037 C13.119403,8.38687496 13.4776119,8.34283205 13.7910448,8.34283205 L14.3283582,8.34283205 L14.3283582,9.57603363 C14.3283582,9.66411946 14.2835821,9.75220528 14.1940299,9.84029111 C13.9253731,10.1045486 13.6567164,10.2807202 13.3432836,10.412849 Z M29.9104478,8.43091787 L29.9104478,6.27281511 C29.9104478,5.9204718 29.8656716,5.56812849 29.7313433,5.25982809 C29.5522388,4.81939896 29.238806,4.42301274 28.7910448,4.24684108 C28.3880597,4.07066943 27.9402985,3.9825836 27.4925373,3.93854069 C26.7761194,3.89449777 26.1044776,3.93854069 25.4328358,4.07066943 C24.8955224,4.15875525 24.358209,4.33492691 23.8656716,4.55514148 C23.8208955,4.59918439 23.7761194,4.6432273 23.7761194,4.68727022 L23.7761194,6.27281511 C23.7761194,6.27281511 23.8208955,6.27281511 23.8208955,6.22877219 C24.4029851,5.87642889 25.0298507,5.56812849 25.7462687,5.43599975 C26.1492537,5.39195684 26.5522388,5.34791392 26.9104478,5.43599975 C27.2238806,5.52408558 27.4477612,5.70025723 27.5820896,6.00855763 C27.7164179,6.36090093 27.6716418,6.71324424 27.6716418,7.10963047 L26.8656716,7.10963047 C26.5970149,7.10963047 26.2835821,7.10963047 26.0149254,7.15367338 C25.5223881,7.19771629 25.0746269,7.32984503 24.5820896,7.50601669 C23.7313433,7.85836 23.238806,8.47496079 23.1044776,9.39986197 C23.0597015,9.7962482 23.0597015,10.2366773 23.1940299,10.6330636 C23.4626866,11.2496643 23.9104478,11.6900935 24.5820896,11.8662651 C24.7164179,11.910308 24.8507463,11.910308 25.0298507,11.954351 L25.5671642,11.954351 C25.7910448,11.910308 26.0597015,11.910308 26.2835821,11.8662651 C26.7761194,11.7781793 27.2238806,11.5139218 27.5820896,11.1615785 C27.6268657,11.1175356 27.6716418,11.0734927 27.761194,11.0294498 C27.8059701,11.2937073 27.8059701,11.5139218 27.8507463,11.7781793 L30,11.7781793 L30,11.6900935 C29.9104478,10.5890206 29.9104478,9.53199071 29.9104478,8.43091787 Z M26.6865672,10.412849 C26.3731343,10.5009348 26.0597015,10.5449777 25.7462687,10.4568919 C25.4328358,10.3688061 25.2985075,10.1485915 25.2537313,9.84029111 C25.2089552,9.53199071 25.2537313,9.22369032 25.4776119,8.95943284 C25.6567164,8.73921827 25.880597,8.60708953 26.1492537,8.5190037 C26.4626866,8.38687496 26.8208955,8.34283205 27.1343284,8.34283205 L27.6716418,8.34283205 L27.6716418,9.57603363 C27.6716418,9.66411946 27.6268657,9.75220528 27.5373134,9.84029111 C27.2686567,10.1045486 27,10.2807202 26.6865672,10.412849 Z" id="data"></path>
                                </g>
                            </g>
                        </g>
                    </g>
                </g>
            </g>
        </g>
    </g>
</svg>
