<?xml version="1.0" encoding="UTF-8"?>
<svg width="88px" height="60px" viewBox="0 0 88 60" version="1.1" xmlns="http://www.w3.org/2000/svg" xmlns:xlink="http://www.w3.org/1999/xlink">
    <title>6099BBD2-0401-43B5-9EC5-498114162CC2</title>
    <g id="Sadaļas" stroke="none" stroke-width="1" fill="none" fill-rule="evenodd">
        <g id="01.02.-Sākumlapa-v4---Izvērsts-kalkulātors" transform="translate(-402.000000, -803.000000)">
            <g id="Categories-+-Cities" transform="translate(0.000000, 608.000000)">
                <g id="Categories" transform="translate(215.000000, 0.000000)">
                    <g id="Category-9" transform="translate(0.000000, 180.000000)">
                        <g id="Category-icon-/-MED" transform="translate(187.000000, 15.000000)">
                            <polygon id="Line" fill="#E6E9F0" points="0 53 88 53 88 55 0 55"></polygon>
                            <g id="Icon" transform="translate(18.739848, 5.000000)">
                                <path d="M47.2601518,34 C49.4692908,34 51.2601518,35.790861 51.2601518,38 C51.2601518,40.209139 49.4692908,42 47.2601518,42 C45.0510128,42 43.2601518,40.209139 43.2601518,38 C43.2601518,35.790861 45.0510128,34 47.2601518,34 Z M6.77141166,29.1015313 C6.69162831,28.933299 6.91542742,28.8669556 7.442809,28.902501 L7.73179833,28.9287645 L7.73179833,28.9287645 L8.07138474,28.9720095 C8.1321989,28.9806321 8.19512127,28.9899623 8.26015185,29 C10.5934852,30.3333333 12.9268185,31 15.2601518,31 C17.4638556,31 19.3702342,30.4053498 20.9792877,29.2160494 L21.2601518,29 L24.2601518,29 L24.0564867,29.4039983 L24.0564867,29.4039983 L23.6516554,30.1870054 C23.4500727,30.5701791 23.2497395,30.940858 23.0506558,31.2990421 L22.6541543,31.9987505 C19.9561119,36.6662502 17.4914444,39 15.2601518,39 C13.3102314,39 11.1820834,37.039496 8.87570774,33.118488 L8.50013862,32.465464 L8.50013862,32.465464 L8.12144498,31.7780704 C7.99469301,31.5432109 7.86742029,31.3026231 7.73962682,31.056307 L7.35468414,30.300174 C7.29026666,30.1712877 7.22571898,30.0409693 7.16104111,29.9092189 L6.77141166,29.1015313 L6.77141166,29.1015313 Z M6.26015185,1 C7.9170061,1 9.26015185,2.34314575 9.26015185,4 C9.26015185,5.65685425 7.9170061,7 6.26015185,7 L5.26015185,7 L5.26015185,1 L6.26015185,1 Z M25.2601518,1 L25.2601518,7 L24.2601518,7 C22.6032976,7 21.2601518,5.65685425 21.2601518,4 C21.2601518,2.40231912 22.5090718,1.09633912 24.0838791,1.00509269 L24.2601518,1 L25.2601518,1 Z" id="path" fill="#FADBD4"></path>
                                <path d="M6.26015185,0 C8.46929085,0 10.2601518,1.790861 10.2601518,4 C10.2601518,6.209139 8.46929085,8 6.26015185,8 L5.26015185,8 C4.7078671,8 4.26015185,7.55228475 4.26015185,7 L4.26,5 L4,5 C2.8954305,5 2,5.8954305 2,7 C2,7.09728313 2.00709794,7.19437147 2.02120931,7.29049514 L2.04762588,7.43386092 L5.28396479,21.997386 C6.3230371,26.6732114 10.4702652,30 15.2601518,30 C19.9561192,30 24.0343831,26.8023946 25.1716506,22.2708637 L25.2363389,21.997386 L28.4726778,7.43386092 C28.7122926,6.35559446 28.0324311,5.28724065 26.9541646,5.04762588 C26.8591981,5.02652221 26.7628819,5.01238971 26.6659861,5.00531289 L26.5203037,5 L26.26,5 L26.2601518,7 C26.2601518,7.51283584 25.8741117,7.93550716 25.376773,7.99327227 L25.2601518,8 L24.2601518,8 C22.0510128,8 20.2601518,6.209139 20.2601518,4 C20.2601518,1.85780461 21.9441203,0.108921124 24.0605115,0.00489530723 L24.2601518,0 L25.2601518,0 C25.7729877,0 26.195659,0.38604019 26.2534241,0.883378875 L26.2601518,1 L26.26,3 L26.5203037,3 C26.8121531,3 27.1031259,3.03194074 27.3880255,3.09525176 C29.4771668,3.55950537 30.8185206,5.57926333 30.464624,7.66565493 L30.4250519,7.86772183 L27.188713,22.4312469 C27.066492,22.9812414 26.9083061,23.5156261 26.7169616,24.0321495 L26.7321106,24.0351513 L26.5726794,24.6941338 C25.7015821,28.2946691 24.1127282,31.6801818 21.903475,34.6487188 L21.5495041,35.1139406 L19.2773853,38.0352362 C18.5213155,39.0073259 17.4465265,39.6629986 16.2605263,39.9007654 L16.2601518,41 C16.2601518,44.8659932 19.3941586,48 23.2601518,48 C27.0456036,48 30.1292505,44.9952166 30.2560928,41.2406498 L30.2601518,41 L30.2601518,33 C30.2601518,28.0294373 34.2895891,24 39.2601518,24 C44.1419545,24 48.1159433,27.8868137 48.2563147,32.7346377 L48.2606244,33.1001141 C50.5426293,33.563567 52.2601518,35.581209 52.2601518,38 C52.2601518,40.7614237 50.0215756,43 47.2601518,43 C44.4987281,43 42.2601518,40.7614237 42.2601518,38 C42.2601518,35.5811085 43.9778172,33.5633992 46.2599639,33.1000563 L46.2601518,33 C46.2601518,29.1340068 43.1261451,26 39.2601518,26 C35.4747001,26 32.3910532,29.0047834 32.2642109,32.7593502 L32.2601518,33 L32.2601518,41 C32.2601518,45.9705627 28.2307146,50 23.2601518,50 C18.3783491,50 14.4043604,46.1131863 14.263989,41.2653623 L14.2601518,41 L14.2606561,39.9009414 C13.1583383,39.6801532 12.1520384,39.0983639 11.4083433,38.2370486 L11.2429184,38.0352362 L8.97079963,35.1139406 L8.6168287,34.6487188 C6.52385198,31.8364206 4.98768791,28.6498838 4.09111653,25.260823 L3.94762431,24.6941338 L3.78819307,24.0351513 L3.80334209,24.0321495 C3.64673135,23.6093878 3.51233355,23.1746608 3.40168748,22.7292029 L3.33159067,22.4312469 L0.0952517593,7.86772183 C0.0319407388,7.58282224 0,7.29184938 0,7 C0,4.85780461 1.68396847,3.10892112 3.80035966,3.00489531 L4,3 L4.26,3 L4.26015185,1 C4.26015185,0.44771525 4.7078671,0 5.26015185,0 L6.26015185,0 Z M47.2601518,35 C45.6032976,35 44.2601518,36.3431458 44.2601518,38 C44.2601518,39.6568542 45.6032976,41 47.2601518,41 C48.9170061,41 50.2601518,39.6568542 50.2601518,38 C50.2601518,36.3431458 48.9170061,35 47.2601518,35 Z M47.2601518,37 C47.8124366,37 48.2601518,37.4477153 48.2601518,38 C48.2601518,38.5522847 47.8124366,39 47.2601518,39 C46.7078671,39 46.2601518,38.5522847 46.2601518,38 C46.2601518,37.4477153 46.7078671,37 47.2601518,37 Z M22.746,29.437 L22.6779564,29.4909512 C20.6042596,31.0753015 18.0215209,32 15.2601518,32 C12.4678318,32 9.85816888,31.0544562 7.77281004,29.437428 C8.45730865,30.8371175 9.27085788,32.1746521 10.2042574,33.4317773 L10.5495041,33.8860594 L12.8216228,36.807355 L12.9517614,36.9637787 C13.4908175,37.5699765 14.247329,37.939974 15.0567811,37.9933098 L15.2601518,38 C16.1453793,38 16.9845648,37.620493 17.5685423,36.9637787 L17.6986809,36.807355 L19.9707996,33.8860594 C20.9151109,32.6719449 21.7450314,31.378331 22.4524563,30.0220299 L22.746,29.437 Z M6.26015185,2 L6.26015185,6 L6.40941419,5.99451426 C7.44427406,5.91816512 8.26015185,5.0543618 8.26015185,4 C8.26015185,2.9456382 7.44427406,2.08183488 6.40941419,2.00548574 L6.26015185,2 Z M24.2601518,2 L24.1108895,2.00548574 C23.0760296,2.08183488 22.2601518,2.9456382 22.2601518,4 C22.2601518,5.00164371 22.9964816,5.83130839 23.9573775,5.9772306 L24.1108895,5.99451426 L24.2601518,6 L24.2601518,2 Z" id="path" fill="#E44D28" fill-rule="nonzero"></path>
                            </g>
                        </g>
                    </g>
                </g>
            </g>
        </g>
    </g>
</svg>