<?xml version="1.0" encoding="UTF-8"?>
<svg width="87px" height="60px" viewBox="0 0 87 60" version="1.1" xmlns="http://www.w3.org/2000/svg" xmlns:xlink="http://www.w3.org/1999/xlink">
    <title>CB1BEC31-CAEE-4ECE-847D-E9666F0733D5</title>
    <g id="Sadaļas" stroke="none" stroke-width="1" fill="none" fill-rule="evenodd">
        <g id="01.02.-Sākumlapa-v4---Izvērsts-kalkulātors" transform="translate(-403.000000, -618.000000)">
            <g id="Categories-+-Cities" transform="translate(0.000000, 608.000000)">
                <g id="Categories" transform="translate(215.000000, 0.000000)">
                    <g id="Category-icon-/-AM" transform="translate(188.000000, 10.000000)">
                        <rect id="Line" fill="#E6E9F0" x="0" y="48" width="87" height="2"></rect>
                        <g id="Icon" transform="translate(20.000000, 10.000000)">
                            <path d="M40,29 C42.7614237,29 45,31.2385763 45,34 C45,36.7614237 42.7614237,39 40,39 C37.2385763,39 35,36.7614237 35,34 C35,31.2385763 37.2385763,29 40,29 Z M8,29 C10.7614237,29 13,31.2385763 13,34 C13,36.7614237 10.7614237,39 8,39 C5.23857625,39 3,36.7614237 3,34 C3,31.2385763 5.23857625,29 8,29 Z M19,15 C20.1045695,15 21,15.8954305 21,17 L21,19 L13,19 C11.6666667,19 10.3333333,19.3333333 9,20 C9,18 10,15 13,15 L19,15 Z M41,9 L41,15 L34,15 C32.3431458,15 31,13.6568542 31,12 C31,10.3431458 32.3431458,9 34,9 L41,9 Z" id="path" fill="#FFFFFF"></path>
                            <path d="M14,34 C14,37.3137085 11.3137085,40 8,40 C4.6862915,40 2,37.3137085 2,34 C2,33.6589865 2.02844905,33.3246175 2.08310326,32.9990748 L4.12625572,32.9990748 C4.04383748,33.3189733 4,33.6543673 4,34 C4,36.209139 5.790861,38 8,38 C10.209139,38 12,36.209139 12,34 C12,33.6543673 11.9561625,33.3189733 11.8737443,32.9990748 L13.9168967,32.9990748 C13.9715509,33.3246175 14,33.6589865 14,34 Z M10,34 C10,35.1045695 9.1045695,36 8,36 C6.8954305,36 6,35.1045695 6,34 C6,33.6354668 6.09752593,33.2937119 6.26790938,32.9994038 L9.73209062,32.9994038 C9.90247407,33.2937119 10,33.6354668 10,34 Z" id="path" fill="#E44D28" fill-rule="nonzero"></path>
                            <path d="M40,28 C43.3137085,28 46,30.6862915 46,34 C46,37.3137085 43.3137085,40 40,40 C36.6862915,40 34,37.3137085 34,34 C34,30.6862915 36.6862915,28 40,28 Z M40,30 C37.790861,30 36,31.790861 36,34 C36,36.209139 37.790861,38 40,38 C42.209139,38 44,36.209139 44,34 C44,31.790861 42.209139,30 40,30 Z M40,32 C41.1045695,32 42,32.8954305 42,34 C42,35.1045695 41.1045695,36 40,36 C38.8954305,36 38,35.1045695 38,34 C38,32.8954305 38.8954305,32 40,32 Z" id="path" fill="#E44D28" fill-rule="nonzero"></path>
                            <path d="M1,33 L1,32 C1,24.8202983 6.82029825,19 14,19 L21,19 L19.9310218,22.5632606 C19.1375326,25.2082248 20.6384496,27.9956422 23.2834138,28.7891314 C23.749514,28.9289615 24.2335304,29 24.7201533,29 L28,29 C30.7614237,29 33,26.7614237 33,24 L33,15 L37,15 C39.3333333,20 40.3333333,26 40,33 L1,33 Z" id="path" fill="#FADBD4"></path>
                            <path d="M17,22 L17,23.2344722 L14.6,23.2344722 L14.6,24.25 L17,24.25 L17,25.5304735 L14.6,25.5304735 L14.6,26.0278452 C14.6,26.3431212 14.8516497,26.6032948 15.1769117,26.641456 L15.2596578,26.6462744 L17,26.6457235 L17,28 L14.7590875,28 C13.8298102,28 13.0688321,27.3244612 13.0044168,26.4686307 L13,26.3508555 L13,22 L17,22 Z" id="Path" fill="#E44D28" fill-rule="nonzero" transform="translate(15.000000, 25.000000) rotate(-45.000000) translate(-15.000000, -25.000000) "></path>
                            <path d="M35.6128994,3.20970461 L35.7071068,3.29289322 L37.7071068,5.29289322 C37.8633871,5.44917353 37.9625983,5.65185492 37.9913276,5.86855602 L38,6 L38,8 L41,8 C41.5128358,8 41.9355072,8.38604019 41.9932723,8.88337887 L42,9 L42,15 C42,15.5128358 41.6139598,15.9355072 41.1166211,15.9932723 L41,16 L38.597,16 L38.6588748,16.1384095 C40.4678173,20.3321653 41.2496692,25.7445655 41.0248889,32.3762087 L40.9990562,33.0434372 C40.9774614,33.5401172 40.5961787,33.9391829 40.1131555,33.9936582 L40,34 L1,34 C0.487164161,34 0.0644928393,33.6139598 0.00672773133,33.1166211 L0,33 L0,32 C0,26.4152427 3.27006485,21.5942499 7.99991217,19.3473041 L8,19 C8,16.3112453 10.1223067,14.1181819 12.7831104,14.0046195 L13,14 L19,14 C20.5976809,14 21.9036609,15.24892 21.9949073,16.8237272 L22,17 L21.9970178,19.0778071 L21.9816077,19.1918893 L21.9578263,19.2873479 L20.8888481,22.8506085 C20.2540567,24.9665799 21.4547903,27.1965137 23.5707617,27.8313051 C23.8690658,27.9207964 24.176543,27.9750663 24.4869225,27.9931947 L24.7201533,28 L28,28 C30.1421954,28 31.8910789,26.3160315 31.9951047,24.1996403 L32,24 L31.9988908,15.4642293 C30.8038998,14.7724528 30,13.4801068 30,12 C30,9.85780461 31.6839685,8.10892112 33.8003597,8.00489531 L34,8 L36,8 L36,6.415 L34.2928932,4.70710678 C33.9324093,4.34662282 33.9046797,3.77939176 34.2097046,3.38710056 L34.2928932,3.29289322 C34.6533772,2.93240926 35.2206082,2.90467972 35.6128994,3.20970461 Z M8,28 C5.38754592,28 3.16505629,29.6696362 2.34139588,32.0000439 L13.6586041,32.0000439 C12.8349437,29.6696362 10.6124541,28 8,28 Z M33.999,16 L34,24 C34,27.2383969 31.4344251,29.8775718 28.2249383,29.9958615 L28,30 L24.7201533,30 C24.1362059,30 23.5553861,29.9147538 22.9960659,29.7469577 C19.8942442,28.8164112 18.1035857,25.6006748 18.9125239,22.4925536 L18.9731955,22.2759127 L19.656,20 L14,20 C8.76253085,20 4.30874508,23.3553474 2.67095952,28.0337254 C4.08578705,26.7687234 5.95312104,26 8,26 C11.7277298,26 14.8599651,28.5496153 15.7480014,32.0001415 L39.035,32.0001415 L39.0441526,31.6869731 C39.2017931,25.2121421 38.3430484,20.0504177 36.4904919,16.2024605 L36.39,16 L33.999,16 Z M19,16 L13,16 C11.4891759,16 10.2391986,17.1168178 10.0305964,18.5699251 C11.1945281,18.2273139 12.4201931,18.0311867 13.687355,18.003422 L14,18 L20,18 L20,17 C20,16.4871642 19.6139598,16.0644928 19.1166211,16.0067277 L19,16 Z M40,10 L38,10 L38,14 L40,14 L40,10 Z M36,10 L34,10 C32.8954305,10 32,10.8954305 32,12 C32,13.0543618 32.8158778,13.9181651 33.8507377,13.9945143 L34,14 L36,14 L36,10 Z" id="path" fill="#E44D28" fill-rule="nonzero"></path>
                            <circle id="path" fill="#FADBD4" cx="32.5" cy="3.5" r="2.5"></circle>
                            <path d="M32.5,0 C34.4329966,0 36,1.56700338 36,3.5 C36,5.43299662 34.4329966,7 32.5,7 C30.5670034,7 29,5.43299662 29,3.5 C29,1.56700338 30.5670034,0 32.5,0 Z M32.5,2 C31.6715729,2 31,2.67157288 31,3.5 C31,4.32842712 31.6715729,5 32.5,5 C33.3284271,5 34,4.32842712 34,3.5 C34,2.67157288 33.3284271,2 32.5,2 Z" id="path" fill="#E44D28" fill-rule="nonzero"></path>
                            <path d="M37.0416504,27.6557474 C34.1579383,29.0004444 32.5632449,32.1070419 33.1008589,35.1957826 L33.114998,35.2659158 L33.1618016,35.4459521 L33.2330961,35.6776683 L33.3286302,35.9594492 L33.4481526,36.2896794 L33.6718649,36.872335 L46.267645,30.9988262 L46.0495823,30.603104 L45.8451033,30.2453433 L45.6665517,29.9473307 L45.5153676,29.7107065 L45.4504885,29.6159276 L45.4504885,29.6159276 L45.3430562,29.4744614 L45.3430562,29.4744614 C43.3212626,27.084078 39.9214171,26.3128901 37.0416504,27.6557474 Z" id="path" fill="#FADBD4"></path>
                            <path d="M36.5373845,26.7494396 C39.8220509,25.1902248 43.6242232,26.1410114 45.8572918,28.8286753 C45.9379261,28.9257247 46.034271,29.0621196 46.1463262,29.2378599 L46.3261919,29.5309794 L46.5296232,29.8831171 L46.7566201,30.2942728 L46.8927805,30.5488912 L46.8927805,30.5488912 L46.9057963,30.5762148 C47.1187048,31.0410111 46.9504846,31.5872398 46.5316732,31.849768 L46.4306354,31.9051492 L34.0574417,37.7786428 L34.0030416,37.8024613 C33.4984246,38.0052817 32.9278384,37.7532692 32.7285996,37.2395767 L32.6363504,36.9993611 L32.4032103,36.3627204 L32.2841231,36.0082983 L32.2354813,35.8520887 L32.2354813,35.8520887 L32.1600014,35.5816726 C32.1396867,35.5008679 32.1242172,35.4293972 32.1135931,35.3672605 C31.5197441,31.8940672 33.2484776,28.3106673 36.5373845,26.7494396 Z M37.3676866,28.5620552 C34.9396604,29.7146271 33.5966759,32.3779321 34.0491545,35.0243047 L34.0592713,35.0732508 L34.0975798,35.2153884 L34.1906663,35.5084426 L44.6355986,30.5502852 L44.4710033,30.2819424 L44.3878927,30.1598929 L44.3572362,30.1202475 C42.7071648,28.1342641 39.9648551,27.4524014 37.589278,28.4623994 L37.3676866,28.5620552 Z" id="path" fill="#E44D28" fill-rule="nonzero"></path>
                        </g>
                    </g>
                </g>
            </g>
        </g>
    </g>
</svg>