<?xml version="1.0" encoding="UTF-8"?>
<svg width="84px" height="60px" viewBox="0 0 84 60" version="1.1" xmlns="http://www.w3.org/2000/svg" xmlns:xlink="http://www.w3.org/1999/xlink">
    <title>925B43D6-149C-495B-9352-9E3C4BE2E53A</title>
    <g id="Sadaļas" stroke="none" stroke-width="1" fill="none" fill-rule="evenodd">
        <g id="01.02.-Sākumlapa-v4---Izvērsts-kalkulātors" transform="translate(-1291.000000, -708.000000)">
            <g id="Categories-+-Cities" transform="translate(0.000000, 608.000000)">
                <g id="Categories" transform="translate(215.000000, 0.000000)">
                    <g id="Category-8" transform="translate(885.000000, 90.000000)">
                        <g id="Category-icon-/-95.code" transform="translate(191.000000, 10.000000)">
                            <polygon id="Line" fill="#E6E9F0" points="0 48 84 48 84 50 0 50"></polygon>
                            <g id="Icon" transform="translate(18.000000, 5.000000)">
                                <circle id="path" fill="#FADBD4" cx="12" cy="9" r="7"></circle>
                                <circle id="path" fill="#FADBD4" cx="13" cy="31" r="10"></circle>
                                <circle id="path" fill="#FADBD4" cx="35" cy="20" r="10"></circle>
                                <path d="M13.342,18 C14.2097895,18 14.9214127,18.6659501 14.9939166,19.5148972 L15,19.658 C15,19.971 15.218,20.228 15.518,20.299 C16.692,20.573 17.794,21.033 18.789,21.65 C19.0227778,21.7948889 19.3134444,21.7880741 19.5289616,21.6316626 L19.606,21.566 L19.724196,21.4583737 C20.3344545,20.9538754 21.2216009,20.9538754 21.8326379,21.4583737 L21.951,21.566 L22.434,22.049 C23.0438824,22.6588824 23.0797578,23.6248616 22.5416263,24.275804 L22.434,24.394 L22.3683374,24.471037 C22.2119259,24.6865432 22.2051111,24.9771111 22.35,25.21 C22.967,26.206 23.427,27.308 23.701,28.482 C23.7641111,28.7486667 23.9741852,28.9505432 24.2371097,28.9921125 L24.338,29 C25.2095789,29 25.9214017,29.6659501 25.993916,30.5148972 L26,30.658 L26,31.342 C26,32.2097895 25.3340499,32.9214127 24.4851028,32.9939166 L24.342,33 C24.029,33 23.772,33.218 23.701,33.518 C23.427,34.692 22.967,35.794 22.35,36.789 C22.2051111,37.0227778 22.2119259,37.3134444 22.3683374,37.5289616 L22.434,37.606 L22.5416263,37.724196 C23.0461246,38.3344545 23.0461246,39.2216009 22.5416263,39.8326379 L22.434,39.951 L21.951,40.434 C21.3411176,41.0438824 20.3751384,41.0797578 19.724196,40.5416263 L19.606,40.434 L19.5289616,40.3683374 C19.3134444,40.2119259 19.0227778,40.2051111 18.789,40.35 C17.794,40.967 16.692,41.427 15.518,41.701 C15.2513333,41.7641111 15.0494568,41.9741852 15.0078875,42.2371097 L15,42.338 C15,43.2095789 14.3340499,43.9214017 13.4851028,43.993916 L13.342,44 L12.658,44 C11.7902105,44 11.0785873,43.3340499 11.0060834,42.4851028 L11,42.342 C11,42.029 10.782,41.772 10.482,41.701 C9.308,41.427 8.206,40.967 7.211,40.35 C6.97722222,40.2051111 6.68655556,40.2119259 6.47103841,40.3683374 L6.394,40.434 L6.27580399,40.5416263 C5.66554549,41.0461246 4.77839915,41.0461246 4.1673621,40.5416263 L4.049,40.434 L3.566,39.951 C2.95611765,39.3411176 2.92024221,38.3751384 3.4583737,37.724196 L3.566,37.606 L3.63166255,37.5289616 C3.78807407,37.3134444 3.79488889,37.0227778 3.65,36.789 C3.033,35.794 2.573,34.692 2.299,33.518 C2.23588889,33.2513333 2.02581481,33.0494568 1.76289026,33.0078875 L1.662,33 C0.790421053,33 0.078598338,32.3340499 0.00608397726,31.4851028 L0,31.342 L0,30.658 C0,29.7902105 0.665950139,29.0785873 1.51489722,29.0060834 L1.658,29 C1.971,29 2.228,28.782 2.299,28.482 C2.573,27.308 3.033,26.206 3.65,25.21 C3.79488889,24.9771111 3.78807407,24.6865432 3.63166255,24.471037 L3.566,24.394 L3.4583737,24.275804 C2.95387543,23.6655455 2.95387543,22.7783991 3.4583737,22.1673621 L3.566,22.049 L4.049,21.566 C4.65888235,20.9561176 5.62486159,20.9202422 6.27580399,21.4583737 L6.394,21.566 L6.47103841,21.6316626 C6.68655556,21.7880741 6.97722222,21.7948889 7.211,21.65 C8.206,21.033 9.308,20.573 10.482,20.299 C10.7486667,20.2358889 10.9505432,20.0258148 10.9921125,19.7628903 L11,19.662 C11,18.7904211 11.6659501,18.0785983 12.5148972,18.006084 L12.658,18 L13.342,18 Z M13,22 C8.02943725,22 4,26.0294373 4,31 C4,35.9705627 8.02943725,40 13,40 C17.9705627,40 22,35.9705627 22,31 C22,26.0294373 17.9705627,22 13,22 Z M13,24 C16.8659932,24 20,27.1340068 20,31 C20,34.8659932 16.8659932,38 13,38 C9.13400675,38 6,34.8659932 6,31 C6,27.1340068 9.13400675,24 13,24 Z M38.3309392,7.43194822 L38.4789162,7.46508672 L39.1380853,7.64417901 C39.9758916,7.87180595 40.4883262,8.7015531 40.3352265,9.53946352 L40.3034892,9.679089 L40.2847949,9.77857165 C40.2561674,10.0433129 40.3946584,10.2988445 40.6361277,10.4289314 C41.666525,10.9865929 42.6133624,11.7142624 43.4345776,12.5968482 C43.6218696,12.7968877 43.9044921,12.8676678 44.1533077,12.7730736 L44.2447767,12.7297783 C44.9987685,12.2979631 45.9439038,12.5193801 46.4300855,13.2149327 L46.5109857,13.3425627 L46.8509159,13.9361142 C47.2808536,14.6868278 47.0593323,15.6317809 46.3637739,16.1179525 L46.2361436,16.1988522 C45.964533,16.354405 45.8498576,16.6713002 45.9373385,16.966915 C46.2830182,18.1218425 46.4315114,19.306728 46.3905892,20.4767876 C46.3810411,20.7516579 46.5314085,21.0005016 46.7742434,21.1097875 L46.8695092,21.1440062 L47.0059982,21.1872875 C47.7591114,21.4620738 48.2076611,22.2416863 48.0680516,23.0309392 L48.0349131,23.1789162 L47.8558209,23.8380853 C47.6281939,24.6758916 46.7984468,25.1883262 45.9605363,25.0352265 L45.8209109,25.0034892 L45.721427,24.9847956 C45.4566762,24.9561735 45.2010589,25.0947136 45.0702007,25.3366247 C44.513407,26.366525 43.7857375,27.3133624 42.9031517,28.1345776 C42.7031122,28.3218696 42.632332,28.6044921 42.7269263,28.8533077 L42.7702216,28.9447767 C43.2020368,29.6987685 42.9806197,30.6439038 42.2850672,31.1300855 L42.1574372,31.2109857 L41.5638856,31.5509159 C40.8131721,31.9808536 39.8682189,31.7593323 39.3820473,31.0637739 L39.3011477,30.9361436 C39.1455948,30.664533 38.8286997,30.5498576 38.5330849,30.6373385 C37.3781574,30.9830182 36.1932718,31.1315114 35.0232123,31.0905892 C34.748342,31.0810411 34.4994983,31.2314085 34.3902124,31.4742434 L34.3559937,31.5695092 L34.3127123,31.7059982 C34.037926,32.4591114 33.2583136,32.9076611 32.4690607,32.7680516 L32.3210837,32.7349131 L31.6619146,32.5558209 C30.8241082,32.3281939 30.3116737,31.4984468 30.4647733,30.6605363 L30.4965106,30.5209109 L30.5152042,30.421427 C30.5438263,30.1566762 30.4052862,29.9010589 30.1633752,29.7702007 C29.1334748,29.213407 28.1866374,28.4857375 27.3654222,27.6031517 C27.1781302,27.4031122 26.8955078,27.332332 26.6466921,27.4269263 L26.5552231,27.4702216 C25.8012314,27.9020368 24.8560961,27.6806197 24.3699144,26.9850672 L24.2890141,26.8574372 L23.9490839,26.2638856 C23.5191462,25.5131721 23.7406676,24.5682189 24.436226,24.0820473 L24.5638562,24.0011477 C24.8354668,23.8455948 24.9501422,23.5286997 24.8626614,23.2330849 C24.5169817,22.0781574 24.3684885,20.8932718 24.4089137,19.7223445 C24.4189036,19.4482456 24.2685852,19.1994876 24.0257558,19.0902112 L23.9304907,19.0559937 L23.7940016,19.0127123 C23.0408884,18.737926 22.5923388,17.9583136 22.7319482,17.1690607 L22.7650867,17.0210837 L22.944179,16.3619146 C23.171806,15.5241082 24.0015531,15.0116737 24.8394635,15.1647733 L24.979089,15.1965106 L25.0785728,15.2152042 C25.3433236,15.2438263 25.5989409,15.1052862 25.7297992,14.8633752 C26.2865929,13.8334748 27.0142624,12.8866374 27.8968482,12.0654222 C28.0968877,11.8781302 28.1676678,11.5955078 28.0730736,11.3466921 L28.0297783,11.2552231 C27.5979631,10.5012314 27.8193801,9.55609606 28.5149327,9.06991436 L28.6425627,8.98901413 L29.2361142,8.64908394 C29.9868278,8.21914625 30.9317809,8.44066756 31.4179525,9.13622595 L31.4988522,9.26385624 C31.654405,9.53546682 31.9713002,9.65014222 32.266915,9.56266138 C33.4218425,9.21698168 34.606728,9.06848849 35.7767876,9.10941068 C36.0516579,9.11895878 36.3005016,8.96859136 36.4097875,8.72575643 L36.4440062,8.63049066 L36.4872875,8.49400163 C36.7620738,7.74088843 37.5416863,7.29233878 38.3309392,7.43194822 Z M35.4,11.1 C30.4294373,11.1 26.4,15.1294373 26.4,20.1 C26.4,25.0705627 30.4294373,29.1 35.4,29.1 C40.3705627,29.1 44.4,25.0705627 44.4,20.1 C44.4,15.1294373 40.3705627,11.1 35.4,11.1 Z M35.4,13.1 C39.2659932,13.1 42.4,16.2340068 42.4,20.1 C42.4,23.9659932 39.2659932,27.1 35.4,27.1 C31.5340068,27.1 28.4,23.9659932 28.4,20.1 C28.4,16.2340068 31.5340068,13.1 35.4,13.1 Z M13.5246921,0.0138739132 L13.6502077,0.0403680418 L14.1176815,0.165627247 C14.7030398,0.322473555 15.0660929,0.894165012 14.9749798,1.47910677 L14.9484196,1.60450789 L14.9345869,1.68382942 C14.918896,1.86830808 15.0172252,2.04481887 15.1859532,2.13495932 C15.9173837,2.52752209 16.5900313,3.04074466 17.1740568,3.66403832 C17.3024937,3.80026072 17.4934379,3.85110652 17.6647711,3.7939189 L17.7484232,3.75621742 C18.2752969,3.45202674 18.9360086,3.59937282 19.2855936,4.07734096 L19.3555803,4.18477918 L19.5978937,4.60447827 C19.9007618,5.12906122 19.7533276,5.78962015 19.2753536,6.13919496 L19.1679149,6.20918101 C18.9758596,6.32006418 18.8953942,6.54487257 18.9581068,6.75410353 C19.2058821,7.5715313 19.3140221,8.41067245 19.287922,9.23977764 C19.2819319,9.43150746 19.3856688,9.60498559 19.5532823,9.68364458 L19.6288938,9.7113271 L19.7507745,9.7510258 C20.2634676,9.9493358 20.570465,10.481071 20.4861261,11.0246921 L20.459632,11.1502077 L20.3343728,11.6176815 C20.1775264,12.2030398 19.605835,12.5660929 19.0208932,12.4749798 L18.8954921,12.4484196 L18.8161694,12.4345876 C18.6316823,12.4189015 18.4551044,12.5172695 18.3644271,12.6863075 C17.9724779,13.4173837 17.4592553,14.0900313 16.8359617,14.6740568 C16.6997393,14.8024937 16.6488935,14.9934379 16.7060811,15.1647711 L16.7437826,15.2484232 C17.0479733,15.7752969 16.9006272,16.4360086 16.422659,16.7855936 L16.3152208,16.8555803 L15.8955217,17.0978937 C15.3709388,17.4007618 14.7103799,17.2533276 14.360805,16.7753536 L14.290819,16.6679149 C14.1799358,16.4758596 13.9551274,16.3953942 13.7458965,16.4581068 C12.9284687,16.7058821 12.0893275,16.8140221 11.2602224,16.787922 C11.0684925,16.7819319 10.8950144,16.8856688 10.8163554,17.0532823 L10.7886729,17.1288938 L10.7489742,17.2507745 C10.5506642,17.7634676 10.018929,18.070465 9.47530792,17.9861261 L9.34979226,17.959632 L8.88231855,17.8343728 C8.29696015,17.6775264 7.93390706,17.105835 8.02502016,16.5208932 L8.05158042,16.3954921 L8.06541241,16.3161694 C8.08109847,16.1316823 7.98273048,15.9551044 7.81369254,15.8644271 C7.0826163,15.4724779 6.40996875,14.9592553 5.82594322,14.3359617 C5.69750632,14.1997393 5.50656207,14.1488935 5.33522892,14.2060811 L5.25157677,14.2437826 C4.72470307,14.5479733 4.06399142,14.4006272 3.71440643,13.922659 L3.64441966,13.8152208 L3.40210628,13.3955217 C3.09923817,12.8709388 3.24667242,12.2103799 3.72464644,11.860805 L3.83208508,11.790819 C4.02414036,11.6799358 4.10460578,11.4551274 4.04189324,11.2458965 C3.79411786,10.4284687 3.68597785,9.58932755 3.71172377,8.75960877 C3.71802383,8.56841584 3.61432563,8.39500482 3.44671697,8.31635422 L3.37110617,8.2886729 L3.24922548,8.2489742 C2.73653244,8.0506642 2.42953498,7.518929 2.51387391,6.97530792 L2.54036804,6.84979226 L2.66562725,6.38231855 C2.82247356,5.79696015 3.39416501,5.43390706 3.97910677,5.52502016 L4.10450789,5.55158042 L4.18383062,5.56541241 C4.36831766,5.58109847 4.54489557,5.48273048 4.63557292,5.31369254 C5.02752209,4.5826163 5.54074466,3.90996875 6.16403832,3.32594322 C6.30026072,3.19750632 6.35110652,3.00656207 6.2939189,2.83522892 L6.25621742,2.75157677 C5.95202674,2.22470307 6.09937282,1.56399142 6.57734096,1.21440643 L6.68477918,1.14441966 L7.10447827,0.902106275 C7.62906122,0.599238166 8.28962015,0.746672417 8.63919496,1.22464644 L8.70918101,1.33208508 C8.82006418,1.52414036 9.04487257,1.60460578 9.25410353,1.54189324 C10.0715313,1.29411786 10.9106725,1.18597785 11.7397776,1.21207803 C11.9315075,1.21806811 12.1049856,1.11433116 12.1836446,0.94671766 L12.2113271,0.871106168 L12.2510258,0.749225484 C12.4493358,0.236532439 12.981071,-0.0704650219 13.5246921,0.0138739132 Z M11.5,3 C8.1862915,3 5.5,5.6862915 5.5,9 C5.5,12.3137085 8.1862915,15 11.5,15 C14.8137085,15 17.5,12.3137085 17.5,9 C17.5,5.6862915 14.8137085,3 11.5,3 Z M11.5,5 C13.709139,5 15.5,6.790861 15.5,9 C15.5,11.209139 13.709139,13 11.5,13 C9.290861,13 7.5,11.209139 7.5,9 C7.5,6.790861 9.290861,5 11.5,5 Z" id="path" fill="#E44D28"></path>
                                <circle id="path" fill="#FADBD4" cx="13" cy="31" r="5"></circle>
                                <circle id="path" fill="#E44D28" cx="13" cy="31" r="1"></circle>
                                <circle id="path" fill="#FADBD4" cx="35.4" cy="20.1" r="5"></circle>
                                <circle id="path" fill="#E44D28" cx="35.4" cy="20.1" r="1"></circle>
                                <circle id="path" fill="#FADBD4" cx="11.5" cy="9" r="2"></circle>
                            </g>
                        </g>
                    </g>
                </g>
            </g>
        </g>
    </g>
</svg>