<?xml version="1.0" encoding="UTF-8"?>
<svg width="93px" height="60px" viewBox="0 0 93 60" version="1.1" xmlns="http://www.w3.org/2000/svg" xmlns:xlink="http://www.w3.org/1999/xlink">
    <title>8F76123F-C9B3-4624-BA95-DAF957374EAB</title>
    <g id="Sadaļas" stroke="none" stroke-width="1" fill="none" fill-rule="evenodd">
        <g id="01.02.-Sākumlapa-v4---Izvērsts-kalkulātors" transform="translate(-692.000000, -618.000000)">
            <g id="Categories-+-Cities" transform="translate(0.000000, 608.000000)">
                <g id="Categories" transform="translate(215.000000, 0.000000)">
                    <g id="Category-2" transform="translate(295.000000, 0.000000)">
                        <g id="Category-icon-/-A" transform="translate(182.000000, 10.000000)">
                            <rect id="Line" fill="#E6E9F0" x="0" y="48" width="93" height="2"></rect>
                            <g id="Icon" transform="translate(20.000000, 16.000000)">
                                <path d="M9,17 C13.418278,17 17,20.581722 17,25 C17,29.418278 13.418278,33 9,33 C4.581722,33 1,29.418278 1,25 C1,20.581722 4.581722,17 9,17 Z M44,17 C48.418278,17 52,20.581722 52,25 C52,29.418278 48.418278,33 44,33 C39.581722,33 36,29.418278 36,25 C36,20.581722 39.581722,17 44,17 Z" id="path" fill="#FFFFFF"></path>
                                <path d="M9,16 C13.9705627,16 18,20.0294373 18,25 C18,29.9705627 13.9705627,34 9,34 C4.02943725,34 0,29.9705627 0,25 C0,20.0294373 4.02943725,16 9,16 Z M44,16 C48.9705627,16 53,20.0294373 53,25 C53,29.9705627 48.9705627,34 44,34 C39.0294373,34 35,29.9705627 35,25 C35,20.0294373 39.0294373,16 44,16 Z M9,18 C5.13400675,18 2,21.1340068 2,25 C2,28.8659932 5.13400675,32 9,32 C12.8659932,32 16,28.8659932 16,25 C16,21.1340068 12.8659932,18 9,18 Z M44,18 C40.1340068,18 37,21.1340068 37,25 C37,28.8659932 40.1340068,32 44,32 C47.8659932,32 51,28.8659932 51,25 C51,21.1340068 47.8659932,18 44,18 Z" id="path" fill="#E44D28" fill-rule="nonzero"></path>
                                <path d="M19,15.0003203 L19,17.828 L11.828,25 L10.414,25 L9,23.585 L9,22.173 L16.172,15 L19,15.0003203 Z M36.828,14.9996797 L44,22.1726797 L44,23.5846797 L42.586,24.9996797 L41.172,24.9996797 L34,17.8276797 L34,15 L36.828,14.9996797 Z" id="path" fill="#FFFFFF" fill-rule="nonzero"></path>
                                <path d="M39,2 L38.4178005,5.49319696 C38.1767065,6.93976087 36.9251362,8 35.4586187,8 L35,8 C33.4023191,8 32.0963391,6.75108004 32.0050927,5.17627279 L32,5 L28.6985711,5 C27.6447826,5 26.6682621,5.5528965 26.1260924,6.45651273 L25.1436322,8.09394639 C24.4642894,9.22618437 23.1245276,9.78113189 21.8435465,9.46088663 L12,7 L12,5 C12,3.8954305 11.1045695,3 10,3 L3,3 L3,10 C14.4545455,10 19.214876,15.3553719 20.5672427,22.2321563 L20.6612343,22.7442726 L20.6612343,22.7442726 L20.7430565,23.261608 L20.7430565,23.261608 L20.8130061,23.7838161 L20.8130061,23.7838161 L20.8713799,24.3105507 C20.8889415,24.4868448 20.9046232,24.6638356 20.9184746,24.8414654 L20.9545872,25.3762139 L20.9545872,25.3762139 L20.9800144,25.9144501 L20.9800144,25.9144501 L20.9950531,26.4558275 L20.9950531,26.4558275 L21,27 L21,27 L32,27 C32,18 37,13 46,13 L45.9958407,12.4585605 C45.9944222,12.3689977 45.9926251,12.2797776 45.9904252,12.1909061 L45.9722014,11.6619083 C45.7768595,7.2892562 44.4545455,3.81818182 39,2 Z" id="path" fill="#FADBD4"></path>
                                <path d="M28,18 L28,19.2344722 L25.6,19.2344722 L25.6,20.25 L28,20.25 L28,21.5304735 L25.6,21.5304735 L25.6,22.0278452 C25.6,22.3431212 25.8516497,22.6032948 26.1769117,22.641456 L26.2596578,22.6462744 L28,22.6457235 L28,24 L25.7590875,24 C24.8298102,24 24.0688321,23.3244612 24.0044168,22.4686307 L24,22.3508555 L24,18 L28,18 Z" id="Path" fill="#E44D28" fill-rule="nonzero"></path>
                                <path d="M44.2638014,6.10616206 C42.9628839,6.48907071 42,7.86334743 42,9.5 C42,11.4329966 43.3431458,13 45,13 C45.3028722,13 45.5952616,12.9476375 45.87088,12.8502488 C46.1470304,11.4522193 46.1470304,10.1737736 45.87088,9.01491165 C45.5947296,7.85604974 45.0590368,6.88646655 44.2638014,6.10616206 Z" id="path" fill="#FFFFFF"></path>
                                <path d="M36,0 C36.3680141,0 36.7026596,0.201650265 36.876617,0.518751276 L36.9284767,0.628609324 L37.836,2.898 L38.0136061,1.83560101 C38.1146263,1.2294797 38.733279,0.857000432 39.3162278,1.0513167 C45.0955497,2.97775733 47,6.54860173 47,13 C47,13.5522847 46.5522847,14 46,14 C43.1389619,14 40.7247352,14.5221535 38.7828364,15.5409438 L46.1213203,22.8786797 C46.6642136,23.4215729 47,24.1715729 47,25 C47,26.6568542 45.6568542,28 44,28 C43.2406085,28 42.5471175,27.7178461 42.0186432,27.2526545 L41.8786797,27.1213203 L34.5405746,19.7835402 C33.5220273,21.7253185 33,24.1393075 33,27 C33,27.5128358 32.6139598,27.9355072 32.1166211,27.9932723 L32,28 L21,28 C20.4477153,28 20,27.5522847 20,27 C20,24.1379859 19.5983688,21.6225128 18.75775,19.4844014 L11.1213203,27.1213203 C10.5784271,27.6642136 9.82842712,28 9,28 C7.34314575,28 6,26.6568542 6,25 C6,24.1715729 6.33578644,23.4215729 6.87867966,22.8786797 L15.2393171,14.5196523 C12.4781687,12.2180073 8.45268424,11 3,11 C2.48716416,11 2.06449284,10.6139598 2.00672773,10.1166211 L2,10 L2,3 C2,2.48716416 2.38604019,2.06449284 2.88337887,2.00672773 L3,2 L10,2 C11.5976809,2 12.9036609,3.24891996 12.9949073,4.82372721 L13,5 L12.999,6.218 L22.0860821,8.49074413 C22.8333211,8.67755386 23.6105627,8.41765062 24.0966019,7.84408191 L24.1961789,7.71642182 L24.2861392,7.57945064 L25.2685994,5.94201698 C25.9534454,4.800607 27.1580685,4.07889487 28.4776465,4.00608698 L28.6985711,4 L32,4 C32.5023931,4 32.9201835,4.3710309 32.9898145,4.85704051 L32.9995829,4.97112107 L33.0034183,5.11842847 C33.0615304,6.12137581 33.8578636,6.92058811 34.8498089,6.99442931 L35,7 L35.4586187,7 C36.0855097,7 36.6534847,6.70939398 37.0227292,6.24662278 L35.323,2 L33,2 C32.4871642,2 32.0644928,1.61395981 32.0067277,1.11662113 L32,1 C32,0.487164161 32.3860402,0.0644928393 32.8833789,0.00672773133 L33,0 L36,0 Z M39.787,3.361 L39.4041944,5.65759595 C39.1049053,7.45333046 37.6377411,8.80256355 35.858738,8.98012372 L35.6598312,8.99499409 L35.4586187,9 L35,9 C33.2204492,9 31.7029537,7.83482762 31.1852555,6.19167647 L31.13,6 L28.6985711,6 C28.1041263,6 27.5465629,6.26390721 27.1701009,6.71006564 L27.0720279,6.83620249 L26.9835853,6.97100849 L26.0011251,8.60844215 C25.1315663,10.0577068 23.4504846,10.7975969 21.8062827,10.4766926 L21.6010109,10.4310291 L11.7574644,7.9701425 C11.3493946,7.86812506 11.0529723,7.52352669 11.0064024,7.11335716 L11,7 L11,5 C11,4.48716416 10.6139598,4.06449284 10.1166211,4.00672773 L10,4 L3.999,4 L3.999,9.013 L4.2419334,9.02098682 C15.8959291,9.42129539 21.4911205,15.5276895 21.9667624,25.5690964 L21.983,26 L31.02,26 L31.04294,25.5606636 C31.4856522,18.2948352 35.3370518,13.6739416 41.9195204,12.3756014 C41.3434079,11.591965 41,10.5859307 41,9.5 C41,7.85498086 41.7915397,6.36813084 43.0258659,5.58245352 C42.336772,4.77880804 41.4358604,4.12487776 40.2812388,3.5808004 L40.012636,3.45822384 L39.787,3.361 Z M37.0761147,16.6613026 C36.5564327,17.08349 36.085036,17.5547765 35.6627374,18.074349 L41.2920425,23.7072712 C41.554746,23.1579597 41.9796677,22.701057 42.5047879,22.3985828 L42.7062836,22.292515 L37.0761147,16.6613026 Z M16.6585718,15.9258257 L10.2937164,22.292515 C10.9112947,22.5881447 11.4119743,23.0888538 11.7075664,23.7064536 L17.8341688,17.5816632 C17.5557741,17.1099774 17.2495401,16.6621978 16.9148933,16.2387975 L16.6585718,15.9258257 Z M44.0877907,7.27920874 L43.9976269,7.33998538 C43.4052192,7.77305761 43,8.5769725 43,9.5 C43,10.9044668 43.9226757,11.9884017 44.982957,11.9999075 L44.9718855,11.7178877 C44.8893534,9.94123429 44.6194391,8.48470594 44.0877907,7.27920874 Z" id="path" fill="#E44D28" fill-rule="nonzero"></path>
                            </g>
                        </g>
                    </g>
                </g>
            </g>
        </g>
    </g>
</svg>