<?xml version="1.0" encoding="UTF-8"?>
<svg width="104px" height="60px" viewBox="0 0 104 60" version="1.1" xmlns="http://www.w3.org/2000/svg" xmlns:xlink="http://www.w3.org/1999/xlink">
    <title>2736FD23-5A9D-4A7B-A3E6-FC240B03FD64</title>
    <g id="Sadaļas" stroke="none" stroke-width="1" fill="none" fill-rule="evenodd">
        <g id="01.02.-Sākumlapa-v4---Izvērsts-kalkulātors" transform="translate(-976.000000, -708.000000)">
            <g id="Categories-+-Cities" transform="translate(0.000000, 608.000000)">
                <g id="Categories" transform="translate(215.000000, 0.000000)">
                    <g id="Category-7" transform="translate(590.000000, 90.000000)">
                        <g id="Category-icon-/-D" transform="translate(171.000000, 10.000000)">
                            <rect id="Line" fill="#E6E9F0" x="0" y="48" width="104" height="2"></rect>
                            <g id="Icon" transform="translate(20.000000, 17.000000)">
                                <path d="M48,15 L54,20 L61,20 L61,28 L57,28 C57,25.790861 55.209139,24 53,24 C50.790861,24 49,25.790861 49,28 L23,28 C23,25.790861 21.209139,24 19,24 C16.790861,24 15,25.790861 15,28 L13,28 C13,25.790861 11.209139,24 9,24 C6.790861,24 5,25.790861 5,28 L1,28 L1,15 L48,15 Z" id="path" fill="#FADBD4"></path>
                                <path d="M47,18 L47,19.2344722 L44.6,19.2344722 L44.6,20.25 L47,20.25 L47,21.5304735 L44.6,21.5304735 L44.6,22.0278452 C44.6,22.3431212 44.8516497,22.6032948 45.1769117,22.641456 L45.2596578,22.6462744 L47,22.6457235 L47,24 L44.7590875,24 C43.8298102,24 43.0688321,23.3244612 43.0044168,22.4686307 L43,22.3508555 L43,18 L47,18 Z" id="path" fill="#E44D28" fill-rule="nonzero"></path>
                                <path d="M9,24 C11.209139,24 13,25.790861 13,28 C13,30.209139 11.209139,32 9,32 C6.790861,32 5,30.209139 5,28 C5,25.790861 6.790861,24 9,24 Z M19,24 C21.209139,24 23,25.790861 23,28 C23,30.209139 21.209139,32 19,32 C16.790861,32 15,30.209139 15,28 C15,25.790861 16.790861,24 19,24 Z M53,24 C55.209139,24 57,25.790861 57,28 C57,30.209139 55.209139,32 53,32 C50.790861,32 49,30.209139 49,28 C49,25.790861 50.790861,24 53,24 Z M56,1 L61,17 L61,20 L54,20 L48,15 L1,15 L1,1 L56,1 Z" id="path" fill="#FFFFFF"></path>
                                <path d="M54.5296182,0 C55.7792895,0 56.890863,0.773468871 57.3319848,1.92902489 L57.3930581,2.10517502 L58.61,6 L62,6 C62.4206287,6 62.791778,6.26241654 62.9364381,6.64904458 L62.9701425,6.75746437 L63.9701425,10.7574644 C64.1040912,11.2932593 63.7783305,11.8361938 63.2425356,11.9701425 C62.7450118,12.0945235 62.2413319,11.8225223 62.0646691,11.354043 L62.0298575,11.2425356 L61.218,8 L59.235,8 L61.8634399,16.4103969 C61.931327,16.6276354 61.9741985,16.8516561 61.9913913,17.0781133 L62,17.3052218 L62,26 C62,27.5976809 60.75108,28.9036609 59.1762728,28.9949073 L59,29 L57.8997409,29.0011864 C57.4360122,31.2828356 55.4185387,33 53,33 C50.5814613,33 48.5639878,31.2828356 48.1002591,29.0011864 L23.8997409,29.0011864 C23.4360122,31.2828356 21.4185387,33 19,33 C16.2385763,33 14,30.7614237 14,28 C14,25.2385763 16.2385763,23 19,23 C21.4188915,23 23.4366008,24.7176654 23.8999437,26.999812 L48.1000563,26.999812 C48.5633992,24.7176654 50.5811085,23 53,23 C55.4188915,23 57.4366008,24.7176654 57.8999437,26.999812 L59,27 C59.5128358,27 59.9355072,26.6139598 59.9932723,26.1166211 L60,26 L60,21 L54.7240999,21 C54.0924713,21 53.4788335,20.8007006 52.9693855,20.4333101 L52.8035467,20.3046638 L47.9160845,16.2317787 C47.7723125,16.1119687 47.5985771,16.0355163 47.4150583,16.0097278 L47.2759001,16 L2,16 L2,26 C2,26.5128358 2.38604019,26.9355072 2.88337887,26.9932723 L3,27 L4.10005628,26.999812 C4.56339924,24.7176654 6.5811085,23 9,23 C11.7614237,23 14,25.2385763 14,28 C14,30.7614237 11.7614237,33 9,33 C6.58146126,33 4.56398776,31.2828356 4.10025909,29.0011864 L3,29 C1.40231912,29 0.0963391206,27.75108 0.00509269341,26.1762728 L0,26 L0,3 C0,1.40231912 1.24891996,0.0963391206 2.82372721,0.00509269341 L3,0 L54.5296182,0 Z M9,25 C7.34314575,25 6,26.3431458 6,28 C6,29.6568542 7.34314575,31 9,31 C10.6568542,31 12,29.6568542 12,28 C12,26.3431458 10.6568542,25 9,25 Z M19,25 C17.3431458,25 16,26.3431458 16,28 C16,29.6568542 17.3431458,31 19,31 C20.6568542,31 22,29.6568542 22,28 C22,26.3431458 20.6568542,25 19,25 Z M53,25 C51.3431458,25 50,26.3431458 50,28 C50,29.6568542 51.3431458,31 53,31 C54.6568542,31 56,29.6568542 56,28 C56,26.3431458 54.6568542,25 53,25 Z M9,27 C9.55228475,27 10,27.4477153 10,28 C10,28.5522847 9.55228475,29 9,29 C8.44771525,29 8,28.5522847 8,28 C8,27.4477153 8.44771525,27 9,27 Z M19,27 C19.5522847,27 20,27.4477153 20,28 C20,28.5522847 19.5522847,29 19,29 C18.4477153,29 18,28.5522847 18,28 C18,27.4477153 18.4477153,27 19,27 Z M53,27 C53.5522847,27 54,27.4477153 54,28 C54,28.5522847 53.5522847,29 53,29 C52.4477153,29 52,28.5522847 52,28 C52,27.4477153 52.4477153,27 53,27 Z M54.5296182,2 L47.999,2 L48.0010718,14.0889617 C48.3699958,14.1808709 48.7197076,14.3424781 49.0306145,14.5666899 L49.1964533,14.6953362 L54.0839155,18.7682213 C54.2276875,18.8880313 54.4014229,18.9644837 54.5849417,18.9902722 L54.7240999,19 L60,19 L60,17.3052218 C60,17.2377852 59.9931787,17.1706087 59.9796912,17.1047098 L59.95448,17.0069469 L55.4840982,2.70172501 C55.3654972,2.3222021 55.0351831,2.05278282 54.6474924,2.00693405 L54.5296182,2 Z M9.999,2 L3,2 C2.48716416,2 2.06449284,2.38604019 2.00672773,2.88337887 L2,3 L2,14 L10,14 L9.999,2 Z M21.999,2 L11.999,2 L12,14 L22,14 L21.999,2 Z M33.999,2 L23.999,2 L24,14 L34,14 L33.999,2 Z M45.999,2 L35.999,2 L36,14 L46,14 L45.999,2 Z" id="path" fill="#E44D28"></path>
                            </g>
                        </g>
                    </g>
                </g>
            </g>
        </g>
    </g>
</svg>