<?xml version="1.0" encoding="UTF-8"?>
<svg width="156px" height="60px" viewBox="0 0 156 60" version="1.1" xmlns="http://www.w3.org/2000/svg" xmlns:xlink="http://www.w3.org/1999/xlink">
    <title>BA29F3DD-C982-4A74-994F-C335E0B38703</title>
    <g id="Sadaļas" stroke="none" stroke-width="1" fill="none" fill-rule="evenodd">
        <g id="01.02.-Sākumlapa-v4---Izvērsts-kalkulātors" transform="translate(-629.000000, -708.000000)">
            <g id="Categories-+-Cities" transform="translate(0.000000, 608.000000)">
                <g id="Categories" transform="translate(215.000000, 0.000000)">
                    <g id="Category-6" transform="translate(295.000000, 90.000000)">
                        <g id="Category-icon-/-CE" transform="translate(119.000000, 10.000000)">
                            <polygon id="Line" fill="#E6E9F0" points="-3.86657373e-12 48 156 48 156 50 -3.86657373e-12 50"></polygon>
                            <g id="Icon" transform="translate(20.000000, 12.000000)">
                                <path d="M95,1 L95,33 L66,33 C66,31.3431457 64.6568542,30 63,30 C61.4023191,30 60.0963391,31.24892 60.0050927,32.8237272 L59.999,33 L56,33 C56,31.3431457 54.6568542,30 53,30 C51.4023191,30 50.0963391,31.24892 50.0050927,32.8237272 L49.999,33 L45,33 L45,1 L95,1 Z M39,1 C40.1045695,1 41,1.8954305 41,3 L41,31 C41,32.1045695 40.1045695,33 39,33 L23,33 C23,30.790861 21.209139,29 19,29 C16.790861,29 15,30.790861 15,33 L13,33 C13,30.790861 11.209139,29 9,29 C6.790861,29 5,30.790861 5,33 L3,33 C1.8954305,33 1,32.1045695 1,31 L1,3 C1,1.8954305 1.8954305,1 3,1 L39,1 Z M104.117,11 C105.769844,11 107.244659,12.0153623 107.841693,13.5416849 L107.9117,13.7351 L111,22.999 L112.7889,23.8944 C114.079486,24.5397137 114.917346,25.8267202 114.994216,27.2566076 L115,27.4721 L115,31 C115,32.0543618 114.184122,32.9181651 113.149262,32.9945143 L113,33 L110,33 C110,31.3431457 108.656854,30 107,30 C105.402319,30 104.096339,31.24892 104.005093,32.8237272 L103.999,33 L99,33 L99,11 L104.117,11 Z" id="path" fill="#FADBD4"></path>
                                <path d="M52,4 L52,5.23447222 L49.6,5.23447222 L49.6,6.25 L52,6.25 L52,7.53047355 L49.6,7.53047355 L49.6,8.02784522 C49.6,8.34312123 49.8516497,8.6032948 50.1769117,8.64145597 L50.2596578,8.64627441 L52,8.64572355 L52,10 L49.7590875,10 C48.8298102,10 48.0688321,9.32446121 48.0044168,8.46863066 L48,8.35085549 L48,4 L52,4 Z M9,4 L9,5.23447222 L6.6,5.23447222 L6.6,6.25 L9,6.25 L9,7.53047355 L6.6,7.53047355 L6.6,8.02784522 C6.6,8.34312123 6.85164968,8.6032948 7.17691173,8.64145597 L7.2596578,8.64627441 L9,8.64572355 L9,10 L6.75908747,10 C5.82981017,10 5.0688321,9.32446121 5.00441676,8.46863066 L5,8.35085549 L5,4 L9,4 Z" id="path" fill="#E44D28" fill-rule="nonzero"></path>
                                <path d="M9,29 C11.209139,29 13,30.790861 13,33 C13,35.209139 11.209139,37 9,37 C6.790861,37 5,35.209139 5,33 C5,30.790861 6.790861,29 9,29 Z M19,29 C21.209139,29 23,30.790861 23,33 C23,35.209139 21.209139,37 19,37 C16.790861,37 15,35.209139 15,33 C15,30.790861 16.790861,29 19,29 Z M53,29 C55.209139,29 57,30.790861 57,33 C57,35.209139 55.209139,37 53,37 C50.790861,37 49,35.209139 49,33 C49,30.790861 50.790861,29 53,29 Z M63,29 C65.209139,29 67,30.790861 67,33 C67,35.209139 65.209139,37 63,37 C60.790861,37 59,35.209139 59,33 C59,30.790861 60.790861,29 63,29 Z M107,29 C109.209139,29 111,30.790861 111,33 C111,35.209139 109.209139,37 107,37 C104.790861,37 103,35.209139 103,33 C103,30.790861 104.790861,29 107,29 Z M108.3333,15 L111,23 L105,23 C103.945638,23 103.081835,22.1841222 103.005486,21.1492623 L103,21 L103,17 C103,15.9456382 103.815878,15.0818349 104.850738,15.0054857 L105,15 L108.3333,15 Z" id="path" fill="#FFFFFF"></path>
                                <path d="M48.1002591,34.0011864 L23.8997409,34.0011864 C23.4360122,36.2828356 21.4185387,38 19,38 C16.3112453,38 14.1181819,35.8776933 14.0046195,33.2168896 L14,33.001 L13.9953805,33.2168896 C13.8818181,35.8776933 11.6887547,38 9,38 C6.58146126,38 4.56398776,36.2828356 4.10025909,34.0011864 L3,34 C1.40231912,34 0.0963391206,32.75108 0.00509269341,31.1762728 L0,31 L0,3 C0,1.40231912 1.24891996,0.0963391206 2.82372721,0.00509269341 L3,0 L39,0 C40.5976809,0 41.9036609,1.24891996 41.9949073,2.82372721 L42,3 L42,28 L44,28 L44,3 C44,1.40231912 45.24892,0.0963391206 46.8237272,0.00509269341 L47,0 L93,0 C94.5976809,0 95.9036609,1.24891996 95.9949073,2.82372721 L96,3 L96,28 L98,28 L98,11 C98,10.4871642 98.3860402,10.0644928 98.8833789,10.0067277 L99,10 L104.1172,10 C106.192768,9.99837836 108.044149,11.2793237 108.782578,13.202234 L108.86,13.4185 L111.8179,22.291 L113.2363,23 C114.863928,23.8069697 115.916145,25.4335416 115.995262,27.2361339 L116.00003,27.4722 L116.00003,31 C115.998247,32.5969539 114.750254,33.9019178 113.176191,33.9947233 L113,34 L111.8989,34 C111.423553,36.3277716 109.37581,37.9996107 107,37.9996107 C104.700829,37.9996107 102.708901,36.4338925 102.151968,34.2231865 L102.1011,34 L67.8997409,34.0011864 C67.4360122,36.2828356 65.4185387,38 63,38 C60.5814613,38 58.5639878,36.2828356 58.1002591,34.0011864 L57.8997409,34.0011864 C57.4360122,36.2828356 55.4185387,38 53,38 C50.5814613,38 48.5639878,36.2828356 48.1002591,34.0011864 Z M9,30 C7.34314575,30 6,31.3431458 6,33 C6,34.6568542 7.34314575,36 9,36 C10.6568542,36 12,34.6568542 12,33 C12,31.3431458 10.6568542,30 9,30 Z M19,30 C17.3431458,30 16,31.3431458 16,33 C16,34.6568542 17.3431458,36 19,36 C20.6568542,36 22,34.6568542 22,33 C22,31.3431458 20.6568542,30 19,30 Z M107,30 C105.343146,30 104,31.3431457 104,33 C104,34.6568542 105.343146,36 107,36 C108.6561,35.9981813 109.998181,34.6561003 110,33 C110,31.3431457 108.656854,30 107,30 Z M53,30 L52.8647994,30.0029922 L52.6370573,30.0217314 L52.5033641,30.0409169 L52.3266775,30.0758569 L52.1018556,30.1367585 L51.899062,30.2084496 L51.7145908,30.2885542 L51.5451982,30.3757213 L51.3928195,30.4663745 L51.2549463,30.559473 L51.145541,30.6417097 L50.9586185,30.8016282 L50.8042734,30.955775 L50.6379655,31.1502501 L50.5041168,31.3349261 L50.4148008,31.4769771 L50.3576528,31.5782089 C50.3413986,31.6083503 50.3255873,31.6389178 50.3102918,31.6697863 C50.1117053,32.0704604 50,32.5221851 50,33 C50,33.5321578 50.1385592,34.0319533 50.3815686,34.4652776 L50.5152577,34.6816203 L50.6218933,34.829071 L50.7867389,35.025237 L50.8937533,35.1362881 L50.9803971,35.2184063 C51.0527519,35.2843492 51.1289687,35.3472648 51.2082028,35.4063593 L51.3416235,35.5003532 L51.566788,35.636157 L51.5881821,35.6477005 C51.6771574,35.6952448 51.7688405,35.7384479 51.8629175,35.7770094 L52.036817,35.8420368 L52.2412544,35.9032209 L52.4119484,35.942389 L52.6374052,35.9783105 L52.8155832,35.9944244 L52.9074637,35.9985998 L53.0899825,35.9986763 L53.2906919,35.986097 L53.4437925,35.967402 L53.6120598,35.9375153 L53.7311872,35.9102637 L53.8267054,35.8846487 C53.9840378,35.8396262 54.1359679,35.7821459 54.2814366,35.7133269 L54.5465318,35.5711735 L54.7592509,35.4302983 L54.9036959,35.3187216 L54.9849023,35.2495286 C55.0762607,35.1688384 55.1624516,35.0829098 55.2432048,34.9920409 L55.399247,34.8012943 L55.5020558,34.6558014 L55.6010344,34.4958763 L55.6867211,34.336225 C55.8871625,33.9341056 56,33.4802301 56,33 C56,32.5221851 55.8882947,32.0704604 55.6895743,31.6695162 L55.5851858,31.4769563 L55.4701276,31.2970258 L55.3151554,31.0919754 L55.1449678,30.902592 L55.0150659,30.7774693 L54.9563627,30.7255869 C54.8901217,30.6685526 54.8212676,30.614295 54.7500781,30.5630799 L54.6072824,30.4664393 L54.3990934,30.3455396 L54.2546196,30.2741461 L54.063819,30.1940852 L53.8976512,30.136604 L53.6732616,30.0758421 L53.4966698,30.0409231 L53.2689387,30.0118909 L53.1835298,30.0055219 C53.1227022,30.0018546 53.0615677,30 53,30 Z M63,30 L62.8647994,30.0029922 L62.6370573,30.0217314 L62.5033641,30.0409169 L62.3266775,30.0758569 L62.1018556,30.1367585 L61.899062,30.2084496 L61.7145908,30.2885542 L61.5451982,30.3757213 L61.3928195,30.4663745 L61.2549463,30.559473 L61.145541,30.6417097 L60.9586185,30.8016282 L60.8042734,30.955775 L60.6379655,31.1502501 L60.5041168,31.3349261 L60.4148008,31.4769771 L60.3576528,31.5782089 C60.3413986,31.6083503 60.3255873,31.6389178 60.3102918,31.6697863 C60.1117053,32.0704604 60,32.5221851 60,33 C60,33.5321578 60.1385592,34.0319533 60.3815686,34.4652776 L60.5152577,34.6816203 L60.6218933,34.829071 L60.7867388,35.025237 L60.8937533,35.1362881 L60.9803971,35.2184063 C61.0527519,35.2843492 61.1289687,35.3472648 61.2082028,35.4063593 L61.3416235,35.5003532 L61.566788,35.636157 L61.5881821,35.6477005 C61.6771574,35.6952448 61.7688405,35.7384479 61.8629175,35.7770094 L62.036817,35.8420368 L62.2412544,35.9032209 L62.4119484,35.942389 L62.6374052,35.9783105 L62.8155832,35.9944244 L62.9074637,35.9985998 L63.1351625,35.9970095 L63.3629426,35.9782686 L63.4966207,35.9590853 L63.6733012,35.9241475 L63.8493509,35.8780722 L63.963181,35.8420375 L64.1365691,35.7772198 L64.2763028,35.7157478 L64.4867821,35.6062549 L64.5188496,35.5876577 C64.61373,35.5318291 64.7049405,35.4711764 64.7924666,35.4058599 L64.908435,35.3148234 L65.0669412,35.1743482 L65.1790351,35.0620009 L65.3433406,34.8733448 L65.4482565,34.7342111 L65.5442189,34.5903932 L65.6181754,34.4657339 C65.8614408,34.0319533 66,33.5321578 66,33 C66,32.5221851 65.8882947,32.0704604 65.6895743,31.6695162 L65.5851858,31.4769563 L65.4701276,31.2970258 L65.3151554,31.0919754 L65.1449678,30.902592 L65.0150659,30.7774693 L64.9563627,30.7255869 C64.8901217,30.6685526 64.8212676,30.614295 64.7500781,30.5630799 L64.6072824,30.4664393 L64.3990934,30.3455396 L64.2546196,30.2741461 L64.063819,30.1940852 L63.8976512,30.136604 L63.6732616,30.0758421 L63.4966698,30.0409231 L63.2689387,30.0118909 L63.1835298,30.0055219 C63.1227022,30.0018546 63.0615677,30 63,30 Z M9,32 C9.55228475,32 10,32.4477153 10,33 C10,33.5522847 9.55228475,34 9,34 C8.44771525,34 8,33.5522847 8,33 C8,32.4477153 8.44771525,32 9,32 Z M19,32 C19.5522847,32 20,32.4477153 20,33 C20,33.5522847 19.5522847,34 19,34 C18.4477153,34 18,33.5522847 18,33 C18,32.4477153 18.4477153,32 19,32 Z M53,32 C53.5522847,32 54,32.4477152 54,33 C54,33.5522847 53.5522847,34 53,34 C52.4477152,34 52,33.5522847 52,33 C52,32.4477152 52.4477152,32 53,32 Z M63,32 C63.5522847,32 64,32.4477152 64,33 C64,33.5522847 63.5522847,34 63,34 C62.4477152,34 62,33.5522847 62,33 C62,32.4477152 62.4477152,32 63,32 Z M107,32 C107.552285,32 108,32.4477152 108,33 C108,33.5522847 107.552285,34 107,34 C106.447715,34 106,33.5522847 106,33 C106,32.4477152 106.447715,32 107,32 Z M40,26 L2,26 L2,31 C2,31.5128358 2.38604019,31.9355072 2.88337887,31.9932723 L3,32 L4.10005628,31.999812 C4.56339924,29.7176654 6.5811085,28 9,28 C11.6887547,28 13.8818181,30.1223067 13.9953805,32.7831104 L14,33 C14,30.2385763 16.2385763,28 19,28 C21.4188915,28 23.4366008,29.7176654 23.8999437,31.999812 L39,32 C39.5128358,32 39.9355072,31.6139598 39.9932723,31.1166211 L40,31 L40,26 Z M44,30 L42,30 L42,31 C42,31.350972 41.9397302,31.6878673 41.8289758,32.0009007 L44.1710242,32.0009007 C44.0789428,31.7406443 44.0217578,31.4638938 44.0050927,31.1762728 L44,31 L44,30 Z M94,26 L46,26 L46,31 C46,31.4733869 46.3289337,31.8699473 46.7707092,31.9735893 L46.8833789,31.9932723 L47,32 L48.1000563,31.999812 C48.5633992,29.7176654 50.5811085,28 53,28 C55.4188915,28 57.4366008,29.7176654 57.8999437,31.999812 L58.1000563,31.999812 C58.5633992,29.7176654 60.5811085,28 63,28 C65.4188915,28 67.4366008,29.7176654 67.8999437,31.999812 L94,32 L94,26 Z M98,29.9999985 L96,29.999 L96,31.999 L98,31.9999985 L98,29.9999985 Z M104.1172,12 L100,12 L100,32 L102.1011,32 C102.576447,29.6722284 104.62419,28.0003893 107,28.0003893 C109.299171,28.0003893 111.291099,29.5661075 111.848032,31.7768135 L111.8989,32 L113,32 C113.51256,31.999335 113.93485,31.6136088 113.993151,31.116556 L114.000221,31 L114.000221,27.4722 C114.003851,26.4017207 113.434351,25.4168904 112.517687,24.8836927 L112.3418,24.7891 L110.7637,24 L105,24 C103.403046,23.9982462 102.098082,22.7502537 102.005277,21.1761909 L102,21 L102,17 C102.001754,15.4030461 103.249746,14.0980822 104.823809,14.0052766 L105,14 L106.9412,14 C106.540791,12.861486 105.499028,12.0809467 104.30665,12.0059308 L104.1172,12 Z M93,2 L47,2 C46.4871642,2 46.0644928,2.38604019 46.0067277,2.88337887 L46,3 L46,24 L94,24 L94,3 C94,2.52661307 93.6710663,2.13005271 93.2292908,2.02641071 L93.1166211,2.00672773 L93,2 Z M39,2 L3,2 C2.48716416,2 2.06449284,2.38604019 2.00672773,2.88337887 L2,3 L2,24 L40,24 L40,3 C40,2.48716416 39.6139598,2.06449284 39.1166211,2.00672773 L39,2 Z M107.6125,16 L105,16 C104.48744,16.000665 104.06515,16.3863912 104.006864,16.8834439 L104,17 L104,21 C104.000665,21.5125601 104.386391,21.9348502 104.883444,21.9931357 L105,22 L109.6125,22 L107.6125,16 Z" id="path" fill="#E44D28"></path>
                            </g>
                        </g>
                    </g>
                </g>
            </g>
        </g>
    </g>
</svg>