<?xml version="1.0" encoding="UTF-8"?>
<svg width="12px" height="12px" viewBox="0 0 12 12" version="1.1" xmlns="http://www.w3.org/2000/svg" xmlns:xlink="http://www.w3.org/1999/xlink">
    <g id="Sadaļas" stroke="none" stroke-width="1" fill="none" fill-rule="evenodd">
        <g id="01.02.-Sākumlapa-v4---Izvērsts-kalkulātors" transform="translate(-1251.000000, -2928.000000)" fill="#475766">
            <g id="CTA-+-Calc-+-CTA" transform="translate(0.000000, 1605.000000)">
                <g id="Calculator" transform="translate(215.000000, 560.000000)">
                    <g transform="translate(600.000000, 0.000000)" id="Blocks">
                        <g transform="translate(40.000000, 188.000000)">
                            <g id="Block-3" transform="translate(0.000000, 377.000000)">
                                <g id="Content" transform="translate(20.000000, 52.000000)">
                                    <g id="Checkbox-item-2" transform="translate(0.000000, 105.000000)">
                                        <g id="Additional---Responsive-width-buttons" transform="translate(34.000000, 30.000000)">
                                            <g id="Add-more" transform="translate(280.000000, 0.000000)">
                                                <g id="Icon" transform="translate(62.000000, 11.000000)">
                                                    <path d="M6,0 C6.55228475,0 7,0.44771525 7,1 L6.999,5 L11,5 C11.5522848,5 12,5.44771525 12,6 C12,6.55228475 11.5522848,7 11,7 L6.999,7 L7,11 C7,11.5522847 6.55228475,12 6,12 C5.44771525,12 5,11.5522847 5,11 L4.999,7 L1,7 C0.447715251,7 4.59749572e-10,6.55228475 4.59749572e-10,6 C4.59749572e-10,5.44771525 0.447715251,5 1,5 L4.999,5 L5,1 C5,0.44771525 5.44771525,0 6,0 Z"></path>
                                                </g>
                                            </g>
                                        </g>
                                    </g>
                                </g>
                            </g>
                        </g>
                    </g>
                </g>
            </g>
        </g>
    </g>
</svg>
