<?xml version="1.0" encoding="UTF-8"?>
<svg width="151px" height="60px" viewBox="0 0 151 60" version="1.1" xmlns="http://www.w3.org/2000/svg" xmlns:xlink="http://www.w3.org/1999/xlink">
    <title>0D251EB9-EE76-4C01-800B-1C39EABDED13</title>
    <g id="Sadaļas" stroke="none" stroke-width="1" fill="none" fill-rule="evenodd">
        <g id="01.02.-Sākumlapa-v4---Izvērsts-kalkulātors" transform="translate(-1224.000000, -618.000000)">
            <g id="Categories-+-Cities" transform="translate(0.000000, 608.000000)">
                <g id="Categories" transform="translate(215.000000, 0.000000)">
                    <g id="Category-4" transform="translate(885.000000, 0.000000)">
                        <g id="Category-icon-/-BE" transform="translate(124.000000, 10.000000)">
                            <rect id="Line" fill="#E6E9F0" x="0" y="48" width="151" height="2"></rect>
                            <g id="Icon" transform="translate(20.000000, 13.000000)">
                                <g id="car" transform="translate(49.000000, 11.952503)">
                                    <path d="M44.4168619,6.20488444 C44.6565999,6.41156974 44.9800374,6.4925479 45.2888827,6.42320986 C50.0973986,5.3436624 55.4633835,6.63310837 59.5908458,9.77980325 C60.3675869,10.3721873 60.8683518,11.2602571 60.9798428,12.2299481 L60.9977342,12.4389104 L60.9970535,14.0480428 L60.992763,14.2649318 C60.8892088,16.779877 58.9260566,18.8148325 56.4405776,19.0316473 L56.2199491,19.0460256 L54.9997913,19.0461644 L55,19 L55,19 C55,16.2385763 52.7614237,14 50,14 C47.3112453,14 45.1181819,16.1223067 45.0046195,18.7831104 L45.001,19.0462648 L17.000321,19.0474973 C17.000321,16.2860735 14.7617448,14.0474973 12.000321,14.0474973 C9.23889727,14.0474973 7.00032102,16.2860735 7.00032102,19.0474973 L6,19.0474973 L5.78311038,19.0428778 C3.19621792,18.9324699 1.11832144,16.8564843 1.0048788,14.2703788 L1,14.0474973 L1,9.38076916 L1.00637272,9.22061393 C1.0697387,8.42682161 1.60022168,7.74475411 2.35398528,7.48792358 L2.50764283,7.44232019 L17.0038067,3.76036086 L24.3583669,1.80103954 L24.7824216,1.69167298 C31.8520835,-0.0637465021 39.0135637,1.54653985 44.4168619,6.20488444 Z" id="path" fill="#FADBD4"></path>
                                    <path d="M12,14.0474973 C14.7614237,14.0474973 17,16.2860735 17,19.0474973 C17,21.808921 14.7614237,24.0474973 12,24.0474973 C9.23857625,24.0474973 7,21.808921 7,19.0474973 C7,16.2860735 9.23857625,14.0474973 12,14.0474973 Z M50,14.0474973 C52.7614237,14.0474973 55,16.2860735 55,19.0474973 C55,21.808921 52.7614237,24.0474973 50,24.0474973 C47.2385763,24.0474973 45,21.808921 45,19.0474973 C45,16.2860735 47.2385763,14.0474973 50,14.0474973 Z M31.400321,1.04749728 C35.3347472,1.04749728 38.7319361,2.30568319 41.1556291,3.59945974 L41.6272585,3.85832734 C41.703657,3.90143028 41.7789415,3.9444822 41.8530959,3.98743783 L42.2843312,4.24365374 C42.4234696,4.32843234 42.5579582,4.41246351 42.6876678,4.49538497 L43.0623299,4.74045803 L43.0623299,4.74045803 L43.4075421,4.97669942 L43.4075421,4.97669942 L43.7225287,5.20193562 L43.7225287,5.20193562 L44.0065143,5.41399313 L44.0065143,5.41399313 L44.2587232,5.61069847 L44.2587232,5.61069847 L44.4783798,5.78987811 L44.4783798,5.78987811 L44.6647086,5.94935856 L44.6647086,5.94935856 L44.8800156,6.14688871 L44.8800156,6.14688871 L44.9796318,6.24761211 L44.9796318,6.24761211 L45.0432056,6.32102905 C45.0658527,6.35054866 45.0746931,6.36901329 45.0692905,6.37520034 C41.2304928,10.7713957 37.9837195,11.3432879 34.5494797,10.940532 L34.0575146,10.8766729 L34.0575146,10.8766729 L33.5624939,10.8013995 L33.5624939,10.8013995 L33.0639126,10.7165581 L33.0639126,10.7165581 L32.0540481,10.5255559 L32.0540481,10.5255559 L30.2355018,10.1614045 L30.2355018,10.1614045 L29.7014669,10.0593725 L29.7014669,10.0593725 L28.8864787,9.91492397 L28.8864787,9.91492397 L28.300871,9.82145557 L28.300871,9.82145557 L27.077846,9.64140919 L27.077846,9.64140919 L24.4627914,9.272909 L24.4627914,9.272909 L23.6338726,9.14409843 L23.6338726,9.14409843 L23.0960967,9.05280424 L23.0960967,9.05280424 L22.5713728,8.95566962 C22.4850628,8.93892219 22.3993389,8.92187769 22.3142222,8.90450927 L21.8109775,8.79619675 C18.837255,8.12042055 16.7052146,6.95521951 16.400321,4.04749728 L17.0017903,3.86843392 L17.0017903,3.86843392 L18.1771805,3.52683612 C18.5628555,3.41664328 18.9424086,3.31012354 19.3158398,3.20727689 L20.4177682,2.90975623 C20.7789559,2.81425577 21.1340217,2.72242841 21.4829656,2.63427414 L22.5114321,2.38083061 C26.2151358,1.49194172 29.1780988,1.04749728 31.400321,1.04749728 Z" id="path" fill="#FFFFFF"></path>
                                    <path d="M45.023974,5.40806941 L45.0340918,5.4077194 C45.0879506,5.40733576 45.1418877,5.4112778 45.1953392,5.41958267 L45.069828,5.44749728 C50.2797212,4.27783763 55.9343137,5.73466909 60.1971281,8.98455378 C61.2630844,9.79750867 61.9205271,11.0421971 61.9961466,12.3825838 L61.9976335,15.047498 C62.0017129,17.7362509 59.8806706,19.9304698 57.219931,20.0454812 L57.003044,20.0502189 L55.916632,20.0518421 C55.4387649,22.8874175 52.9717998,25.0474973 50.000321,25.0474973 C47.028492,25.0474973 44.5612955,22.8869082 44.0838411,20.0508393 L17.9171382,20.0488335 C17.4405097,22.8858894 14.9728506,25.0474973 12.000321,25.0474973 C9.02744107,25.0474973 6.55955073,22.8853799 6.08333535,20.0478305 L5,20.0474973 C2.23857625,20.0474973 0,17.808921 0,15.0474973 L0,9.38076916 C0,8.00836669 0.931298162,6.8109518 2.26146424,6.4730957 L16.7576281,2.79113638 L24.1009281,0.834744938 C31.500136,-1.14477482 39.1876859,0.402934531 45.023974,5.40806941 Z M12.000321,15.0474973 C9.79118199,15.0474973 8.00032099,16.8383583 8.00032099,19.0474973 C8.00032099,21.2566363 9.79118199,23.0474973 12.000321,23.0474973 C14.20946,23.0474973 16.000321,21.2566363 16.000321,19.0474973 C16.000321,16.8383583 14.20946,15.0474973 12.000321,15.0474973 Z M50.000321,15.0474973 C47.791182,15.0474973 46.000321,16.8383583 46.000321,19.0474973 C46.000321,21.2566363 47.791182,23.0474973 50.000321,23.0474973 C52.20946,23.0474973 54.000321,21.2566363 54.000321,19.0474973 C54.000321,16.8383583 52.20946,15.0474973 50.000321,15.0474973 Z M12.000321,17.0474973 C13.1048905,17.0474973 14.000321,17.9429278 14.000321,19.0474973 C14.000321,20.1520668 13.1048905,21.0474973 12.000321,21.0474973 C10.8957515,21.0474973 10.000321,20.1520668 10.000321,19.0474973 C10.000321,17.9429278 10.8957515,17.0474973 12.000321,17.0474973 Z M50.000321,17.0474973 C51.1048905,17.0474973 52.000321,17.9429278 52.000321,19.0474973 C52.000321,20.1520668 51.1048905,21.0474973 50.000321,21.0474973 C48.8957515,21.0474973 48.000321,20.1520668 48.000321,19.0474973 C48.000321,17.9429278 48.8957515,17.0474973 50.000321,17.0474973 Z M15.5853198,5.15189158 L2.75382141,8.41154468 C2.34738178,8.51477848 2.05266209,8.85876834 2.00636464,9.26774953 L2,9.38076916 L2,15.0474973 C2,16.6451782 3.24891996,17.9511582 4.82372721,18.0424046 L5,18.0474973 L6.08333535,18.0471641 C6.55955073,15.2096147 9.02744107,13.0474973 12.000321,13.0474973 C14.9732009,13.0474973 17.4410913,15.2096147 17.9173066,18.0471641 L44.0833354,18.0471641 C44.5595507,15.2096147 47.0274411,13.0474973 50.000321,13.0474973 C52.9732009,13.0474973 55.4410913,15.2096147 55.9173067,18.0471641 L57.027,18.048 L57.1216001,18.0433776 L57.186,18.044 L57.3517766,18.0298527 C58.7838354,17.862767 59.9069003,16.6872741 59.9923712,15.2319124 L59.9975982,15.0485872 L59.996,12.464 L59.981808,12.306747 C59.9009299,11.6830029 59.5970468,11.1085174 59.1296337,10.6943743 L58.9845634,10.5750527 C55.0863404,7.60312526 50.0205316,6.38581159 45.5079374,7.39892244 L45.4952674,7.40046016 C42.7502754,10.4220573 40.0866342,11.8147947 37.073547,12.0200471 L36.7068312,12.0412586 L36.3530958,12.0533664 L35.9191794,12.0548241 L35.9191794,12.0548241 L35.4824663,12.0400385 L35.1224661,12.0157612 L34.9366662,11.9992755 L34.9366662,11.9992755 L34.5493639,11.9572512 L34.1356545,11.9026778 L33.451217,11.7960321 L32.9427697,11.7075739 L32.085454,11.5474167 L29.8534251,11.105947 L28.8975345,10.9308776 L28.4538705,10.8575931 L27.5957689,10.7264853 L24.7300461,10.3220576 L24.0347165,10.2183897 L23.0914464,10.0663228 L22.522387,9.96525396 L21.9958011,9.86284771 L21.5070978,9.75774581 C21.114354,9.6686604 20.7562887,9.57535217 20.4209457,9.47428395 L20.0286757,9.34905091 C19.8372289,9.28434562 19.6522404,9.21633738 19.4711279,9.14426217 L19.1133054,8.99446275 C19.0542745,8.96851694 18.995483,8.94206266 18.9368352,8.9150716 C17.175126,8.10429254 16.0383956,6.88210883 15.5853198,5.15189158 Z M25.0294698,2.66071439 L24.6158057,2.76733414 L17.5173001,4.65887535 C17.8939022,6.17129956 18.9819506,7.02042407 21.418367,7.65548714 L21.8875907,7.77132913 L22.3888708,7.88287068 L22.6518172,7.93722997 L22.6518172,7.93722997 L23.2028931,8.04352795 L23.7883072,8.14713496 L24.4089723,8.24869477 L25.065801,8.34885117 L27.5723493,8.7019286 L28.483466,8.83779383 L29.2323557,8.95908474 L29.7088596,9.04361739 L30.2238103,9.1405141 L32.1076957,9.5142742 L32.9535242,9.67605468 L33.6839792,9.8062577 L34.116856,9.87648964 L34.5134604,9.9341466 L34.8797942,9.97981236 L35.2218593,10.0140707 L35.5456575,10.0375054 L35.7025821,10.0453463 L35.7025821,10.0453463 L36.0102334,10.0536401 L36.1624606,10.0542389 L36.1624606,10.0542389 L36.4674693,10.0487053 L36.9376214,10.0246714 L36.9376214,10.0246714 C39.2073168,9.87005907 41.2437259,8.89123729 43.4265006,6.6782823 C38.3164377,2.45566998 31.6412034,1.02114384 25.0294698,2.66071439 Z" id="path" fill="#E44D28" fill-rule="nonzero"></path>
                                </g>
                                <g id="pickup">
                                    <path d="M35,19 C36.1045695,19 37,19.8954305 37,21 L37,28 C37,29.1045695 36.1045695,30 35,30 L16.8999437,29.999812 C16.4366008,27.7176654 14.4188915,26 12,26 C9.5811085,26 7.56339924,27.7176654 7.10005628,29.999812 L3,30 C1.8954305,30 1,29.1045695 1,28 L1,21 C1,19.8954305 1.8954305,19 3,19 L35,19 Z" id="path" fill="#FADBD4"></path>
                                    <path d="M71,23 L71,24.2344722 L68.6,24.2344722 L68.6,25.25 L71,25.25 L71,26.5304735 L68.6,26.5304735 L68.6,27.0278452 C68.6,27.3431212 68.8516497,27.6032948 69.1769117,27.641456 L69.2596578,27.6462744 L71,27.6457235 L71,29 L68.7590875,29 C67.8298102,29 67.0688321,28.3244612 67.0044168,27.4686307 L67,27.3508555 L67,23 L71,23 Z" id="Path" fill="#E44D28" fill-rule="nonzero" transform="translate(69.000000, 26.000000) rotate(-28.000000) translate(-69.000000, -26.000000) "></path>
                                    <path d="M12,26 C14.7614237,26 17,28.2385763 17,31 C17,33.7614237 14.7614237,36 12,36 C9.23857625,36 7,33.7614237 7,31 C7,28.2385763 9.23857625,26 12,26 Z M29,1 L29,10 L34,10 L34,19 L4,19 L4,10 L9,10 L9,1 L29,1 Z" id="path" fill="#FFFFFF"></path>
                                    <path d="M35,31 L18,31 C18,34.3137085 15.3137085,37 12,37 C8.6862915,37 6,34.3137085 6,31 L3,31 C1.34314575,31 0,29.6568542 0,28 L0,21 C0,19.3431458 1.34314575,18 3,18 L3,10 C3,9.48716416 3.38604019,9.06449284 3.88337887,9.00672773 L4,9 L8,9 L8,1 C8,0.487164161 8.38604019,0.0644928393 8.88337887,0.00672773133 L9,0 L29,0 C29.5128358,0 29.9355072,0.38604019 29.9932723,0.883378875 L30,1 L30,9 L34,9 C34.5128358,9 34.9355072,9.38604019 34.9932723,9.88337887 L35,10 L35,18 C36.6568542,18 38,19.3431458 38,21 L38,26 L46,26 C46.5128358,26 46.9355072,26.3860402 46.9932723,26.8833789 L47,27 L47,30 L55,30 C55.5128358,30 55.9355072,30.3860402 55.9932723,30.8833789 L56,31 C56,31.5128358 55.6139598,31.9355072 55.1166211,31.9932723 L55,32 L46,32 C45.4871642,32 45.0644928,31.6139598 45.0067277,31.1166211 L45,31 L45,28 L38,28 C38,29.6568542 36.6568542,31 35,31 Z M12,27 C9.790861,27 8,28.790861 8,31 C8,33.209139 9.790861,35 12,35 C14.209139,35 16,33.209139 16,31 C16,28.790861 14.209139,27 12,27 Z M12,29 C13.1045695,29 14,29.8954305 14,31 C14,32.1045695 13.1045695,33 12,33 C10.8954305,33 10,32.1045695 10,31 C10,29.8954305 10.8954305,29 12,29 Z M35,20 L3,20 C2.48716416,20 2.06449284,20.3860402 2.00672773,20.8833789 L2,21 L2,28 C2,28.5128358 2.38604019,28.9355072 2.88337887,28.9932723 L3,29 L6.34129768,29.0003218 C7.16487963,26.669769 9.38744209,25 12,25 C14.6125579,25 16.8351204,26.669769 17.6587023,29.0003218 L35,29 C35.5128358,29 35.9355072,28.6139598 35.9932723,28.1166211 L36,28 L36,21 C36,20.4871642 35.6139598,20.0644928 35.1166211,20.0067277 L35,20 Z M8,11 L5,11 L5,18 L13,18 L13,11 L10,11 L10,13 C10,13.5522847 9.55228475,14 9,14 C8.48716416,14 8.06449284,13.6139598 8.00672773,13.1166211 L8,13 L8,11 Z M28,11 L25,11 L25,18 L33,18 L33,11 L30,11 L30,13 C30,13.5522847 29.5522847,14 29,14 C28.4871642,14 28.0644928,13.6139598 28.0067277,13.1166211 L28,13 L28,11 Z M18,11 L15,11 L15,18 L23,18 L23,11 L20,11 L20,13 C20,13.5522847 19.5522847,14 19,14 C18.4871642,14 18.0644928,13.6139598 18.0067277,13.1166211 L18,13 L18,11 Z M23,2 L20,2 L20,9 L28,9 L28,2 L25,2 L25,4 C25,4.55228475 24.5522847,5 24,5 C23.4871642,5 23.0644928,4.61395981 23.0067277,4.11662113 L23,4 L23,2 Z M13,2 L10,2 L10,9 L18,9 L18,2 L15,2 L15,4 C15,4.55228475 14.5522847,5 14,5 C13.4871642,5 13.0644928,4.61395981 13.0067277,4.11662113 L13,4 L13,2 Z" id="path" fill="#E44D28" fill-rule="nonzero"></path>
                                </g>
                            </g>
                        </g>
                    </g>
                </g>
            </g>
        </g>
    </g>
</svg>