<?xml version="1.0" encoding="UTF-8"?>
<svg width="112px" height="60px" viewBox="0 0 112 60" version="1.1" xmlns="http://www.w3.org/2000/svg" xmlns:xlink="http://www.w3.org/1999/xlink">
    <title>C7F13EA1-5BC0-4773-87FE-4D45190D08AC</title>
    <g id="Sadaļas" stroke="none" stroke-width="1" fill="none" fill-rule="evenodd">
        <g id="01.02.-Sākumlapa-v4---Izvērsts-kalkulātors" transform="translate(-378.000000, -708.000000)">
            <g id="Categories-+-Cities" transform="translate(0.000000, 608.000000)">
                <g id="Categories" transform="translate(215.000000, 0.000000)">
                    <g id="Category-5" transform="translate(0.000000, 90.000000)">
                        <g id="Category-icon-/-C" transform="translate(163.000000, 10.000000)">
                            <rect id="Line" fill="#E6E9F0" x="0" y="48" width="112" height="2"></rect>
                            <g id="Icon" transform="translate(20.000000, 12.000000)">
                                <path d="M51,1 L51,33 L22,33 C22,31.3431457 20.6568542,30 19,30 C17.4023191,30 16.0963391,31.24892 16.0050927,32.8237272 L15.999,33 L12,33 C12,31.3431457 10.6568542,30 9,30 C7.40231912,30 6.09633912,31.24892 6.00509269,32.8237272 L5.999,33 L1,33 L1,1 L51,1 Z M60.117,11 C61.7698438,11 63.2446593,12.0153623 63.8416932,13.5416849 L63.9117,13.7351 L67,22.999 L68.7889,23.8944 C70.0794862,24.5397137 70.9173458,25.8267202 70.9942155,27.2566076 L71,27.4721 L71,31 C71,32.0543618 70.1841222,32.9181651 69.1492623,32.9945143 L69,33 L66,33 C66,31.3431457 64.6568542,30 63,30 C61.4023191,30 60.0963391,31.24892 60.0050927,32.8237272 L59.999,33 L55,33 L55,11 L60.117,11 Z" id="path" fill="#FADBD4"></path>
                                <path d="M8,4 L8,5.23447222 L5.6,5.23447222 L5.6,6.25 L8,6.25 L8,7.53047355 L5.6,7.53047355 L5.6,8.02784522 C5.6,8.34312123 5.85164968,8.6032948 6.17691173,8.64145597 L6.2596578,8.64627441 L8,8.64572355 L8,10 L5.75908747,10 C4.82981017,10 4.0688321,9.32446121 4.00441676,8.46863066 L4,8.35085549 L4,4 L8,4 Z" id="path" fill="#E44D28" fill-rule="nonzero"></path>
                                <path d="M9,29 C11.209139,29 13,30.790861 13,33 C13,35.209139 11.209139,37 9,37 C6.790861,37 5,35.209139 5,33 C5,30.790861 6.790861,29 9,29 Z M19,29 C21.209139,29 23,30.790861 23,33 C23,35.209139 21.209139,37 19,37 C16.790861,37 15,35.209139 15,33 C15,30.790861 16.790861,29 19,29 Z M63,29 C65.209139,29 67,30.790861 67,33 C67,35.209139 65.209139,37 63,37 C60.790861,37 59,35.209139 59,33 C59,30.790861 60.790861,29 63,29 Z M64.3333,15 L67,23 L61,23 C59.9456382,23 59.0818349,22.1841222 59.0054857,21.1492623 L59,21 L59,17 C59,15.9456382 59.8158778,15.0818349 60.8507376,15.0054857 L61,15 L64.3333,15 Z" id="path" fill="#FFFFFF"></path>
                                <path d="M49,0 C50.5976809,0 51.9036609,1.24891996 51.9949073,2.82372721 L52,3 L52,28 L54,28 L54,11 C54,10.4871642 54.3860402,10.0644928 54.8833789,10.0067277 L55,10 L60.1172,10 C62.1927679,9.99837836 64.0441492,11.2793237 64.7825776,13.202234 L64.86,13.4185 L67.8179,22.291 L69.2363,23 C70.8639278,23.8069697 71.916145,25.4335416 71.9952615,27.2361339 L72.0000299,27.4722 L72.0000299,31 C71.9982473,32.5969539 70.7502538,33.9019178 69.176191,33.9947233 L69,34 L67.8989,34 C67.4235529,36.3277716 65.3758104,37.9996107 63,37.9996107 C60.7008286,37.9996107 58.7089009,36.4338925 58.1519682,34.2231865 L58.1011,34 L23.8997409,34.0011864 C23.4360122,36.2828356 21.4185387,38 19,38 C16.5814613,38 14.5639878,36.2828356 14.1002591,34.0011864 L13.8997409,34.0011864 C13.4360122,36.2828356 11.4185387,38 9,38 C6.58146126,38 4.56398776,36.2828356 4.10025909,34.0011864 L3,34 C1.40231912,34 0.0963391206,32.75108 0.00509269342,31.1762728 L0,31 L0,3 C0,1.40231912 1.24891996,0.0963391206 2.82372721,0.00509269341 L3,0 L49,0 Z M63,30 C61.3431457,30 60,31.3431457 60,33 C60,34.6568542 61.3431457,36 63,36 C64.6561003,35.9981813 65.9981813,34.6561003 66,33 C66,31.3431457 64.6568542,30 63,30 Z M9,30 L8.86479939,30.0029922 L8.63705735,30.0217314 L8.50336411,30.0409169 L8.32667755,30.0758569 L8.10185557,30.1367585 L7.89906196,30.2084496 L7.71459079,30.2885542 L7.54519819,30.3757213 L7.39281953,30.4663745 L7.25494629,30.559473 L7.14554103,30.6417097 L6.95861853,30.8016282 L6.80427336,30.955775 L6.63796546,31.1502501 L6.50411681,31.3349261 L6.41480085,31.4769771 L6.35765281,31.5782089 C6.34139856,31.6083503 6.32558731,31.6389178 6.3102918,31.6697863 C6.11170532,32.0704604 6,32.5221851 6,33 C6,33.5321578 6.13855918,34.0319533 6.38156862,34.4652776 L6.51525772,34.6816203 L6.62189335,34.829071 L6.78673885,35.025237 L6.89375332,35.1362881 L6.98039713,35.2184063 C7.05275186,35.2843492 7.12896867,35.3472648 7.20820278,35.4063593 L7.34162351,35.5003532 L7.56678798,35.636157 L7.5881821,35.6477005 C7.67715741,35.6952448 7.76884051,35.7384479 7.86291748,35.7770094 L8.03681702,35.8420368 L8.24125438,35.9032209 L8.41194837,35.942389 L8.63740518,35.9783105 L8.81558325,35.9944244 L8.90746374,35.9985998 L9.08998247,35.9986763 L9.29069195,35.986097 L9.44379246,35.967402 L9.61205976,35.9375153 L9.73118719,35.9102637 L9.82670536,35.8846487 C9.98403775,35.8396262 10.1359679,35.7821459 10.2814366,35.7133269 L10.5465318,35.5711735 L10.7592509,35.4302983 L10.9036959,35.3187216 L10.9849023,35.2495286 C11.0762607,35.1688384 11.1624516,35.0829098 11.2432048,34.9920409 L11.399247,34.8012943 L11.5020558,34.6558014 L11.6010344,34.4958763 L11.6867211,34.336225 C11.8871625,33.9341056 12,33.4802301 12,33 C12,32.5221851 11.8882947,32.0704604 11.6895743,31.6695162 L11.5851858,31.4769563 L11.4701276,31.2970258 L11.3151554,31.0919754 L11.1449678,30.902592 L11.0150659,30.7774693 L10.9563627,30.7255869 C10.8901217,30.6685526 10.8212676,30.614295 10.7500781,30.5630799 L10.6072824,30.4664393 L10.3990934,30.3455396 L10.2546196,30.2741461 L10.063819,30.1940852 L9.89765117,30.136604 L9.67326158,30.0758421 L9.4966698,30.0409231 L9.26893866,30.0118909 L9.18352984,30.0055219 C9.12270215,30.0018546 9.06156766,30 9,30 Z M9,32 C9.55228475,32 10,32.4477152 10,33 C10,33.5522847 9.55228475,34 9,34 C8.44771525,34 8,33.5522847 8,33 C8,32.4477152 8.44771525,32 9,32 Z M19,32 C19.5522847,32 20,32.4477152 20,33 C20,33.5522847 19.5522847,34 19,34 C18.4477152,34 18,33.5522847 18,33 C18,32.4477152 18.4477152,32 19,32 Z M63,32 C63.5522847,32 64,32.4477152 64,33 C64,33.5522847 63.5522847,34 63,34 C62.4477152,34 62,33.5522847 62,33 C62,32.4477152 62.4477152,32 63,32 Z M50,26 L2,26 L2,31 C2,31.4733869 2.32893365,31.8699473 2.77070917,31.9735893 L2.88337887,31.9932723 L3,32 L4.10005628,31.999812 C4.56339924,29.7176654 6.5811085,28 9,28 C11.4188915,28 13.4366008,29.7176654 13.8999437,31.999812 L14.1000563,31.999812 C14.5633992,29.7176654 16.5811085,28 19,28 C21.4188915,28 23.4366008,29.7176654 23.8999437,31.999812 L50,32 L50,26 Z M54,29.9999985 L52,29.999 L52,31.999 L54,31.9999985 L54,29.9999985 Z M60.1172,12 L56,12 L56,32 L58.1011,32 C58.5764471,29.6722284 60.6241895,28.0003893 63,28.0003893 C65.2991714,28.0003893 67.2910991,29.5661075 67.8480318,31.7768135 L67.8989,32 L69,32 C69.5125601,31.999335 69.9348502,31.6136088 69.9931512,31.116556 L70.0002032,31 L70.0002032,27.4722 C70.0038507,26.4017207 69.4343508,25.4168904 68.5176875,24.8836927 L68.3418,24.7891 L66.7637,24 L61,24 C59.4030461,23.9982462 58.0980822,22.7502537 58.0052767,21.1761909 L58,21 L58,17 C58.0017538,15.4030461 59.2497463,14.0980822 60.823809,14.0052766 L61,14 L62.9412,14 C62.5407909,12.861486 61.4990281,12.0809467 60.3066503,12.0059308 L60.1172,12 Z M49,2 L3,2 C2.48716416,2 2.06449284,2.38604019 2.00672773,2.88337887 L2,3 L2,24 L50,24 L50,3 C50,2.52661307 49.6710663,2.13005271 49.2292908,2.02641071 L49.1166211,2.00672773 L49,2 Z M63.6125,16 L61,16 C60.4874399,16.000665 60.0651498,16.3863912 60.0068643,16.8834439 L60,17 L60,21 C60.000665,21.5125601 60.3863912,21.9348502 60.8834439,21.9931357 L61,22 L65.6125,22 L63.6125,16 Z M19.1351625,35.9970095 L19.3629426,35.9782686 L19.4966207,35.9590853 L19.6733012,35.9241475 L19.8493509,35.8780722 L19.963181,35.8420375 L20.1365691,35.7772198 L20.2763028,35.7157478 L20.4867821,35.6062549 L20.5188496,35.5876577 C20.61373,35.5318291 20.7049405,35.4711764 20.7924666,35.4058599 L20.908435,35.3148234 L21.0669412,35.1743482 L21.1790351,35.0620009 L21.3433406,34.8733448 L21.4482565,34.7342111 L21.5442189,34.5903932 L21.6181754,34.4657339 C21.8614408,34.0319533 22,33.5321578 22,33 C22,32.5221851 21.8882947,32.0704604 21.6895743,31.6695162 L21.5851858,31.4769563 L21.4701276,31.2970258 L21.3151554,31.0919754 L21.1449678,30.902592 L21.0150659,30.7774693 L20.9563627,30.7255869 C20.8901217,30.6685526 20.8212676,30.614295 20.7500781,30.5630799 L20.6072824,30.4664393 L20.3990934,30.3455396 L20.2546196,30.2741461 L20.063819,30.1940852 L19.8976512,30.136604 L19.6732616,30.0758421 L19.4966698,30.0409231 L19.2689387,30.0118909 L19.1835298,30.0055219 C19.1227022,30.0018546 19.0615677,30 19,30 L18.8647994,30.0029922 L18.6370573,30.0217314 L18.5033641,30.0409169 L18.3266775,30.0758569 L18.1018556,30.1367585 L17.899062,30.2084496 L17.7145908,30.2885542 L17.5451982,30.3757213 L17.3928195,30.4663745 L17.2549463,30.559473 L17.145541,30.6417097 L16.9586185,30.8016282 L16.8042734,30.955775 L16.6379655,31.1502501 L16.5041168,31.3349261 L16.4148008,31.4769771 L16.3576528,31.5782089 C16.3413986,31.6083503 16.3255873,31.6389178 16.3102918,31.6697863 C16.1117053,32.0704604 16,32.5221851 16,33 C16,33.5321578 16.1385592,34.0319533 16.3815686,34.4652776 L16.5152577,34.6816203 L16.6218933,34.829071 L16.7867388,35.025237 L16.8937533,35.1362881 L16.9803971,35.2184063 C17.0527519,35.2843492 17.1289687,35.3472648 17.2082028,35.4063593 L17.3416235,35.5003532 L17.566788,35.636157 L17.5881821,35.6477005 C17.6771574,35.6952448 17.7688405,35.7384479 17.8629175,35.7770094 L18.036817,35.8420368 L18.2412544,35.9032209 L18.4119484,35.942389 L18.6374052,35.9783105 L18.8155832,35.9944244 L18.9074637,35.9985998 L19.1351625,35.9970095 Z" id="path" fill="#E44D28"></path>
                            </g>
                        </g>
                    </g>
                </g>
            </g>
        </g>
    </g>
</svg>