<?xml version="1.0" encoding="UTF-8"?>
<svg width="96px" height="60px" viewBox="0 0 96 60" version="1.1" xmlns="http://www.w3.org/2000/svg" xmlns:xlink="http://www.w3.org/1999/xlink">
    <title>DBFEFF80-93F8-4B2B-B2D6-16AFFD52EC02</title>
    <g id="Sadaļas" stroke="none" stroke-width="1" fill="none" fill-rule="evenodd">
        <g id="01.02.-Sākumlapa-v4---Izvērsts-kalkulātors" transform="translate(-689.000000, -803.000000)">
            <g id="Categories-+-Cities" transform="translate(0.000000, 608.000000)">
                <g id="Categories" transform="translate(215.000000, 0.000000)">
                    <g id="Category-10" transform="translate(295.000000, 180.000000)">
                        <g id="Category-icon-/-PMP" transform="translate(179.000000, 15.000000)">
                            <polygon id="Line" fill="#E6E9F0" points="0 53 96 53 96 55 0 55"></polygon>
                            <g id="Icon" transform="translate(24.000000, 13.000000)">
                                <path d="M2,9 L46,9 C46.5522847,9 47,9.44771525 47,10 L47,40 C47,40.5522847 46.5522847,41 46,41 L2,41 C1.44771525,41 1,40.5522847 1,40 L1,10 C1,9.44771525 1.44771525,9 2,9 Z" id="path" fill="#FADBD4"></path>
                                <path d="M8,12 L8,13.2344722 L5.6,13.2344722 L5.6,14.25 L8,14.25 L8,15.5304735 L5.6,15.5304735 L5.6,16.0278452 C5.6,16.3431212 5.85164968,16.6032948 6.17691173,16.641456 L6.2596578,16.6462744 L8,16.6457235 L8,18 L5.75908747,18 C4.82981017,18 4.0688321,17.3244612 4.00441676,16.4686307 L4,16.3508555 L4,12 L8,12 Z" id="Path" fill="#E44D28" fill-rule="nonzero"></path>
                                <path d="M33,0 C34.6568542,0 36,1.34314575 36,3 L36,10 L12,10 L12,3 C12,1.34314575 13.3431458,0 15,0 L33,0 Z M33,2 L15,2 C14.4871642,2 14.0644928,2.38604019 14.0067277,2.88337887 L14,3 L14,8 L34,8 L34,3 C34,2.48716416 33.6139598,2.06449284 33.1166211,2.00672773 L33,2 Z" id="path" fill="#E44D28"></path>
                                <path d="M45,8 C46.6568542,8 48,9.34314575 48,11 L48,39 C48,40.6568542 46.6568542,42 45,42 L3,42 C1.34314575,42 0,40.6568542 0,39 L0,11 C0,9.34314575 1.34314575,8 3,8 L45,8 Z M45,10 L3,10 C2.48716416,10 2.06449284,10.3860402 2.00672773,10.8833789 L2,11 L2,39 C2,39.5128358 2.38604019,39.9355072 2.88337887,39.9932723 L3,40 L45,40 C45.5128358,40 45.9355072,39.6139598 45.9932723,39.1166211 L46,39 L46,11 C46,10.4871642 45.6139598,10.0644928 45.1166211,10.0067277 L45,10 Z" id="path" fill="#E44D28"></path>
                                <path d="M24,18 C25.1045695,18 26,18.8954305 26,20 L25.999,22.999 L29,23 C30.1045695,23 31,23.8954305 31,25 C31,26.1045695 30.1045695,27 29,27 L25.999,26.999 L26,30 C26,31.1045695 25.1045695,32 24,32 C22.8954305,32 22,31.1045695 22,30 L21.999,26.999 L19,27 C17.8954305,27 17,26.1045695 17,25 C17,23.8954305 17.8954305,23 19,23 L21.999,22.999 L22,20 C22,18.8954305 22.8954305,18 24,18 Z" id="path" fill="#E44D28"></path>
                            </g>
                        </g>
                    </g>
                </g>
            </g>
        </g>
    </g>
</svg>