<?xml version="1.0" encoding="UTF-8"?>
<svg width="88px" height="60px" viewBox="0 0 88 60" version="1.1" xmlns="http://www.w3.org/2000/svg" xmlns:xlink="http://www.w3.org/1999/xlink">
    <g id="Sadaļas" stroke="none" stroke-width="1" fill="none" fill-rule="evenodd">
        <g id="01.02.-Sākumlapa-v4---Izvērsts-kalkulātors" transform="translate(-1287.000000, -803.000000)">
            <g id="Categories-+-Cities" transform="translate(0.000000, 608.000000)">
                <g id="Categories" transform="translate(215.000000, 0.000000)">
                    <g id="Category-12" transform="translate(885.000000, 180.000000)">
                        <g id="Category-icon-/-Gift-cards" transform="translate(187.000000, 15.000000)">
                            <rect id="Line" fill="#E6E9F0" x="0" y="53.0003758" width="88" height="2"></rect>
                            <g id="Icon" transform="translate(14.999818, 7.000000)">
                                <path d="M13.8643058,1.18418206 L55.0338755,16.4042855 C56.5841477,16.9774103 57.3834742,18.7185239 56.8192213,20.2931714 L47.9647452,45.0031522 C47.4004923,46.5777997 45.686331,47.3896943 44.1360588,46.8165695 L2.9664891,31.596466 C1.41621691,31.0233412 0.616890367,29.2822276 1.1811433,27.7075801 L10.0356194,2.99759936 C10.5998723,1.4229518 12.3140336,0.611057221 13.8643058,1.18418206 Z" id="path" fill="#FADBD4"></path>
                                <path d="M9.09423374,2.66026699 L0.239757688,27.3702477 C-0.508594756,29.4586575 0.552620779,31.7702244 2.61973348,32.5344215 L43.7893032,47.754525 C45.8638315,48.5214636 48.1551607,47.4361995 48.9061309,45.3404845 L57.7606069,20.6305038 C58.5089593,18.542094 57.4477438,16.2305272 55.3806311,15.46633 L14.2110614,0.246226553 C12.1365331,-0.520712122 9.8452039,0.564552003 9.09423374,2.66026699 Z M13.5175502,2.12213757 L54.6871199,17.342241 C55.7205516,17.7242935 56.2579891,18.8949537 55.8778357,19.9558391 L47.0233596,44.6658198 C46.6458239,45.7193999 45.5088305,46.257925 44.4828144,45.8786139 L3.31324473,30.6585105 C2.27981304,30.276458 1.74237549,29.1057978 2.12252891,28.0449125 L10.977005,3.33493173 C11.3545407,2.2813516 12.4915341,1.74282656 13.5175502,2.12213757 Z" id="path" fill="#E44D28" fill-rule="nonzero"></path>
                                <path d="M7.0001823,8.00037576 L51.0001823,8.00037576 C52.6570365,8.00037576 54.0001823,9.34352151 54.0001823,11.0003758 L54.0001823,37.0003758 C54.0001823,38.65723 52.6570365,40.0003758 51.0001823,40.0003758 L7.0001823,40.0003758 C5.34332805,40.0003758 4.0001823,38.65723 4.0001823,37.0003758 L4.0001823,11.0003758 C4.0001823,9.34352151 5.34332805,8.00037576 7.0001823,8.00037576 Z" id="path" fill="#FADBD4"></path>
                                <path d="M51.0001823,7.00037576 C53.1423777,7.00037576 54.8912612,8.68434423 54.995287,10.8007354 L55.0001823,11.0003758 L55.0001823,37.0003758 C55.0001823,39.1425712 53.3162138,40.8914546 51.1998226,40.9954804 L51.0001823,41.0003758 L7.0001823,41.0003758 C4.8579869,41.0003758 3.10910342,39.3164073 3.0050776,37.2000161 L3.0001823,37.0003758 L3.0001823,11.0003758 C3.0001823,8.85818036 4.68415077,7.10929688 6.80054195,7.00527106 L7.0001823,7.00037576 L51.0001823,7.00037576 Z M14.4148413,21.0009391 L5.0001823,21.0003758 L5.0001823,37.0003758 C5.0001823,38.0547376 5.81606009,38.9185409 6.85091995,38.99489 L7.0001823,39.0003758 L15.0001823,39.0003758 L15.001569,23.4143149 C13.3155138,25.053482 10.8499562,26.0003758 8.0001823,26.0003758 C7.44789755,26.0003758 7.0001823,25.5526605 7.0001823,25.0003758 C7.0001823,24.448091 7.44789755,24.0003758 8.0001823,24.0003758 C10.889,24.0003758 13.1966606,22.8612175 14.4148413,21.0009391 Z M53.0001823,21.0003758 L17.5857946,21.0009391 C18.8039753,22.8612175 21.1116359,24.0003758 24.0004536,24.0003758 C24.5527383,24.0003758 25.0004536,24.448091 25.0004536,25.0003758 C25.0004536,25.5526605 24.5527383,26.0003758 24.0004536,26.0003758 C21.151241,26.0003758 18.6860934,25.053855 17.0000633,23.4152834 L17.0000633,39.0003758 L51.0001823,39.0003758 C52.0545441,39.0003758 52.9183474,38.184498 52.9946966,37.1496381 L53.0001823,37.0003758 L53.0001823,21.0003758 Z M36.0001823,35 C36.552467,35 37.0001823,35.4477153 37.0001823,36 C37.0001823,36.5522847 36.552467,37 36.0001823,37 L31.0001823,37 C30.4478975,37 30.0001823,36.5522847 30.0001823,36 C30.0001823,35.4477153 30.4478975,35 31.0001823,35 L36.0001823,35 Z M50.0001823,35 C50.552467,35 51.0001823,35.4477153 51.0001823,36 C51.0001823,36.5522847 50.552467,37 50.0001823,37 L40.0001823,37 C39.4478975,37 39.0001823,36.5522847 39.0001823,36 C39.0001823,35.4477153 39.4478975,35 40.0001823,35 L50.0001823,35 Z M51.0001823,11 L51.0001823,12.2344722 L48.6001823,12.2344722 L48.6001823,13.25 L51.0001823,13.25 L51.0001823,14.5304735 L48.6001823,14.5304735 L48.6001823,15.0278452 C48.6001823,15.3431212 48.851832,15.6032948 49.177094,15.641456 L49.2598401,15.6462744 L51.0001823,15.6457235 L51.0001823,17 L48.7592698,17 C47.8299925,17 47.0690144,16.3244612 47.0045991,15.4686307 L47.0001823,15.3508555 L47.0001823,11 L51.0001823,11 Z M51.0001823,9.00037576 L17.0001823,9.00037576 L17.0001823,14.1694821 C17.4558051,13.1623636 17.8824038,12.4613 18.2930755,12.0506283 C19.8551727,10.4885311 22.3878326,10.4885311 23.9499298,12.0506283 C25.5120269,13.6127255 25.5120269,16.1453854 23.9499298,17.7074825 C23.5391575,18.1182548 22.8378511,18.5449619 21.8303361,19.0003758 L53.0001823,19.0003758 L53.0001823,11.0003758 C53.0001823,9.94601396 52.1843045,9.08221063 51.1494446,9.00586149 L51.0001823,9.00037576 Z M15.0001823,9.00037576 L7.0001823,9.00037576 C5.9458205,9.00037576 5.08201717,9.81625355 5.00566803,10.8511134 L5.0001823,11.0003758 L5.0001823,19.0003758 L10.0297749,19.000859 C9.16138162,18.5905043 8.54599274,18.2030404 8.17175517,17.8288029 C6.609658,16.2667057 6.609658,13.7340458 8.17175517,12.1719486 C9.73385234,10.6098515 12.2665123,10.6098515 13.8286094,12.1719486 C14.202847,12.5461862 14.5903109,13.1615751 15.0006655,14.0299683 L15.0001823,9.00037576 Z M9.58596873,13.5861622 C8.80492015,14.3672108 8.80492015,15.6335407 9.58596873,16.4145893 C9.74881679,16.5774374 10.0323258,16.7650219 10.4329405,16.9744442 L10.6117919,17.0655251 L10.9649627,17.2338917 L11.3629073,17.4102643 L11.5785607,17.5013638 L12.0430109,17.6892112 L12.6852677,17.934244 L13.3954362,18.1901169 L14.0120088,18.4022462 L14.5956522,18.5961035 L14.4018655,18.0116476 L14.1893786,17.3940773 L13.9330921,16.682874 L13.6876855,16.0398214 L13.4995697,15.574909 L13.4083467,15.3590834 L13.2317497,14.9609129 L13.0631898,14.6076761 C12.8752516,14.2297871 12.7036208,13.9406197 12.550221,13.7425332 L12.4750493,13.651091 L12.4143959,13.5861622 C11.6333473,12.8051136 10.3670173,12.8051136 9.58596873,13.5861622 Z M19.7072891,13.4648419 L19.6466357,13.5297706 C19.4962982,13.7009242 19.3266281,13.9674031 19.1396717,14.3266973 L18.9752378,14.6573355 C18.9190471,14.775086 18.8614931,14.9003547 18.8026235,15.033083 L18.6221152,15.4535886 L18.4339994,15.9185011 L18.2385625,16.4274691 L18.0360908,16.9801414 L17.8268707,17.5761669 L17.5267399,18.474529 L18.1096761,18.2809258 L18.7262488,18.0687966 L19.2997947,17.8632489 L19.8299644,17.6645676 L20.3164085,17.4730376 L20.7587776,17.2889439 L21.1567223,17.1125713 C21.2819276,17.055099 21.3996706,16.998961 21.5098931,16.9442048 L21.8179406,16.7841292 C22.1508715,16.6023215 22.3909624,16.4380228 22.5357162,16.293269 C23.3167648,15.5122204 23.3167648,14.2458904 22.5357162,13.4648419 C21.7546676,12.6837933 20.4883377,12.6837933 19.7072891,13.4648419 Z" id="path" fill="#E44D28" fill-rule="nonzero"></path>
                                <path d="M16.0001823,16.0003758 C13.7910433,16.0003758 12.0001823,17.7912368 12.0001823,20.0003758 C12.0001823,22.2095148 13.7910433,24.0003758 16.0001823,24.0003758 C18.2093213,24.0003758 20.0001823,22.2095148 20.0001823,20.0003758 C20.0001823,17.7912368 18.2093213,16.0003758 16.0001823,16.0003758 Z" id="path" fill="#E44D28" fill-rule="nonzero"></path>
                                <path d="M16.0001823,18.0003758 C17.1047518,18.0003758 18.0001823,18.8958063 18.0001823,20.0003758 C18.0001823,21.1049453 17.1047518,22.0003758 16.0001823,22.0003758 C14.8956128,22.0003758 14.0001823,21.1049453 14.0001823,20.0003758 C14.0001823,18.8958063 14.8956128,18.0003758 16.0001823,18.0003758 Z" id="path" fill="#FFFFFF" fill-rule="nonzero"></path>
                            </g>
                        </g>
                    </g>
                </g>
            </g>
        </g>
    </g>
</svg>
