<?xml version="1.0" encoding="UTF-8"?>
<svg width="22px" height="14px" viewBox="0 0 22 14" version="1.1" xmlns="http://www.w3.org/2000/svg" xmlns:xlink="http://www.w3.org/1999/xlink">
    <title>862216F7-100E-4427-A950-D15BC3F40895</title>
    <g id="Sadaļas" stroke="none" stroke-width="1" fill="none" fill-rule="evenodd">
        <g id="Kalkulators---uzlabojumi" transform="translate(-1083.000000, -1170.000000)" fill="#046125">
            <g id="Calculator" transform="translate(215.000000, 36.000000)">
                <g transform="translate(600.000000, 0.000000)" id="Blocks">
                    <g transform="translate(40.000000, 188.000000)">
                        <g id="Block-4" transform="translate(0.000000, 753.000000)">
                            <g id="Checkbox-item-5" transform="translate(20.000000, 190.000000)">
                                <path d="M212.871488,11.2083333 L212.871488,13.62 C212.871488,15.0583333 211.818554,15.5883333 210.507384,15.5883333 C209.196214,15.5883333 208,15.06 208,13.62 L208,6.35 C208,4.91166667 209.192881,4.38166667 210.505718,4.38166667 C211.818554,4.38166667 212.871488,4.91166667 212.871488,6.35 L212.871488,8.35833333 L210.813934,8.35833333 L210.813934,6.7 C210.813934,6.39666667 210.717304,5.98833333 210.385763,5.98833333 C210.054222,5.98833333 210.009239,6.395 210.009239,6.7 L210.009239,13.2733333 C210.009239,13.5766667 210.055888,13.985 210.385763,13.985 C210.717304,13.985 210.813934,13.5766667 210.813934,13.2733333 L210.813934,11.2083333 L212.871488,11.2083333 Z M219.59061,15.4033333 L219.59061,4.59666667 L221.886407,4.59333333 C223.199243,4.59333333 224.392124,5.12333333 224.392124,6.56166667 L224.392124,13.4083333 C224.392124,14.8466667 223.199243,15.3766667 221.886407,15.3766667 L219.59061,15.4033333 Z M222.371223,13.1216667 L222.371223,6.85 C222.371223,6.54833333 222.324574,6.13833333 221.993033,6.13833333 L221.616509,6.13833333 L221.616509,13.8316667 L221.994699,13.8316667 C222.324574,13.8316667 222.371223,13.4233333 222.371223,13.1216667 Z M225.186823,15.4033333 L225.186823,4.59666667 L227.644226,4.59333333 C228.957062,4.59333333 230,5.12333333 230,6.56166667 L230,13.4083333 C230,14.8466667 228.805452,15.4016667 227.494282,15.4016667 L225.186823,15.4033333 Z M227.979099,13.1216667 L227.979099,6.85 C227.979099,6.54833333 227.93245,6.13833333 227.600909,6.13833333 L227.222719,6.13833333 L227.222719,13.8316667 L227.600909,13.8316667 C227.93245,13.8316667 227.979099,13.4233333 227.979099,13.1216667 Z M211.17713,17 C213.326316,15.7583333 215.540477,13.515 215.69042,11.8933333 C215.981977,8.72166667 213.934419,8.13833333 214.107686,6.16333333 C214.237637,4.65666667 215.32056,3.43166667 216.371829,3 L217.393109,3 C216.238546,3.53666667 215.257251,4.62166667 215.257251,5.78333333 C215.257251,7.82166667 218.887543,8.235 218.532677,12.3516667 C218.381068,14.12 216.918289,16.335 216.368497,17 L211.17713,17 Z" id="logo-csdd"></path>
                            </g>
                        </g>
                    </g>
                </g>
            </g>
        </g>
    </g>
</svg>