<?xml version="1.0" encoding="UTF-8"?>
<svg width="44px" height="44px" viewBox="0 0 44 44" version="1.1" xmlns="http://www.w3.org/2000/svg" xmlns:xlink="http://www.w3.org/1999/xlink">
    <g id="Symbols" stroke="none" stroke-width="1" fill="none" fill-rule="evenodd">
        <g id="Component-/-Footer-/-Footer" transform="translate(-946.000000, -57.000000)">
            <g id="Content" transform="translate(215.000000, 56.000000)">
                <g id="Email-address" transform="translate(731.000000, 0.000000)">
                    <g id="Icon" transform="translate(0.000000, 1.000000)">
                        <rect id="Rectangle" x="0" y="0" width="44" height="44"></rect>
                        <g id="Group-18" fill="#E44D28">
                            <path d="M12.2492809,11 C12.1181294,11.7807418 12.0372805,12.5782358 12.010187,13.3892543 L12,14 L12.0062579,14.477763 L12.0266684,14.9852652 C12.1457002,17.1793803 12.6614579,19.3054373 13.5389621,21.2750135 L13.7478686,21.7267131 L13.802,21.837 L13.4462112,23.8994747 L13.4188012,24.0834932 L13.3965179,24.2613947 L13.3763178,24.4646079 L13.3626294,24.7406964 C13.325089,26.2112545 13.8528127,27.6449199 14.8415696,28.7404582 L15.0323388,28.9418357 L15.2230915,29.1250942 L15.4210204,29.2985257 C16.6256321,30.3062701 18.1949466,30.7800872 19.7624018,30.6026424 L20.0389176,30.5645443 L22.193,30.215 L22.3899945,30.3106447 L22.8409742,30.5131921 C25.1059578,31.4942825 27.5203509,32 30,32 C32.4827399,32 34.8487195,31.4963156 37.0012452,30.5856403 L37,43 L29,37 L5,37 C2.85780461,37 1.10892112,35.3160315 1.00489531,33.1996403 L1,33 L1,15 C1,12.8578046 2.68396847,11.1089211 4.80035966,11.0048953 L5,11 L12.2492809,11 Z" id="Path" opacity="0.200000003"></path>
                            <path d="M12,10 C12.5522847,10 13,10.4477153 13,11 C13,11.5128358 12.6139598,11.9355072 12.1166211,11.9932723 L12,12 L5,12 C3.40231912,12 2.09633912,13.24892 2.00509269,14.8237272 L2,15 L2,33 C2,34.5976809 3.24891996,35.9036609 4.82372721,35.9949073 L5,36 L29,36 C29.1730962,36 29.3424569,36.0449138 29.4919026,36.1293483 L29.6,36.2 L36,41 L36,31 C36,30.4871642 36.3860402,30.0644928 36.8833789,30.0067277 L37,30 C37.5128358,30 37.9355072,30.3860402 37.9932723,30.8833789 L38,31 L38,43 C38,43.7865887 37.1428165,44.2509345 36.4915261,43.8614991 L36.4,43.8 L28.667,38 L5,38 C2.3112453,38 0.118181885,35.8776933 0.00461951385,33.2168896 L0,33 L0,15 C0,12.3112453 2.12230671,10.1181819 4.78311038,10.0046195 L5,10 L12,10 Z" id="Path" fill-rule="nonzero"></path>
                            <path d="M30,0 C37.7256667,0 44,6.27433333 44,14 C44,21.7256667 37.7256667,28 30,28 C27.6304314,28 25.397278,27.4088674 23.4386572,26.3686101 L23.056,26.1566667 C22.9416667,26.089 22.8063333,26.0633333 22.657,26.089 L19.3973333,26.6163333 C18.8373333,26.7073333 18.268,26.523 17.869,26.1216667 C17.5099,25.7604667 17.32846,25.2612967 17.365504,24.7585357 L17.3877873,24.5806342 L17.9436667,21.364 C17.967,21.2286667 17.9413333,21.0886667 17.862,20.9556667 C16.6743333,18.9116667 16,16.534 16,14 C16,6.27433333 22.2743333,0 30,0 Z M30,2 C23.3789028,2 18,7.37890283 18,14 C18,15.994678 18.4866478,17.9101375 19.3928289,19.5968598 L19.579639,19.9311101 C19.8987856,20.46615 20.0206436,21.0886851 19.914231,21.7058718 L19.416,24.586 L22.3182176,24.1179022 C22.9261856,24.0134077 23.5436713,24.1212655 24.0746418,24.4355133 L24.0968598,24.4457544 L24.134,24.468 L24.4270374,24.6288391 C26.010648,25.4605058 27.7609919,25.9299251 29.5792431,25.9927418 L30,26 C36.6210972,26 42,20.6210972 42,14 C42,7.37890283 36.6210972,2 30,2 Z M25,12 C26.1045695,12 27,12.8954305 27,14 C27,15.1045695 26.1045695,16 25,16 C23.8954305,16 23,15.1045695 23,14 C23,12.8954305 23.8954305,12 25,12 Z M30,12 C31.1045695,12 32,12.8954305 32,14 C32,15.1045695 31.1045695,16 30,16 C28.8954305,16 28,15.1045695 28,14 C28,12.8954305 28.8954305,12 30,12 Z M35,12 C36.1045695,12 37,12.8954305 37,14 C37,15.1045695 36.1045695,16 35,16 C33.8954305,16 33,15.1045695 33,14 C33,12.8954305 33.8954305,12 35,12 Z" id="Shape"></path>
                        </g>
                    </g>
                </g>
            </g>
        </g>
    </g>
</svg>
