<?xml version="1.0" encoding="UTF-8"?>
<svg width="44px" height="44px" viewBox="0 0 44 44" version="1.1" xmlns="http://www.w3.org/2000/svg" xmlns:xlink="http://www.w3.org/1999/xlink">
    <g id="Symbols" stroke="none" stroke-width="1" fill="none" fill-rule="evenodd">
        <g id="Component-/-Footer-/-Footer" transform="translate(-669.000000, -57.000000)">
            <g id="Content" transform="translate(215.000000, 56.000000)">
                <g id="Phone-number" transform="translate(454.000000, 0.000000)">
                    <g id="Icon" transform="translate(0.000000, 1.000000)">
                        <rect id="Rectangle" x="0" y="0" width="44" height="44"></rect>
                        <g id="Group-19" transform="translate(3.000000, 3.000000)" fill="#E44D28">
                            <path d="M22.9939039,0 L23.1105539,0.00620598202 C30.9353549,0.876573315 37.1147544,7.0559728 37.9937655,14.8885516 C38.055359,15.437391 37.6603681,15.9322447 37.1115287,15.9938382 C36.5626893,16.0554317 36.0678357,15.6604408 36.0062422,15.1116014 C35.2314061,8.20729161 29.7850744,2.76095995 22.8894537,1.99394709 C22.3405542,1.93289196 21.9450781,1.43842599 22.0061333,0.889526444 C22.0628273,0.379834005 22.4932276,0.00243020284 22.9939039,0 Z M23.1914976,7.01858272 C27.1318364,7.78736037 30.21272,10.868244 30.9814976,14.8085827 C31.0872568,15.3506468 30.7335617,15.8758112 30.1914976,15.9815704 C29.6494336,16.0873295 29.1242691,15.7336344 29.01851,15.1915704 C28.405659,12.0504274 25.949653,9.59442135 22.80851,8.98157035 C22.2664459,8.87581124 21.9127509,8.35064678 22.01851,7.80858272 C22.1242691,7.26651865 22.6494336,6.9128236 23.1914976,7.01858272 Z" id="Shape"></path>
                            <path d="M9.53461847,2.99991063 L4.41706221,2.99991063 C3.45610547,3.00110913 2.54091255,3.40459365 1.89388841,4.11198993 C1.24682261,4.81943175 0.927519137,5.76569185 1.01235491,6.70398554 C1.57481632,11.9912047 3.37187652,17.0590565 6.26683363,21.5190649 C8.88731764,25.6348441 12.3895529,29.1295023 16.5269252,31.7534036 C20.9596671,34.6223757 26.012864,36.4158753 31.2543553,36.9844398 C32.2292162,37.0724955 33.1805698,36.7529726 33.8913073,36.1022115 C34.5461647,35.502615 34.9391695,34.6743418 34.9926993,33.7916721 L34.9989931,33.5699722 L34.9989931,28.2994653 C34.9508973,26.6147404 33.7122805,25.2250039 32.0674731,24.9933807 C30.6245832,24.8034177 29.210384,24.4731217 27.8540174,24.0114719 L27.2763431,23.805606 L27.0889363,23.7403073 C25.95158,23.3779823 24.7088469,23.6373396 23.8149643,24.4108668 L23.6515603,24.5619023 L21.4684456,26.7394266 L20.5710438,26.1951627 C17.1499149,24.0756965 14.2415845,21.2294482 12.0483682,17.8559556 L11.7537448,17.3926846 L11.2108141,16.5037563 L13.3867957,14.3328581 C14.2327923,13.4790507 14.5640699,12.2552343 14.2845941,11.1270045 L14.2250117,10.9166952 L14.1591697,10.7267207 C13.5811512,9.18076322 13.179783,7.57245167 12.9646196,5.94396787 C12.7319699,4.30100015 11.3646097,3.07367007 9.71861044,3.00296958 L9.53461847,2.99991063 Z" id="Path" opacity="0.200000003"></path>
                            <path d="M9.53461847,1.99991141 L4.41581502,1.99991141 C3.17472535,2.00145929 1.99224857,2.52279046 1.15599563,3.43707197 C0.319279589,4.3518598 -0.093766304,5.57579535 0.0179658283,6.80976997 C0.597285509,12.2554594 2.44855677,17.473286 5.42329765,22.0561375 C8.12208809,26.2949062 11.7291589,29.8948319 15.9835768,32.5929109 C20.5465209,35.5461529 25.7487118,37.3930926 31.1643951,37.9803852 C32.4211382,38.0939023 33.6497884,37.6792068 34.5666099,36.8397523 C35.48387,35.9998963 36.0039825,34.8127015 35.9989645,33.5699008 L35.9985859,28.2709287 C35.9365273,26.0971094 34.3328824,24.3025191 32.1980012,24.0019361 C30.6224808,23.7945117 29.0842899,23.4120915 27.6038559,22.8607593 L27.3924738,22.7874878 C25.8346644,22.29122 24.1186489,22.6959569 22.9453607,23.8538896 L21.3170038,25.4780765 L21.0976902,25.3450783 C17.6518447,23.2102995 14.7460711,20.3102879 12.6071561,16.8714465 L12.4750038,16.6550765 L14.0971442,15.0367082 C15.2618363,13.8612629 15.6679946,12.1464674 15.1694455,10.5879936 L15.0958401,10.3765087 C14.5443899,8.90161012 14.1613068,7.36685152 13.9547422,5.80376321 C13.6428825,3.60141596 11.7521691,1.9785584 9.53461847,1.99991141 Z M4.41692966,3.99991278 L9.54434289,3.99991278 L9.55406732,3.99991278 C10.7688045,3.98821607 11.8034794,4.8763094 11.9732417,6.07499967 C12.1983426,7.77868288 12.6181355,9.46051351 13.2233482,11.079195 C13.5560092,11.9624254 13.3437935,12.9555104 12.6803839,13.6250571 L10.5132566,15.7878695 C10.1941435,16.1063505 10.1276038,16.5989833 10.3507892,16.9907123 C12.8734997,21.4185066 16.5468236,25.0845541 20.9831637,27.6021298 C21.3740818,27.8239717 21.864979,27.7577361 22.1831231,27.4402222 L24.3541999,25.273446 C25.0218266,24.6145791 26.0190559,24.4023211 26.9036092,24.734165 C28.527412,25.3388926 30.2121947,25.757758 31.9280774,25.9836172 C33.088033,26.1469754 33.9653482,27.1287522 33.9989986,28.2997201 L33.9989986,33.5740339 C34.0017052,34.2568237 33.7175352,34.9054625 33.2160048,35.3646707 C32.7140358,35.8242805 32.040878,36.0514855 31.3620374,35.9902568 C26.274812,35.438419 21.3709491,33.6973949 17.0624826,30.9089047 C13.0481861,28.3630561 9.65142483,24.9730233 7.10561692,20.9745993 C4.2973969,16.6482173 2.55276647,11.7309589 2.00827823,6.61378552 C1.94879732,5.95550823 2.17441999,5.28694426 2.63178119,4.78690788 C3.08953703,4.28644004 3.7373464,4.00083341 4.41692966,3.99991278 Z" id="Path" fill-rule="nonzero"></path>
                        </g>
                    </g>
                </g>
            </g>
        </g>
    </g>
</svg>
