<svg xmlns="http://www.w3.org/2000/svg" width="24" height="26"><g fill="none" fill-rule="evenodd"><path fill="#FFF" d="M15 5a2 2 0 0 1 2 2v17a2 2 0 0 1-2 2H2a2 2 0 0 1-2-2V7a2 2 0 0 1 2-2h13ZM5 20H4a1 1 0 0 0-1 1v1a1 1 0 0 0 1 1h1a1 1 0 0 0 1-1v-1a1 1 0 0 0-1-1Zm4 0H8a1 1 0 0 0-1 1v1a1 1 0 0 0 1 1h1a1 1 0 0 0 1-1v-1a1 1 0 0 0-1-1Zm4-4h-1a1 1 0 0 0-1 1v5a1 1 0 0 0 1 1h1a1 1 0 0 0 1-1v-5a1 1 0 0 0-1-1Zm-8 0H4a1 1 0 0 0-1 1v1a1 1 0 0 0 1 1h1a1 1 0 0 0 1-1v-1a1 1 0 0 0-1-1Zm4 0H8a1 1 0 0 0-1 1v1a1 1 0 0 0 1 1h1a1 1 0 0 0 1-1v-1a1 1 0 0 0-1-1Zm4-8H4a1 1 0 0 0-1 1v4a1 1 0 0 0 1 1h9a1 1 0 0 0 1-1V9a1 1 0 0 0-1-1Z"/><g transform="translate(12)"><circle cx="6" cy="6" r="6" fill="#1A2633"/><path fill="#FFF" fill-rule="nonzero" d="M5.99 9.1c-.38 0-.729-.068-1.045-.205a2.282 2.282 0 0 1-.815-.592 2.682 2.682 0 0 1-.525-.95 4.115 4.115 0 0 1-.185-1.285c0-.476.062-.903.185-1.28.123-.379.298-.696.525-.954.227-.258.498-.455.815-.592a2.601 2.601 0 0 1 1.045-.206c.28 0 .523.03.727.088.204.059.382.135.533.227.152.092.282.2.391.323.11.124.209.247.298.37l-.915.664a1.432 1.432 0 0 0-.425-.492c-.16-.109-.362-.164-.609-.164-.268 0-.508.087-.718.26-.21.174-.357.412-.44.715h1.931v.756H4.764v.571h2v.756H4.83c.079.32.221.561.429.727.207.165.45.247.73.247.476 0 .849-.238 1.118-.714l.915.672a3.015 3.015 0 0 1-.298.383c-.115.126-.255.239-.42.34a2.31 2.31 0 0 1-.571.243 2.713 2.713 0 0 1-.744.093Z"/></g></g></svg>