<?xml version="1.0" encoding="UTF-8"?>
<svg width="20px" height="16px" viewBox="0 0 20 16" version="1.1" xmlns="http://www.w3.org/2000/svg" xmlns:xlink="http://www.w3.org/1999/xlink">
    <g id="Sadaļas" stroke="none" stroke-width="1" fill="none" fill-rule="evenodd">
        <g id="01.-Sākumlapa-v4" transform="translate(-905.000000, -5697.000000)" fill="#0E659B" fill-rule="nonzero">
            <g id="Component-/-Testimonials" transform="translate(0.000000, 5215.000000)">
                <g id="Cards" transform="translate(615.000000, 80.000000)">
                    <g id="Separator" transform="translate(30.000000, 402.000000)">
                        <g id="Icon" transform="translate(250.000000, 0.000000)">
                            <g transform="translate(10.000000, 0.000000)">
                                <path d="M13.3548387,16 C15.6344086,14.9417989 17.311828,13.5661376 18.3870968,11.8730159 C19.4623656,10.1798942 20,8.2962963 20,6.22222222 C20,5.71428571 19.9354839,5.05820106 19.8064516,4.25396825 C19.6774194,3.44973545 19.3763441,2.70899471 18.9032258,2.03174603 C18.516129,1.43915344 18.0215054,0.952380952 17.4193548,0.571428571 C16.8172043,0.19047619 16.0430108,0 15.0967742,0 C13.9784946,0 13.0107527,0.380952381 12.1935484,1.14285714 C11.3763441,1.9047619 10.9677419,2.87830688 10.9677419,4.06349206 C10.9677419,5.33333333 11.3763441,6.32804233 12.1935484,7.04761905 C13.0107527,7.76719577 13.9784946,8.12698413 15.0967742,8.12698413 C16,8.12698413 16.7956989,7.85185185 17.483871,7.3015873 C17.6129032,7.68253968 17.6774194,8.12698413 17.6774194,8.63492063 C17.6774194,9.86243386 17.1935484,11.0687831 16.2258065,12.2539683 C15.2580645,13.4391534 14.1075269,14.3068783 12.7741935,14.8571429 L12.7741935,14.8571429 L13.3548387,16 Z M2.38709677,16 C4.66666667,14.9417989 6.34408602,13.5661376 7.41935484,11.8730159 C8.49462366,10.1798942 9.03225806,8.2962963 9.03225806,6.22222222 C9.03225806,5.71428571 8.96774194,5.05820106 8.83870968,4.25396825 C8.70967742,3.44973545 8.40860215,2.70899471 7.93548387,2.03174603 C7.5483871,1.43915344 7.05376344,0.952380952 6.4516129,0.571428571 C5.84946237,0.19047619 5.07526882,0 4.12903226,0 C3.01075269,0 2.04301075,0.380952381 1.22580645,1.14285714 C0.408602151,1.9047619 0,2.87830688 0,4.06349206 C0,5.33333333 0.408602151,6.32804233 1.22580645,7.04761905 C2.04301075,7.76719577 3.01075269,8.12698413 4.12903226,8.12698413 C5.03225806,8.12698413 5.82795699,7.85185185 6.51612903,7.3015873 C6.64516129,7.68253968 6.70967742,8.12698413 6.70967742,8.63492063 C6.70967742,9.86243386 6.22580645,11.0687831 5.25806452,12.2539683 C4.29032258,13.4391534 3.13978495,14.3068783 1.80645161,14.8571429 L1.80645161,14.8571429 L2.38709677,16 Z"></path>
                            </g>
                        </g>
                    </g>
                </g>
            </g>
        </g>
    </g>
</svg>
