<?xml version="1.0" encoding="UTF-8"?>
<svg width="246px" height="40px" viewBox="0 0 246 40" version="1.1" xmlns="http://www.w3.org/2000/svg" xmlns:xlink="http://www.w3.org/1999/xlink">
    <g id="Sadaļas" stroke="none" stroke-width="1" fill="none" fill-rule="evenodd">
        <g id="01.-Sākumlapa-v4" transform="translate(-215.000000, -17.000000)">
            <g id="Logotype" transform="translate(215.000000, 17.000000)">
                <polygon id="Path" fill="#667380" opacity="0.300000012" points="124 0 124 40 123 40 123 0"></polygon>
                <path d="M52.6229555,25.8352941 L52.6229555,31.2 C52.6229555,31.7882353 52.6933384,32.2823529 52.8106433,32.6588235 C52.9279481,33.0352941 53.1156359,33.3647059 53.3267846,33.6 C53.5379333,33.8352941 53.796004,34 54.0775356,34.0941176 C54.3590673,34.1882353 54.6640599,34.2352941 54.9690525,34.2352941 C55.2975061,34.2352941 55.6024987,34.1882353 55.8840303,34.0941176 C56.165562,34 56.4236326,33.8352941 56.6347814,33.6 C56.8107386,33.4039216 56.9704036,33.1588235 57.0866223,32.8510893 L57.1509227,32.6588235 C57.2916885,32.2588235 57.3620714,31.7882353 57.3620714,31.2 L57.3620714,25.8352941 L57.9485957,25.8352941 L57.9485957,31.2705882 C57.9485957,31.9529412 57.8547518,32.5411765 57.690525,32.9882353 C57.5262982,33.4352941 57.2916885,33.8117647 57.0101569,34.0941176 C56.7286252,34.3764706 56.4236326,34.5647059 56.0717181,34.6588235 C55.7198035,34.7764706 55.344428,34.8235294 54.9690525,34.8235294 C54.593677,34.8235294 54.2183015,34.7764706 53.8663869,34.6588235 C53.5144724,34.5411765 53.1860188,34.3529412 52.9279481,34.0941176 C52.6464165,33.8117647 52.4352678,33.4588235 52.271041,32.9882353 C52.1068142,32.5411765 52.0129703,31.9529412 52.0129703,31.2705882 L52.0129703,25.8352941 L52.6229555,25.8352941 Z M70.2656049,25.6470588 C70.8052072,25.6470588 71.2978876,25.7411765 71.743646,25.9529412 C72.1894044,26.1647059 72.5647799,26.4705882 72.8932335,26.8705882 C73.2216871,27.2705882 73.4562968,27.7411765 73.6439846,28.3058824 C73.8316723,28.8705882 73.9020552,29.4823529 73.9020552,30.1882353 C73.9020552,30.8941176 73.8082113,31.5294118 73.6439846,32.0941176 C73.4562968,32.6588235 73.2216871,33.1529412 72.8932335,33.5529412 C72.5647799,33.9529412 72.1894044,34.2588235 71.743646,34.4705882 C71.2978876,34.7058824 70.8052072,34.8 70.2656049,34.8 C69.7494635,34.8 69.2567832,34.6823529 68.8110247,34.4705882 C68.3652663,34.2588235 67.9898908,33.9529412 67.6614372,33.5529412 C67.3329836,33.1529412 67.0983739,32.6588235 66.9106862,32.0941176 C66.7229984,31.5294118 66.6526155,30.8941176 66.6526155,30.1882353 C66.6526155,29.5058824 66.7464594,28.8705882 66.9106862,28.3058824 C67.0983739,27.7411765 67.3329836,27.2705882 67.6614372,26.8705882 C67.9898908,26.4705882 68.3652663,26.1647059 68.8110247,25.9529412 C69.2567832,25.7411765 69.7494635,25.6470588 70.2656049,25.6470588 Z M93.1165896,25.6470588 C93.6561919,25.6470588 94.1488723,25.7411765 94.5946307,25.9529412 C95.0403891,26.1647059 95.4157646,26.4705882 95.7442182,26.8705882 C96.0726718,27.2705882 96.3072815,27.7411765 96.4949692,28.3058824 C96.682657,28.8705882 96.7530399,29.4823529 96.7530399,30.1882353 C96.7530399,30.8941176 96.659196,31.5294118 96.4949692,32.0941176 C96.3307425,32.6588235 96.0726718,33.1529412 95.7442182,33.5529412 C95.4157646,33.9529412 95.0403891,34.2588235 94.5946307,34.4705882 C94.1488723,34.7058824 93.6561919,34.8 93.1165896,34.8 C92.6004482,34.8 92.1077679,34.6823529 91.6620094,34.4705882 C91.216251,34.2588235 90.8408755,33.9529412 90.5124219,33.5529412 C90.1839683,33.1529412 89.9493586,32.6588235 89.7616709,32.0941176 C89.5739831,31.5294118 89.5036002,30.8941176 89.5036002,30.1882353 C89.5036002,29.5058824 89.5974441,28.8705882 89.7616709,28.3058824 C89.9493586,27.7411765 90.1839683,27.2705882 90.5124219,26.8705882 C90.8408755,26.4705882 91.216251,26.1647059 91.6620094,25.9529412 C92.1077679,25.7411765 92.6004482,25.6470588 93.1165896,25.6470588 Z M78.2892566,25.6705882 C78.8288589,25.6705882 79.2980783,25.7647059 79.7203758,25.9764706 C80.1426732,26.1882353 80.4711268,26.4235294 80.7291975,26.7058824 L80.3772829,27.1294118 C80.1192122,26.8470588 79.8142196,26.6352941 79.4623051,26.4705882 C79.1103905,26.3058824 78.7115541,26.2117647 78.2657956,26.2117647 C77.6792714,26.2117647 77.210052,26.3529412 76.8581374,26.6352941 C76.5062229,26.9176471 76.3185351,27.2941176 76.3185351,27.7882353 C76.3185351,28.0470588 76.3654571,28.2588235 76.4593009,28.4470588 C76.5531448,28.6352941 76.6939106,28.7764706 76.8346765,28.9176471 C76.9989032,29.0352941 77.16313,29.1529412 77.3273568,29.2470588 L77.6784024,29.4178649 C77.7340136,29.4457516 77.7887559,29.4745098 77.8434982,29.5058824 L79.1807734,30.0941176 C79.3098088,30.1411765 79.4329789,30.2 79.5502837,30.2617647 L79.8846025,30.4470588 L79.8846025,30.4470588 C80.1192122,30.5882353 80.3069,30.7294118 80.4711268,30.9176471 C80.6353536,31.1058824 80.7761194,31.3176471 80.8699633,31.5529412 C80.9638072,31.8117647 81.0341901,32.0941176 81.0341901,32.4235294 C81.0341901,32.7529412 80.9638072,33.0823529 80.8230413,33.3647059 C80.6822755,33.6470588 80.4945878,33.9058824 80.2599781,34.1176471 C80.0253684,34.3294118 79.7203758,34.4941176 79.3684612,34.6117647 C79.0165467,34.7294118 78.6411711,34.8 78.1954127,34.8 C77.5619665,34.8 76.9754423,34.6823529 76.4827619,34.4235294 C75.9900815,34.1882353 75.5677841,33.8588235 75.2158695,33.4588235 L75.638167,33.0588235 C75.9666206,33.4117647 76.3419961,33.7176471 76.7877545,33.9294118 C77.2335129,34.1411765 77.7027323,34.2588235 78.2188737,34.2588235 C78.8992418,34.2588235 79.4153831,34.0941176 79.8142196,33.7647059 C80.2130561,33.4352941 80.4007439,33.0117647 80.4007439,32.4941176 C80.4007439,32.2117647 80.3538219,32 80.283439,31.7882353 C80.1895952,31.6 80.0957513,31.4352941 79.9549855,31.2941176 C79.8142196,31.1529412 79.6499928,31.0352941 79.4623051,30.9176471 L79.0625997,30.7119826 C78.9930857,30.6771242 78.9227028,30.6431373 78.8523199,30.6117647 L77.5150446,30.0235294 L77.1153392,29.8283224 C77.0458252,29.7934641 76.9754423,29.7568627 76.9050594,29.7176471 C76.6939106,29.6 76.5062229,29.4588235 76.3419961,29.2941176 C76.1777693,29.1294118 76.0135425,28.9176471 75.8962377,28.6823529 C75.7789328,28.4470588 75.7320109,28.1647059 75.7320109,27.8352941 C75.7320109,27.5058824 75.8023938,27.2235294 75.9196986,26.9647059 C76.0370035,26.7058824 76.2246912,26.4705882 76.4593009,26.2823529 C76.6469887,26.1317647 76.8496915,25.9962353 77.0914333,25.8998588 L77.2804349,25.8352941 C77.5854275,25.7176471 77.937342,25.6705882 78.2892566,25.6705882 Z M99.3806685,25.8352941 L99.3806685,34.1176471 L103.439416,34.1176471 L103.439416,34.6588235 L98.7706833,34.6588235 L98.7706833,25.8352941 L99.3806685,25.8352941 Z M83.4975919,25.8352941 L83.4975919,30.7294118 L83.5210529,30.7294118 L87.7674884,25.8352941 L88.5182395,25.8352941 L85.7029231,29.0823529 L88.893615,34.6588235 L88.1897859,34.6588235 L85.2806256,29.5529412 L83.4975919,31.6 L83.4975919,34.6588235 L82.8876067,34.6588235 L82.8876067,25.8352941 L83.4975919,25.8352941 Z M65.8314816,25.8352941 L65.8314816,26.3529412 L63.0161652,26.3529412 L63.0161652,34.6588235 L62.40618,34.6588235 L62.40618,26.3529412 L59.5908636,26.3529412 L59.5908636,25.8352941 L65.8314816,25.8352941 Z M47.7665347,25.8117647 L50.8633828,34.6352941 L50.2299366,34.6352941 L49.1976539,31.6235294 L45.7019694,31.6235294 L44.6696867,34.6352941 L44.0597015,34.6352941 L47.1565495,25.8117647 L47.7665347,25.8117647 Z M107.662391,25.8117647 L110.759239,34.6352941 L110.125793,34.6352941 L109.070049,31.6235294 L105.597826,31.6235294 L104.565543,34.6352941 L103.955558,34.6352941 L107.052406,25.8117647 L107.662391,25.8117647 Z M70.2656049,26.2352941 C69.8198465,26.2352941 69.42101,26.3294118 69.0456344,26.5176471 C68.6702589,26.7058824 68.3652663,26.9647059 68.1071957,27.3176471 C67.849125,27.6705882 67.6614372,28.0705882 67.4972104,28.5647059 C67.3564446,29.0588235 67.2860617,29.6 67.2860617,30.2117647 C67.2860617,30.8235294 67.3564446,31.3882353 67.4972104,31.8823529 C67.6379763,32.3764706 67.849125,32.8 68.1071957,33.1529412 C68.3652663,33.5058824 68.6702589,33.7882353 69.0456344,33.9764706 C69.42101,34.1411765 69.8198465,34.2588235 70.2656049,34.2588235 C70.7113633,34.2588235 71.1101998,34.1647059 71.4855753,33.9764706 C71.8609508,33.7882353 72.1659434,33.5058824 72.4240141,33.1529412 C72.6820848,32.8 72.8932335,32.3764706 73.0339993,31.8823529 C73.1747652,31.3882353 73.2451481,30.8235294 73.2451481,30.2117647 C73.2451481,29.6 73.1747652,29.0588235 73.0339993,28.5647059 C72.8932335,28.0705882 72.6820848,27.6470588 72.4240141,27.3176471 C72.1659434,26.9882353 71.8374899,26.7058824 71.4855753,26.5176471 C71.1101998,26.3294118 70.7113633,26.2352941 70.2656049,26.2352941 Z M93.1165896,26.2352941 C92.6708311,26.2352941 92.2719947,26.3294118 91.8966191,26.5176471 C91.5212436,26.7058824 91.216251,26.9647059 90.9581803,27.3176471 C90.7001097,27.6705882 90.5124219,28.0705882 90.3716561,28.5647059 C90.2308903,29.0588235 90.1605074,29.6 90.1605074,30.2117647 C90.1605074,30.8235294 90.2308903,31.3882353 90.3716561,31.8823529 C90.5124219,32.3764706 90.7235706,32.8 90.9581803,33.1529412 C91.216251,33.5058824 91.5212436,33.7882353 91.8966191,33.9764706 C92.2719947,34.1411765 92.6708311,34.2588235 93.1165896,34.2588235 C93.562348,34.2588235 93.9611845,34.1647059 94.33656,33.9764706 C94.6884746,33.7882353 95.0169281,33.5058824 95.2749988,33.1529412 C95.5330695,32.8 95.7442182,32.3764706 95.884984,31.8823529 C96.0257498,31.3882353 96.0961328,30.8235294 96.0961328,30.2117647 C96.0961328,29.6 96.0257498,29.0588235 95.884984,28.5647059 C95.7442182,28.0705882 95.5330695,27.6470588 95.2749988,27.3176471 C95.0169281,26.9882353 94.6884746,26.7058824 94.33656,26.5176471 C93.9611845,26.3294118 93.562348,26.2352941 93.1165896,26.2352941 Z M107.333937,26.4235294 L107.287015,26.4235294 C107.181441,26.8294118 107.06267,27.2220588 106.9406,27.5915441 L106.482391,28.9481481 C106.424173,29.1163399 106.364217,29.2862745 106.301655,29.4588235 L105.738591,31.1058824 L108.882361,31.1058824 L108.319298,29.4588235 L108.182565,29.0713235 L108.182565,29.0713235 L107.803157,27.9529412 L107.803157,27.9529412 C107.63893,27.4588235 107.474703,26.9647059 107.333937,26.4235294 Z M47.4850031,26.4235294 L47.4380812,26.4235294 L47.2034715,27.2147059 C47.1653474,27.3426471 47.1272233,27.4683824 47.0883661,27.5915441 L46.9688618,27.9529412 C46.804635,28.4470588 46.6404082,28.9411765 46.4527204,29.4588235 L45.8896571,31.1058824 L49.0334271,31.1058824 L48.4703638,29.4588235 L48.3336304,29.0713235 L48.3336304,29.0713235 L47.9542225,27.9529412 L47.9542225,27.9529412 C47.8721091,27.7058824 47.795861,27.4588235 47.7196128,27.2058824 L47.4850031,26.4235294 L47.4850031,26.4235294 Z M167.159411,22.9411765 C168.027467,22.9411765 168.778218,23.1058824 169.458586,23.4117647 L169.247437,23.9058824 C168.567069,23.6 167.86324,23.4352941 167.13595,23.4352941 C166.103667,23.4352941 165.282533,23.7647059 164.672548,24.4 C164.062563,25.0352941 163.75757,25.9058824 163.75757,26.9882353 C163.75757,28.1647059 164.039102,29.0588235 164.625626,29.6705882 C165.21215,30.2588235 166.056745,30.5647059 167.159411,30.5647059 C167.886701,30.5647059 168.496686,30.4705882 169.012827,30.2588235 L169.012827,27.4823529 L166.66673,27.4823529 L166.643269,26.9882353 L169.55243,26.9882353 L169.55243,30.5882353 C168.801679,30.9176471 167.933623,31.0823529 166.995184,31.0823529 C165.751752,31.0823529 164.813314,30.7294118 164.132945,30.0235294 C163.476038,29.3176471 163.147585,28.3294118 163.147585,27.0352941 C163.147585,26.2352941 163.311812,25.5294118 163.640265,24.8941176 C163.968719,24.2823529 164.437938,23.7882353 165.047923,23.4588235 C165.657909,23.1294118 166.361738,22.9411765 167.159411,22.9411765 Z M196.110247,22.9647059 C196.884459,22.9647059 197.564828,23.1058824 198.174813,23.3882353 L197.963664,23.8823529 C197.330218,23.6 196.743694,23.4588235 196.110247,23.4588235 C195.124887,23.4588235 194.350675,23.7647059 193.787611,24.4 C193.224548,25.0352941 192.943017,25.9058824 192.943017,27.0117647 C192.943017,28.1411765 193.201087,29.0117647 193.74069,29.6235294 C194.280292,30.2352941 195.031043,30.5647059 196.039865,30.5647059 C196.696772,30.5647059 197.306757,30.4705882 197.86982,30.3058824 L197.86982,30.8 C197.353679,30.9882353 196.696772,31.0823529 195.92256,31.0823529 C194.819894,31.0823529 193.951838,30.7294118 193.318392,30 C192.684946,29.2941176 192.356492,28.2823529 192.356492,26.9882353 C192.356492,26.1882353 192.497258,25.4823529 192.802251,24.8705882 C193.107243,24.2588235 193.529541,23.7882353 194.116065,23.4588235 C194.679128,23.1294118 195.336035,22.9647059 196.110247,22.9647059 Z M245.48798,30.0235294 C245.83831,30.0235294 246,30.1882353 246,30.5411765 C246,30.8941176 245.83831,31.0588235 245.48798,31.0588235 C245.164599,31.0823529 245.002909,30.8941176 245.002909,30.5411765 C245.002909,30.1882353 245.164599,30.0235294 245.48798,30.0235294 Z M137.317057,23.0823529 C139.193934,23.0823529 140.132373,23.8352941 140.132373,25.3411765 C140.132373,26.0941176 139.874303,26.6823529 139.358161,27.1058824 C138.84202,27.5058824 138.11473,27.7176471 137.15283,27.7176471 L135.93286,27.7176471 L135.93286,30.9882353 L135.393257,30.9882353 L135.393257,23.0823529 L137.317057,23.0823529 Z M178.608364,23.0823529 L178.608364,23.5764706 L174.854609,23.5764706 L174.854609,26.5647059 L178.397215,26.5647059 L178.397215,27.0823529 L174.854609,27.0823529 L174.854609,30.4705882 L178.608364,30.4705882 L178.608364,30.9647059 L174.291545,30.9647059 L174.291545,23.0823529 L178.608364,23.0823529 Z M221.025798,23.0823529 L221.025798,27.1764706 L221.893853,26.3058824 L224.96724,23.0823529 L225.67107,23.0823529 L222.456917,26.4235294 L225.764913,30.9647059 L225.084545,30.9647059 L222.05808,26.8 L221.025798,27.7411765 L221.025798,30.9647059 L220.462734,30.9647059 L220.462734,23.0823529 L221.025798,23.0823529 Z M202.913929,23.0823529 L202.913929,30.4470588 L206.667684,30.4470588 L206.667684,30.9647059 L202.374326,30.9647059 L202.374326,23.0823529 L202.913929,23.0823529 Z M218.679701,23.0823529 L218.679701,23.6 L214.925945,23.6 L214.925945,26.5882353 L218.468552,26.5882353 L218.468552,27.1058824 L214.925945,27.1058824 L214.925945,30.4941176 L218.679701,30.4941176 L218.679701,30.9647059 L214.386343,30.9647059 L214.386343,23.0823529 L218.679701,23.0823529 Z M200.145534,23.0823529 L200.145534,30.9647059 L199.605932,30.9647059 L199.605932,23.0823529 L200.145534,23.0823529 Z M207.488818,23.0823529 L209.459539,28.4470588 L209.556923,28.7067215 L209.556923,28.7067215 L209.727168,29.1834423 L209.727168,29.1834423 L209.86729,29.6020657 L209.86729,29.6020657 L210.027752,30.1176793 C210.042588,30.1673203 210.056491,30.2143791 210.069525,30.2588235 L210.135509,30.0341912 L210.135509,30.0341912 L210.227886,29.75 L210.227886,29.75 L210.41594,29.2168658 L210.41594,29.2168658 L212.673692,23.0823529 L213.260216,23.0823529 L210.327595,30.9647059 L209.834915,30.9647059 L206.902294,23.0823529 L207.488818,23.0823529 Z M143.721902,23.0823529 C144.707262,23.0823529 145.411092,23.2705882 145.880311,23.6235294 C146.34953,23.9764706 146.58414,24.5411765 146.58414,25.2470588 C146.58414,25.7647059 146.443374,26.2117647 146.161843,26.5882353 C145.880311,26.9411765 145.458013,27.2235294 144.89495,27.3647059 L147.029898,30.9647059 L146.372991,30.9647059 L144.355348,27.5294118 L142.384626,27.5294118 L142.384626,30.9647059 L141.845024,30.9647059 L141.845024,23.0823529 L143.721902,23.0823529 Z M159.604978,23.0823529 L159.604978,23.6 L157.047733,23.6 L157.047733,30.9647059 L156.50813,30.9647059 L156.50813,23.6 L153.950885,23.6 L153.950885,23.0823529 L159.604978,23.0823529 Z M172.062753,23.0823529 L172.062753,30.9647059 L171.523151,30.9647059 L171.523151,23.0823529 L172.062753,23.0823529 Z M161.317629,23.0823529 L161.317629,30.9647059 L160.778027,30.9647059 L160.778027,23.0823529 L161.317629,23.0823529 Z M236.55696,23.0823529 L239.348815,30.0235294 L239.372276,30.0235294 L242.164131,23.0823529 L242.985265,23.0823529 L242.985265,30.9647059 L242.422202,30.9647059 L242.422202,24.9882353 C242.422202,24.5647059 242.445663,24.1411765 242.492585,23.6941176 L242.445663,23.6941176 L239.513042,30.9647059 L239.184588,30.9647059 L236.251967,23.6705882 L236.205045,23.6705882 C236.228506,24.1176471 236.251967,24.5647059 236.251967,25.0352941 L236.251967,30.9411765 L235.712365,30.9411765 L235.712365,23.0823529 L236.55696,23.0823529 Z M227.407181,23.0823529 L227.407181,30.9647059 L226.867579,30.9647059 L226.867579,23.0823529 L227.407181,23.0823529 Z M233.952792,23.0823529 L233.952792,23.5764706 L230.199037,23.5764706 L230.199037,26.5647059 L233.741643,26.5647059 L233.741643,27.0823529 L230.199037,27.0823529 L230.199037,30.4705882 L233.952792,30.4705882 L233.952792,30.9647059 L229.635973,30.9647059 L229.635973,23.0823529 L233.952792,23.0823529 Z M150.783654,23.0352941 L153.880502,30.9647059 L153.270516,30.9647059 L152.167851,28.1882353 L148.977159,28.1882353 L147.874493,30.9647059 L147.264508,30.9647059 L150.431739,23.0352941 L150.783654,23.0352941 Z M181.235993,23.0823529 L184.027848,30.0235294 L184.051309,30.0235294 L186.843164,23.0823529 L187.664298,23.0823529 L187.664298,30.9647059 L187.101235,30.9647059 L187.101235,24.9882353 C187.101235,24.5647059 187.124696,24.1411765 187.171618,23.6941176 L187.124696,23.6941176 L184.192075,30.9647059 L183.84016,30.9647059 L180.907539,23.6705882 L180.860617,23.6705882 C180.884078,24.1176471 180.907539,24.5647059 180.907539,25.0352941 L180.907539,30.9411765 L180.391398,30.9411765 L180.391398,23.0823529 L181.235993,23.0823529 Z M245.865258,23.0823529 L245.703567,28.9411765 L245.32629,28.9411765 L245.137651,23.0823529 L245.865258,23.0823529 Z M150.595966,23.9294118 C150.502122,24.2823529 150.384817,24.5882353 150.267512,24.8705882 L149.188308,27.6941176 L152.003624,27.6941176 L150.924419,24.8470588 C150.893138,24.7764706 150.861857,24.6928105 150.828838,24.5986928 L150.662656,24.1133987 C150.641584,24.0535948 150.619427,23.9921569 150.595966,23.9294118 Z M137.246674,23.5529412 L135.956321,23.5529412 L135.956321,27.2235294 L137.035525,27.2235294 C137.927042,27.2235294 138.560488,27.0823529 138.959325,26.7764706 C139.358161,26.4941176 139.545849,26 139.545849,25.3411765 C139.545849,24.7294118 139.358161,24.2823529 138.982786,24 C138.60741,23.7176471 138.020886,23.5529412 137.246674,23.5529412 Z M143.67498,23.5764706 L142.384626,23.5764706 L142.384626,27.0588235 L143.886128,27.0588235 C144.543036,27.0588235 145.059177,26.9176471 145.434552,26.6117647 C145.809928,26.3058824 145.974155,25.8823529 145.974155,25.2941176 C145.974155,24.6823529 145.786467,24.2588235 145.434552,23.9764706 C145.082638,23.6941176 144.496114,23.5764706 143.67498,23.5764706 Z M152.097468,21.9529412 L152.097468,22.4 L149.117925,22.4 L149.117925,21.9529412 L152.097468,21.9529412 Z M162.561061,21.9529412 L162.561061,22.4 L159.581517,22.4 L159.581517,21.9529412 L162.561061,21.9529412 Z M217.975871,21.9529412 L217.975871,22.4 L214.996328,22.4 L214.996328,21.9529412 L217.975871,21.9529412 Z M23.6017357,5.52941176 L30.2646512,16.2117647 L30.2646512,5.52941176 L33.4553431,5.52941176 L33.4553431,20.1882353 C33.4553431,20.6823529 33.2911163,21.1294118 33.0095847,21.4823529 C32.7045921,21.8352941 32.3526775,22.0235294 31.93038,22.0235294 C30.8746364,22.0235294 30.0300415,21.4117647 29.3496734,20.1882353 L23.7425015,11.3647059 L23.7425015,21.8352941 L20.5518096,21.8352941 L20.5518096,5.52941176 L23.6017357,5.52941176 Z M86.8759716,5.52941176 L93.538887,16.2117647 L93.538887,5.52941176 L96.7295789,5.52941176 L96.7295789,20.1882353 C96.7295789,20.6823529 96.5653522,21.1294118 96.2603595,21.4823529 C95.9553669,21.8352941 95.6034524,22.0235294 95.1811549,22.0235294 C94.1254113,22.0235294 93.2808164,21.4117647 92.6004482,20.1882353 L86.9932764,11.3647059 L86.9932764,21.8352941 L83.8260455,21.8352941 L83.8260455,5.52941176 L86.8759716,5.52941176 Z M104.870536,5.34117647 C106.559725,5.34117647 107.943923,5.76470588 108.976205,6.63529412 C110.008488,7.50588235 110.524629,8.61176471 110.524629,9.97647059 L107.685852,10.1176471 C107.427781,8.8 106.536264,8.11764706 105.011301,8.11764706 C104.072863,8.11764706 103.345572,8.30588235 102.829431,8.70588235 C102.31329,9.10588235 102.031758,9.57647059 102.031758,10.1176471 C102.031758,10.6588235 102.219446,11.0823529 102.594821,11.3882353 C102.970197,11.6941176 103.439416,11.9058824 104.00248,11.9764706 L106.606647,12.2588235 C109.515808,12.6823529 110.970388,14.2588235 110.970388,17.0117647 C110.970388,18.5647059 110.407324,19.7647059 109.281198,20.6352941 C108.155071,21.5058824 106.723952,21.9529412 104.964379,21.9529412 C103.580182,21.9529412 102.242907,21.5764706 100.952554,20.8 C100.319107,20.4 99.779505,19.8352941 99.3806685,19.1058824 C98.9818321,18.3764706 98.7706833,17.5529412 98.7706833,16.6117647 L101.656383,16.4705882 C101.656383,17.2941176 102.008297,17.9294118 102.712126,18.4 C103.415955,18.8705882 104.190167,19.0823529 105.034762,19.0823529 C106.935101,19.0823529 107.897001,18.4 107.897001,17.0588235 C107.897001,15.9529412 107.263554,15.3176471 105.94974,15.1058824 L103.298651,14.8235294 C101.961375,14.6352941 100.929093,14.1647059 100.154881,13.4117647 C99.3806685,12.6588235 98.9818321,11.5764706 98.9818321,10.1882353 C98.9818321,8.77647059 99.5448953,7.62352941 100.647561,6.70588235 C101.750227,5.78823529 103.157885,5.34117647 104.870536,5.34117647 Z M41.4086119,5.36470588 C43.0743408,5.36470588 44.481999,5.81176471 45.6550474,6.68235294 C46.8280959,7.55294118 47.4146202,8.65882353 47.4146202,10 L44.5758428,10.1411765 C44.481999,9.64705882 44.2473893,9.24705882 43.8485528,8.91764706 C43.2151066,8.4 42.4643555,8.14117647 41.5728387,8.14117647 C40.6813218,8.14117647 39.9774927,8.32941176 39.4848124,8.72941176 C38.992132,9.12941176 38.7340613,9.6 38.7340613,10.1411765 C38.7340613,10.6823529 38.9217491,11.1058824 39.2971246,11.4117647 C39.6725001,11.7176471 40.1417195,11.9294118 40.7047828,12 L43.3089505,12.2823529 C46.2415717,12.6823529 47.6961518,14.2588235 47.6961518,17.0117647 C47.6961518,18.5176471 47.0627056,19.7176471 45.7958133,20.6117647 C44.5289209,21.5058824 43.0039578,21.9529412 41.1974632,21.9529412 C39.8367269,21.9529412 38.5932955,21.5764706 37.420247,20.8 C36.8337228,20.4 36.3645034,19.8352941 35.9891278,19.1294118 C35.6372133,18.4235294 35.4495255,17.5764706 35.4495255,16.6352941 L38.3352248,16.4941176 C38.3352248,17.3411765 38.6167565,17.9764706 39.1798198,18.4235294 C39.742883,18.8705882 40.4701731,19.1058824 41.36169,19.1058824 C42.2532068,19.1058824 43.0039578,18.9176471 43.637404,18.5647059 C44.2708502,18.2117647 44.5758428,17.7176471 44.5758428,17.0823529 C44.5758428,15.9764706 43.9189357,15.3411765 42.6285823,15.1294118 L39.9774927,14.8470588 C38.6636784,14.6588235 37.6079348,14.1882353 36.8337228,13.4352941 C36.0595108,12.6823529 35.6606743,11.6 35.6606743,10.2117647 C35.6606743,8.8 36.2002766,7.64705882 37.2794812,6.72941176 C38.3586858,5.81176471 39.742883,5.36470588 41.4086119,5.36470588 Z M16.9857422,5.52941176 L16.9857422,21.8352941 L13.8185113,21.8352941 L13.8185113,5.52941176 L16.9857422,5.52941176 Z M80.2599781,5.52941176 L80.2599781,21.8352941 L77.0927471,21.8352941 L77.0927471,5.52941176 L80.2599781,5.52941176 Z M74.0193601,5.52941176 L74.0193601,8.37647059 L66.4883887,8.37647059 L66.4883887,12.2117647 L71.767107,12.2117647 L71.5324973,15.0588235 L66.4883887,15.0588235 L66.4883887,17.3176471 C66.4883887,17.9529412 66.6291545,18.4 66.9106862,18.6352941 C67.1922178,18.8705882 67.7318201,19.0117647 68.4825712,19.0117647 L74.0193601,19.0117647 L73.9958991,21.8352941 L68.2479615,21.8352941 C66.4180058,21.8352941 65.1511134,21.5294118 64.4003624,20.8941176 C63.6730723,20.2588235 63.2976968,19.1529412 63.2976968,17.5294118 L63.2976968,5.52941176 L74.0193601,5.52941176 Z M10.6982023,5.52941176 L10.6982023,8.37647059 L3.16723094,8.37647059 L3.16723094,12.2117647 L8.44594917,12.2117647 L8.21133947,15.0588235 L3.16723094,15.0588235 L3.16723094,17.3176471 C3.16723094,17.9529412 3.30799676,18.4 3.5895284,18.6352941 C3.87106004,18.8705882 4.41066234,19.0117647 5.16141338,19.0117647 L10.6982023,19.0117647 L10.6982023,21.8352941 L4.95026465,21.8352941 C3.120309,21.8352941 1.82995565,21.5294118 1.10266559,20.8941176 C0.375375519,20.2352941 0,19.1294118 0,17.5294118 L0,5.52941176 L10.6982023,5.52941176 Z M60.810834,5.52941176 L60.810834,8.35294118 L56.4470936,8.35294118 L56.4470936,21.8352941 L53.2798627,21.8352941 L53.2798627,8.35294118 L48.9395832,8.35294118 L48.9395832,5.52941176 L60.810834,5.52941176 Z M211.758714,10.3294118 C212.509465,10.3294118 213.189834,10.4705882 213.846741,10.7529412 L213.659053,11.2235294 C213.002146,10.9411765 212.392161,10.8235294 211.782175,10.8235294 C211.195651,10.8235294 210.749893,10.9647059 210.397978,11.2235294 C210.046064,11.4823529 209.881837,11.8588235 209.881837,12.3294118 C209.881837,12.6117647 209.928759,12.8705882 210.046064,13.0588235 C210.163368,13.2470588 210.327595,13.4117647 210.562205,13.5529412 C210.738162,13.6588235 211.019694,13.7911765 211.396902,13.9400735 L211.805636,14.0941176 L211.805636,14.0941176 C212.415622,14.3058824 212.884841,14.5176471 213.189834,14.7058824 C213.494826,14.8941176 213.729436,15.1294118 213.870202,15.3882353 C214.010968,15.6470588 214.08135,15.9529412 214.08135,16.3058824 C214.08135,16.9647059 213.846741,17.4823529 213.35406,17.8823529 C212.86138,18.2588235 212.227934,18.4705882 211.430261,18.4705882 C210.468361,18.4705882 209.741071,18.3529412 209.22493,18.1411765 L209.22493,17.6 C209.787993,17.8352941 210.515283,17.9529412 211.383339,17.9529412 C212.040246,17.9529412 212.532926,17.8117647 212.908302,17.5058824 C213.283677,17.2 213.471365,16.8235294 213.471365,16.3294118 C213.471365,16.0235294 213.400982,15.7882353 213.283677,15.5764706 C213.166373,15.3882353 212.955224,15.2 212.673692,15.0352941 C212.472598,14.9176471 212.199685,14.8 211.863502,14.6737781 L211.430261,14.5176471 C210.632588,14.2352941 210.069525,13.9294118 209.764532,13.6235294 C209.459539,13.2941176 209.295313,12.8705882 209.295313,12.3294118 C209.295313,11.7411765 209.529922,11.2470588 209.975681,10.8941176 C210.4449,10.5176471 211.031424,10.3294118 211.758714,10.3294118 Z M188.086596,10.4470588 L188.086596,15.5529412 C188.086596,16.3058824 188.297745,16.8941176 188.720042,17.3176471 C189.142339,17.7411765 189.728864,17.9529412 190.503076,17.9529412 C191.253827,17.9529412 191.840351,17.7411765 192.239187,17.3411765 C192.661485,16.9176471 192.849173,16.3529412 192.849173,15.6 L192.849173,10.4470588 L193.388775,10.4470588 L193.388775,15.5529412 C193.388775,16.4705882 193.130704,17.1764706 192.614563,17.6705882 C192.098422,18.1882353 191.371132,18.4470588 190.432693,18.4470588 C189.517715,18.4470588 188.813886,18.1882353 188.297745,17.6705882 C187.781603,17.1529412 187.523532,16.4470588 187.523532,15.5294118 L187.523532,10.4470588 L188.086596,10.4470588 Z M167.159411,10.3058824 C168.027467,10.3058824 168.778218,10.4705882 169.458586,10.7764706 L169.247437,11.2705882 C168.567069,10.9647059 167.86324,10.8 167.13595,10.8 C166.103667,10.8 165.282533,11.1294118 164.672548,11.7647059 C164.062563,12.4 163.75757,13.2705882 163.75757,14.3529412 C163.75757,15.5294118 164.039102,16.4235294 164.625626,17.0352941 C165.21215,17.6235294 166.056745,17.9294118 167.159411,17.9294118 C167.886701,17.9294118 168.496686,17.8352941 169.012827,17.6235294 L169.012827,14.8705882 L166.66673,14.8705882 L166.643269,14.3529412 L169.55243,14.3529412 L169.55243,17.9529412 C168.801679,18.2823529 167.933623,18.4470588 166.995184,18.4470588 C165.751752,18.4470588 164.813314,18.0941176 164.132945,17.3882353 C163.452577,16.6823529 163.147585,15.6941176 163.147585,14.4 C163.147585,13.6 163.311812,12.8941176 163.640265,12.2588235 C163.968719,11.6470588 164.437938,11.1529412 165.047923,10.8235294 C165.657909,10.4941176 166.361738,10.3058824 167.159411,10.3058824 Z M204.415431,10.3058824 C205.518096,10.3058824 206.362691,10.6588235 206.996138,11.3882353 C207.606123,12.1411765 207.934576,13.1294118 207.934576,14.3764706 C207.934576,15.6235294 207.629584,16.6117647 206.996138,17.3411765 C206.362691,18.0705882 205.518096,18.4235294 204.415431,18.4235294 C203.312765,18.4235294 202.46817,18.0705882 201.834724,17.3411765 C201.201278,16.6117647 200.896285,15.6235294 200.896285,14.3529412 C200.896285,13.1058824 201.201278,12.1176471 201.834724,11.3882353 C202.46817,10.6588235 203.312765,10.3058824 204.415431,10.3058824 Z M225.225311,10.3058824 C226.327977,10.3058824 227.172572,10.6588235 227.806018,11.3882353 C228.439464,12.1411765 228.744457,13.1294118 228.744457,14.3764706 C228.744457,15.6235294 228.439464,16.6117647 227.806018,17.3411765 C227.172572,18.0705882 226.327977,18.4235294 225.225311,18.4235294 C224.122646,18.4235294 223.278051,18.0705882 222.644604,17.3411765 C222.011158,16.6117647 221.706166,15.6235294 221.706166,14.3529412 C221.706166,13.1058824 222.011158,12.1176471 222.644604,11.3882353 C223.278051,10.6588235 224.122646,10.3058824 225.225311,10.3058824 Z M137.317057,10.4470588 C139.193934,10.4470588 140.132373,11.2 140.132373,12.7058824 C140.132373,13.4588235 139.874303,14.0470588 139.358161,14.4705882 C138.84202,14.8705882 138.11473,15.0823529 137.15283,15.0823529 L135.93286,15.0823529 L135.93286,18.3529412 L135.393257,18.3529412 L135.393257,10.4470588 L137.317057,10.4470588 Z M143.721902,10.4470588 C144.707262,10.4470588 145.411092,10.6352941 145.880311,10.9882353 C146.34953,11.3411765 146.58414,11.8823529 146.58414,12.6117647 C146.58414,13.1294118 146.443374,13.5764706 146.161843,13.9529412 C145.880311,14.3058824 145.458013,14.5882353 144.89495,14.7294118 L147.029898,18.3294118 L146.372991,18.3294118 L144.355348,14.8941176 L142.384626,14.8941176 L142.384626,18.3294118 L141.845024,18.3294118 L141.845024,10.4470588 L143.721902,10.4470588 Z M238.621525,10.4 L241.718373,18.3294118 L241.108388,18.3294118 L240.005722,15.5529412 L236.81503,15.5529412 L235.712365,18.3294118 L235.102379,18.3294118 L238.26961,10.4 L238.621525,10.4 Z M216.286682,10.4470588 L216.286682,14.5411765 L217.154737,13.6705882 L220.228125,10.4470588 L220.931954,10.4470588 L217.717801,13.7882353 L221.025798,18.3294118 L220.345429,18.3294118 L217.342425,14.1647059 L216.286682,15.1058824 L216.286682,18.3294118 L215.747079,18.3294118 L215.747079,10.4470588 L216.286682,10.4470588 Z M150.783654,10.4 L153.880502,18.3294118 L153.270516,18.3294118 L152.167851,15.5529412 L148.977159,15.5529412 L147.874493,18.3294118 L147.264508,18.3294118 L150.431739,10.4 L150.783654,10.4 Z M200.145534,10.4470588 L200.145534,10.9647059 L197.588289,10.9647059 L197.588289,18.3294118 L197.025225,18.3294118 L197.025225,10.9647059 L194.46798,10.9647059 L194.46798,10.4470588 L200.145534,10.4470588 Z M159.604978,10.4470588 L159.604978,10.9647059 L157.047733,10.9647059 L157.047733,18.3294118 L156.50813,18.3294118 L156.50813,10.9647059 L153.950885,10.9647059 L153.950885,10.4470588 L159.604978,10.4470588 Z M183.394402,10.4 L186.49125,18.3294118 L185.881265,18.3294118 L184.778599,15.5529412 L181.587907,15.5529412 L180.485242,18.3294118 L179.875256,18.3294118 L183.042487,10.4 L183.394402,10.4 Z M161.317629,10.4470588 L161.317629,18.3294118 L160.778027,18.3294118 L160.778027,10.4470588 L161.317629,10.4470588 Z M173.91617,10.4 L177.013018,18.3294118 L176.403033,18.3294118 L175.300367,15.5529412 L172.109675,15.5529412 L171.00701,18.3294118 L170.397024,18.3294118 L173.564255,10.4 L173.91617,10.4 Z M231.114015,10.4470588 L231.114015,17.8117647 L234.86777,17.8117647 L234.86777,18.3294118 L230.550951,18.3294118 L230.550951,10.4470588 L231.114015,10.4470588 Z M204.415431,10.8235294 C203.476992,10.8235294 202.749702,11.1294118 202.257022,11.7411765 C201.74088,12.3764706 201.48281,13.2470588 201.48281,14.3764706 C201.48281,15.5058824 201.74088,16.3764706 202.233561,16.9882353 C202.726241,17.6 203.453531,17.9058824 204.39197,17.9058824 C205.330409,17.9058824 206.057699,17.6 206.57384,16.9882353 C207.06652,16.3764706 207.324591,15.5058824 207.324591,14.3529412 C207.324591,13.2235294 207.06652,12.3529412 206.57384,11.7411765 C206.08116,11.1294118 205.35387,10.8235294 204.415431,10.8235294 Z M225.248772,10.8235294 C224.310333,10.8235294 223.583043,11.1294118 223.090363,11.7411765 C222.574222,12.3764706 222.316151,13.2470588 222.316151,14.3764706 C222.316151,15.5058824 222.574222,16.3764706 223.066902,16.9882353 C223.559582,17.6 224.286872,17.9058824 225.225311,17.9058824 C226.16375,17.9058824 226.89104,17.6 227.407181,16.9882353 C227.899862,16.3764706 228.157932,15.5058824 228.157932,14.3529412 C228.157932,13.2235294 227.899862,12.3529412 227.407181,11.7411765 C226.914501,11.1294118 226.187211,10.8235294 225.248772,10.8235294 Z M183.206714,11.2941176 C183.11287,11.6470588 182.995565,11.9529412 182.87826,12.2352941 L181.799056,15.0588235 L184.614372,15.0588235 L183.535168,12.2117647 C183.503886,12.1411765 183.472605,12.0575163 183.439586,11.9633987 L183.273404,11.4781046 C183.252333,11.4183007 183.230175,11.3568627 183.206714,11.2941176 Z M150.595966,11.2941176 C150.502122,11.6470588 150.384817,11.9529412 150.267512,12.2352941 L149.188308,15.0588235 L152.003624,15.0588235 L150.924419,12.2117647 C150.893138,12.1411765 150.861857,12.0575163 150.828838,11.9633987 L150.662656,11.4781046 C150.641584,11.4183007 150.619427,11.3568627 150.595966,11.2941176 Z M238.410376,11.2941176 C238.316532,11.6470588 238.199228,11.9529412 238.081923,12.2352941 L237.002718,15.0588235 L239.818034,15.0588235 L238.73883,12.2117647 C238.707549,12.1411765 238.676267,12.0575163 238.643248,11.9633987 L238.477066,11.4781046 C238.455995,11.4183007 238.433837,11.3568627 238.410376,11.2941176 Z M173.728482,11.2941176 C173.634638,11.6470588 173.517333,11.9529412 173.400029,12.2352941 L172.320824,15.0588235 L175.13614,15.0588235 L174.056936,12.2117647 C174.025654,12.1411765 173.994373,12.0575163 173.961354,11.9633987 L173.795172,11.4781046 C173.774101,11.4183007 173.751943,11.3568627 173.728482,11.2941176 Z M137.246674,10.9411765 L135.956321,10.9411765 L135.956321,14.6117647 L137.035525,14.6117647 C137.927042,14.6117647 138.560488,14.4705882 138.959325,14.1647059 C139.358161,13.8823529 139.545849,13.3882353 139.545849,12.7294118 C139.545849,12.1176471 139.358161,11.6705882 138.982786,11.3882353 C138.60741,11.1058824 138.020886,10.9411765 137.246674,10.9411765 Z M143.67498,10.9411765 L142.384626,10.9411765 L142.384626,14.4235294 L143.886128,14.4235294 C144.543036,14.4235294 145.059177,14.2823529 145.434552,13.9764706 C145.809928,13.6705882 145.974155,13.2470588 145.974155,12.6588235 C145.974155,12.0470588 145.786467,11.6235294 145.434552,11.3411765 C145.082638,11.0588235 144.496114,10.9411765 143.67498,10.9411765 Z M152.097468,9.31764706 L152.097468,9.76470588 L149.117925,9.76470588 L149.117925,9.31764706 L152.097468,9.31764706 Z M162.561061,9.31764706 L162.561061,9.76470588 L159.581517,9.76470588 L159.581517,9.31764706 L162.561061,9.31764706 Z M44.3412331,0.0705882353 C44.5289209,0.0705882353 44.6931477,0.141176471 44.8104525,0.282352941 C44.9277574,0.423529412 44.9981403,0.564705882 44.9981403,0.729411765 C44.9981403,0.894117647 44.9512183,1.03529412 44.8808354,1.17647059 L42.7458872,3.95294118 L40.3763292,3.95294118 L38.241381,1.17647059 C38.170998,1.05882353 38.1240761,0.917647059 38.1240761,0.752941176 C38.1240761,0.588235294 38.194459,0.447058824 38.3117639,0.305882353 C38.4290687,0.164705882 38.5932955,0.0941176471 38.7809833,0.0941176471 C39.3675075,0.0941176471 39.9540318,0.470588235 40.540556,1.2 L41.5493777,2.47058824 L42.5816604,1.17647059 C43.1681846,0.447058824 43.7547089,0.0705882353 44.3412331,0.0705882353 Z" fill="#1A2633"></path>
            </g>
        </g>
    </g>
</svg>
