<?xml version="1.0" encoding="UTF-8"?>
<svg width="140px" height="44px" viewBox="0 0 140 44" version="1.1" xmlns="http://www.w3.org/2000/svg" xmlns:xlink="http://www.w3.org/1999/xlink">
    <g id="Sadaļas" stroke="none" stroke-width="1" fill="none" fill-rule="evenodd">
        <g id="01.-Sākumlapa-v4" transform="translate(-215.000000, -6685.000000)" fill="#1A2633">
            <g id="Footer" transform="translate(0.000000, 6629.000000)">
                <g id="Logotype" transform="translate(215.000000, 56.000000)">
                    <path d="M66.3890063,32.620176 L66.3890063,39.4123223 C66.3890063,40.1570752 66.4778013,40.7826676 66.6257928,41.2593094 C66.7737844,41.7359513 67.0105708,42.1530129 67.2769556,42.450914 C67.5433404,42.7488152 67.8689218,42.957346 68.2241015,43.0765064 C68.5792812,43.1956669 68.9640592,43.2552471 69.3488372,43.2552471 C69.7632135,43.2552471 70.1479915,43.1956669 70.5031712,43.0765064 C70.858351,42.957346 71.1839323,42.7488152 71.4503171,42.450914 C71.6723044,42.2026631 71.8737374,41.8923494 72.0203586,41.5027333 L72.1014799,41.2593094 C72.2790698,40.7528775 72.3678647,40.1570752 72.3678647,39.4123223 L72.3678647,32.620176 L73.1078224,32.620176 L73.1078224,39.5016926 C73.1078224,40.365606 72.9894292,41.1103588 72.782241,41.676371 C72.5750529,42.2423832 72.2790698,42.7190251 71.9238901,43.0765064 C71.5687104,43.4339878 71.1839323,43.6723087 70.7399577,43.7914692 C70.2959831,43.9404198 69.8224101,44 69.3488372,44 C68.8752643,44 68.4016913,43.9404198 67.9577167,43.7914692 C67.5137421,43.6425186 67.0993658,43.4041977 66.7737844,43.0765064 C66.4186047,42.7190251 66.1522199,42.2721733 65.9450317,41.676371 C65.7378436,41.1103588 65.6194503,40.365606 65.6194503,39.5016926 L65.6194503,32.620176 L66.3890063,32.620176 Z M88.6469345,32.3818551 C89.3276956,32.3818551 89.94926,32.5010156 90.5116279,32.7691266 C91.0739958,33.0372376 91.5475687,33.4245091 91.961945,33.9309411 C92.3763214,34.4373731 92.6723044,35.0331754 92.9090909,35.7481381 C93.1458774,36.4631009 93.2346723,37.2376439 93.2346723,38.1313473 C93.2346723,39.0250508 93.1162791,39.8293839 92.9090909,40.5443466 C92.6723044,41.2593094 92.3763214,41.8849018 91.961945,42.3913338 C91.5475687,42.8977657 91.0739958,43.2850372 90.5116279,43.5531483 C89.94926,43.8510494 89.3276956,43.9702099 88.6469345,43.9702099 C87.9957717,43.9702099 87.3742072,43.8212593 86.8118393,43.5531483 C86.2494715,43.2850372 85.7758985,42.8977657 85.3615222,42.3913338 C84.9471459,41.8849018 84.6511628,41.2593094 84.4143763,40.5443466 C84.1775899,39.8293839 84.0887949,39.0250508 84.0887949,38.1313473 C84.0887949,37.267434 84.2071882,36.4631009 84.4143763,35.7481381 C84.6511628,35.0331754 84.9471459,34.4373731 85.3615222,33.9309411 C85.7758985,33.4245091 86.2494715,33.0372376 86.8118393,32.7691266 C87.3742072,32.5010156 87.9957717,32.3818551 88.6469345,32.3818551 Z M117.475687,32.3818551 C118.156448,32.3818551 118.778013,32.5010156 119.340381,32.7691266 C119.902748,33.0372376 120.376321,33.4245091 120.790698,33.9309411 C121.205074,34.4373731 121.501057,35.0331754 121.737844,35.7481381 C121.97463,36.4631009 122.063425,37.2376439 122.063425,38.1313473 C122.063425,39.0250508 121.945032,39.8293839 121.737844,40.5443466 C121.530655,41.2593094 121.205074,41.8849018 120.790698,42.3913338 C120.376321,42.8977657 119.902748,43.2850372 119.340381,43.5531483 C118.778013,43.8510494 118.156448,43.9702099 117.475687,43.9702099 C116.824524,43.9702099 116.20296,43.8212593 115.640592,43.5531483 C115.078224,43.2850372 114.604651,42.8977657 114.190275,42.3913338 C113.775899,41.8849018 113.479915,41.2593094 113.243129,40.5443466 C113.006342,39.8293839 112.917548,39.0250508 112.917548,38.1313473 C112.917548,37.267434 113.035941,36.4631009 113.243129,35.7481381 C113.479915,35.0331754 113.775899,34.4373731 114.190275,33.9309411 C114.604651,33.4245091 115.078224,33.0372376 115.640592,32.7691266 C116.20296,32.5010156 116.824524,32.3818551 117.475687,32.3818551 Z M98.769556,32.4116452 C99.4503171,32.4116452 100.042283,32.5308057 100.575053,32.7989167 C101.107822,33.0670278 101.522199,33.3649289 101.84778,33.7224103 L101.403805,34.2586324 C101.078224,33.901151 100.693446,33.6330399 100.249471,33.4245091 C99.8054968,33.2159783 99.3023256,33.0968179 98.7399577,33.0968179 C98,33.0968179 97.4080338,33.2755586 96.9640592,33.6330399 C96.5200846,33.9905213 96.2832981,34.4671632 96.2832981,35.0927556 C96.2832981,35.4204469 96.3424947,35.6885579 96.4608879,35.9268788 C96.5792812,36.1651997 96.756871,36.3439404 96.9344609,36.5226811 C97.141649,36.6716317 97.3488372,36.8205823 97.5560254,36.9397427 L97.9989038,37.1559969 C98.0690627,37.1913037 98.1381254,37.2277138 98.2071882,37.267434 L99.8942918,38.0121869 C100.057082,38.0717671 100.212474,38.1462424 100.360465,38.2244414 L100.782241,38.4590386 L100.782241,38.4590386 C101.078224,38.6377793 101.315011,38.81652 101.522199,39.0548409 C101.729387,39.2931618 101.906977,39.5612729 102.02537,39.859174 C102.143763,40.1868653 102.232558,40.5443466 102.232558,40.9614083 C102.232558,41.3784699 102.143763,41.7955315 101.966173,42.1530129 C101.788584,42.5104942 101.551797,42.8381855 101.255814,43.1062965 C100.959831,43.3744076 100.575053,43.5829384 100.131078,43.731889 C99.6871036,43.8808395 99.2135307,43.9702099 98.6511628,43.9702099 C97.8520085,43.9702099 97.1120507,43.8212593 96.4904863,43.493568 C95.8689218,43.1956669 95.3361522,42.7786053 94.8921776,42.2721733 L95.4249471,41.7657414 C95.8393235,42.2125931 96.3128964,42.5998646 96.8752643,42.8679756 C97.4376321,43.1360867 98.0295983,43.2850372 98.6807611,43.2850372 C99.5391121,43.2850372 100.190275,43.0765064 100.693446,42.6594448 C101.196617,42.2423832 101.433404,41.7061611 101.433404,41.0507786 C101.433404,40.6932972 101.374207,40.4251862 101.285412,40.1570752 C101.167019,39.9187542 101.048626,39.7102234 100.871036,39.5314827 C100.693446,39.352742 100.486258,39.2037915 100.249471,39.0548409 L99.745204,38.7944532 C99.6575053,38.7503197 99.5687104,38.7072896 99.4799154,38.6675694 L97.7928118,37.9228165 L97.2885444,37.6756689 C97.2008457,37.6315354 97.1120507,37.5851952 97.0232558,37.535545 C96.756871,37.3865944 96.5200846,37.2078538 96.3128964,36.999323 C96.1057082,36.7907921 95.8985201,36.5226811 95.7505285,36.22478 C95.602537,35.9268788 95.5433404,35.5693974 95.5433404,35.1523358 C95.5433404,34.7352742 95.6321353,34.3777928 95.7801268,34.0501016 C95.9281184,33.7224103 96.1649049,33.4245091 96.4608879,33.1861882 C96.6976744,32.9955315 96.9534038,32.8239404 97.2583848,32.7019201 L97.4968288,32.620176 C97.8816068,32.4712255 98.3255814,32.4116452 98.769556,32.4116452 Z M125.378436,32.620176 L125.378436,43.1062965 L130.498943,43.1062965 L130.498943,43.7914692 L124.608879,43.7914692 L124.608879,32.620176 L125.378436,32.620176 Z M105.340381,32.620176 L105.340381,38.81652 L105.369979,38.81652 L110.727273,32.620176 L111.674419,32.620176 L108.122622,36.7312119 L112.147992,43.7914692 L111.260042,43.7914692 L107.589852,37.3270142 L105.340381,39.9187542 L105.340381,43.7914692 L104.570825,43.7914692 L104.570825,32.620176 L105.340381,32.620176 Z M83.0528541,32.620176 L83.0528541,33.2755586 L79.5010571,33.2755586 L79.5010571,43.7914692 L78.7315011,43.7914692 L78.7315011,33.2755586 L75.179704,33.2755586 L75.179704,32.620176 L83.0528541,32.620176 Z M60.2621564,32.5903859 L64.1691332,43.7616791 L63.3699789,43.7616791 L62.0676533,39.9485443 L57.6575053,39.9485443 L56.3551797,43.7616791 L55.5856237,43.7616791 L59.4926004,32.5903859 L60.2621564,32.5903859 Z M135.826638,32.5903859 L139.733615,43.7616791 L138.934461,43.7616791 L137.602537,39.9485443 L133.221987,39.9485443 L131.919662,43.7616791 L131.150106,43.7616791 L135.057082,32.5903859 L135.826638,32.5903859 Z M88.6469345,33.126608 C88.0845666,33.126608 87.5813953,33.2457684 87.1078224,33.4840894 C86.6342495,33.7224103 86.2494715,34.0501016 85.9238901,34.4969533 C85.5983087,34.943805 85.3615222,35.450237 85.154334,36.0758294 C84.9767442,36.7014218 84.8879493,37.3865944 84.8879493,38.1611374 C84.8879493,38.9356804 84.9767442,39.6506432 85.154334,40.2762356 C85.3319239,40.901828 85.5983087,41.4380501 85.9238901,41.8849018 C86.2494715,42.3317536 86.6342495,42.6892349 87.1078224,42.9275559 C87.5813953,43.1360867 88.0845666,43.2850372 88.6469345,43.2850372 C89.2093023,43.2850372 89.7124736,43.1658768 90.1860465,42.9275559 C90.6596195,42.6892349 91.0443975,42.3317536 91.3699789,41.8849018 C91.6955603,41.4380501 91.961945,40.901828 92.1395349,40.2762356 C92.3171247,39.6506432 92.4059197,38.9356804 92.4059197,38.1611374 C92.4059197,37.3865944 92.3171247,36.7014218 92.1395349,36.0758294 C91.961945,35.450237 91.6955603,34.9140149 91.3699789,34.4969533 C91.0443975,34.0798917 90.6300211,33.7224103 90.1860465,33.4840894 C89.7124736,33.2457684 89.2093023,33.126608 88.6469345,33.126608 Z M117.475687,33.126608 C116.913319,33.126608 116.410148,33.2457684 115.936575,33.4840894 C115.463002,33.7224103 115.078224,34.0501016 114.752643,34.4969533 C114.427061,34.943805 114.190275,35.450237 114.012685,36.0758294 C113.835095,36.7014218 113.7463,37.3865944 113.7463,38.1611374 C113.7463,38.9356804 113.835095,39.6506432 114.012685,40.2762356 C114.190275,40.901828 114.45666,41.4380501 114.752643,41.8849018 C115.078224,42.3317536 115.463002,42.6892349 115.936575,42.9275559 C116.410148,43.1360867 116.913319,43.2850372 117.475687,43.2850372 C118.038055,43.2850372 118.541226,43.1658768 119.014799,42.9275559 C119.458774,42.6892349 119.87315,42.3317536 120.198732,41.8849018 C120.524313,41.4380501 120.790698,40.901828 120.968288,40.2762356 C121.145877,39.6506432 121.234672,38.9356804 121.234672,38.1611374 C121.234672,37.3865944 121.145877,36.7014218 120.968288,36.0758294 C120.790698,35.450237 120.524313,34.9140149 120.198732,34.4969533 C119.87315,34.0798917 119.458774,33.7224103 119.014799,33.4840894 C118.541226,33.2457684 118.038055,33.126608 117.475687,33.126608 Z M135.412262,33.3649289 L135.353066,33.3649289 C135.219873,33.8788084 135.070032,34.3759309 134.916028,34.8437288 L134.337953,36.5612979 C134.264506,36.7742421 134.188865,36.9893929 134.109937,37.2078538 L133.399577,39.2931618 L137.365751,39.2931618 L136.655391,37.2078538 L136.482888,36.7172478 L136.482888,36.7172478 L136.004228,35.3012864 L136.004228,35.3012864 C135.79704,34.675694 135.589852,34.0501016 135.412262,33.3649289 Z M59.9069767,33.3649289 L59.8477801,33.3649289 L59.551797,34.3666215 C59.5036998,34.5286053 59.4556025,34.6877962 59.4065803,34.8437288 L59.255814,35.3012864 C59.0486258,35.9268788 58.8414376,36.5524712 58.6046512,37.2078538 L57.8942918,39.2931618 L61.8604651,39.2931618 L61.1501057,37.2078538 L60.9776031,36.7172478 L60.9776031,36.7172478 L60.4989429,35.3012864 L60.4989429,35.3012864 C60.3953488,34.9884902 60.2991543,34.675694 60.2029598,34.3554502 L59.9069767,33.3649289 L59.9069767,33.3649289 Z M29.7758985,6.9113067 L38.1818182,20.436019 L38.1818182,6.9113067 L42.2071882,6.9113067 L42.2071882,25.4705484 C42.2071882,26.0961408 42,26.662153 41.6448203,27.1090047 C41.2600423,27.5558565 40.8160677,27.7941774 40.2832981,27.7941774 C38.9513742,27.7941774 37.8858351,27.0196344 37.0274841,25.4705484 L29.9534884,14.2992552 L29.9534884,27.5558565 L25.9281184,27.5558565 L25.9281184,6.9113067 L29.7758985,6.9113067 Z M109.602537,6.9113067 L118.008457,20.436019 L118.008457,6.9113067 L122.033827,6.9113067 L122.033827,25.4705484 C122.033827,26.0961408 121.826638,26.662153 121.44186,27.1090047 C121.057082,27.5558565 120.613108,27.7941774 120.080338,27.7941774 C118.748414,27.7941774 117.682875,27.0196344 116.824524,25.4705484 L109.750529,14.2992552 L109.750529,27.5558565 L105.754757,27.5558565 L105.754757,6.9113067 L109.602537,6.9113067 Z M132.30444,6.67298578 C134.435518,6.67298578 136.181818,7.20920785 137.484144,8.31144211 C138.786469,9.41367637 139.437632,10.8138118 139.437632,12.5416385 L135.856237,12.7203791 C135.530655,11.0521327 134.40592,10.1882194 132.48203,10.1882194 C131.298097,10.1882194 130.38055,10.4265403 129.729387,10.9329722 C129.078224,11.4394042 128.723044,12.0352065 128.723044,12.7203791 C128.723044,13.4055518 128.959831,13.9417739 129.433404,14.3290454 C129.906977,14.7163169 130.498943,14.9844279 131.209302,15.0737982 L134.494715,15.4312796 C138.164905,15.9675017 140,17.9634394 140,21.4488829 C140,23.4150305 139.289641,24.9343263 137.868922,26.0365606 C136.448203,27.1387949 134.642706,27.704807 132.422833,27.704807 C130.676533,27.704807 128.989429,27.2281652 127.361522,26.2450914 C126.562368,25.7386594 125.881607,25.0236967 125.378436,24.1002031 C124.875264,23.1767095 124.608879,22.1340555 124.608879,20.9424509 L128.249471,20.7637102 C128.249471,21.8063643 128.693446,22.6106974 129.581395,23.2064997 C130.469345,23.802302 131.446089,24.070413 132.511628,24.070413 C134.909091,24.070413 136.122622,23.2064997 136.122622,21.5084631 C136.122622,20.1083277 135.323467,19.3039946 133.665962,19.0358835 L130.321353,18.6784022 C128.634249,18.4400812 127.331924,17.8442789 126.35518,16.8909953 C125.378436,15.9377116 124.875264,14.5673663 124.875264,12.8097495 C124.875264,11.0223426 125.585624,9.56262695 126.976744,8.40081246 C128.367865,7.23899797 130.143763,6.67298578 132.30444,6.67298578 Z M52.2410148,6.7027759 C54.3424947,6.7027759 56.1183932,7.26878808 57.5983087,8.37102234 C59.0782241,9.4732566 59.8181818,10.873392 59.8181818,12.5714286 L56.2367865,12.7501693 C56.1183932,12.1245768 55.8224101,11.6181449 55.3192389,11.2010833 C54.5200846,10.5457007 53.5729387,10.2180095 52.448203,10.2180095 C51.3234672,10.2180095 50.435518,10.4563304 49.8139535,10.9627624 C49.192389,11.4691943 48.8668076,12.0649966 48.8668076,12.7501693 C48.8668076,13.4353419 49.1035941,13.971564 49.577167,14.3588355 C50.05074,14.746107 50.6427061,15.014218 51.3530655,15.1035884 L54.6384778,15.4610697 C58.3382664,15.9675017 60.1733615,17.9634394 60.1733615,21.4488829 C60.1733615,23.3554502 59.3742072,24.8747461 57.7758985,26.0067705 C56.1775899,27.1387949 54.2536998,27.704807 51.97463,27.704807 C50.2579281,27.704807 48.6892178,27.2281652 47.2093023,26.2450914 C46.4693446,25.7386594 45.8773784,25.0236967 45.4038055,24.1299932 C44.9598309,23.2362898 44.7230444,22.1638456 44.7230444,20.972241 L48.3636364,20.7935003 C48.3636364,21.8659445 48.7188161,22.6702776 49.4291755,23.2362898 C50.1395349,23.802302 51.0570825,24.1002031 52.1818182,24.1002031 C53.3065539,24.1002031 54.2536998,23.8618822 55.0528541,23.4150305 C55.8520085,22.9681787 56.2367865,22.3425863 56.2367865,21.5382532 C56.2367865,20.1381178 55.4080338,19.3337847 53.7801268,19.0656737 L50.435518,18.7081923 C48.7780127,18.4698714 47.4460888,17.8740691 46.4693446,16.9207854 C45.4926004,15.9675017 44.9894292,14.5971564 44.9894292,12.8395396 C44.9894292,11.0521327 45.6701903,9.59241706 47.0317125,8.43060257 C48.3932347,7.26878808 50.1395349,6.7027759 52.2410148,6.7027759 Z M21.4291755,6.9113067 L21.4291755,27.5558565 L17.4334038,27.5558565 L17.4334038,6.9113067 L21.4291755,6.9113067 Z M101.255814,6.9113067 L101.255814,27.5558565 L97.2600423,27.5558565 L97.2600423,6.9113067 L101.255814,6.9113067 Z M93.3826638,6.9113067 L93.3826638,10.5159106 L83.8816068,10.5159106 L83.8816068,15.3716994 L90.5412262,15.3716994 L90.2452431,18.9763033 L83.8816068,18.9763033 L83.8816068,21.8361544 C83.8816068,22.6404875 84.0591966,23.2064997 84.4143763,23.5044008 C84.769556,23.802302 85.4503171,23.9810427 86.397463,23.9810427 L93.3826638,23.9810427 L93.3530655,27.5558565 L86.1014799,27.5558565 C83.7928118,27.5558565 82.1945032,27.168585 81.2473573,26.3642519 C80.3298097,25.5599188 79.8562368,24.1597833 79.8562368,22.1042654 L79.8562368,6.9113067 L93.3826638,6.9113067 Z M13.4968288,6.9113067 L13.4968288,10.5159106 L3.99577167,10.5159106 L3.99577167,15.3716994 L10.6553911,15.3716994 L10.359408,18.9763033 L3.99577167,18.9763033 L3.99577167,21.8361544 C3.99577167,22.6404875 4.17336152,23.2064997 4.52854123,23.5044008 C4.88372093,23.802302 5.56448203,23.9810427 6.51162791,23.9810427 L13.4968288,23.9810427 L13.4968288,27.5558565 L6.24524313,27.5558565 C3.93657505,27.5558565 2.30866808,27.168585 1.39112051,26.3642519 C0.473572939,25.5301286 0,24.1299932 0,22.1042654 L0,6.9113067 L13.4968288,6.9113067 Z M76.7188161,6.9113067 L76.7188161,10.4861205 L71.2135307,10.4861205 L71.2135307,27.5558565 L67.217759,27.5558565 L67.217759,10.4861205 L61.7420719,10.4861205 L61.7420719,6.9113067 L76.7188161,6.9113067 Z M55.9408034,0 C56.1775899,0 56.384778,0.0893703453 56.5327696,0.268111036 C56.6807611,0.446851726 56.769556,0.625592417 56.769556,0.834123223 C56.769556,1.04265403 56.7103594,1.22139472 56.6215645,1.40013541 L53.9281184,4.91536899 L50.9386892,4.91536899 L48.2452431,1.40013541 C48.1564482,1.25118483 48.0972516,1.07244414 48.0972516,0.863913338 C48.0972516,0.655382532 48.1860465,0.476641842 48.3340381,0.297901151 C48.4820296,0.11916046 48.6892178,0.0297901151 48.9260042,0.0297901151 C49.6659619,0.0297901151 50.4059197,0.506431957 51.1458774,1.42992552 L52.4186047,3.03859174 L53.7209302,1.40013541 C54.4608879,0.476641842 55.2008457,0 55.9408034,0 Z" id="Logo"></path>
                </g>
            </g>
        </g>
    </g>
</svg>
